<svg xmlns="http://www.w3.org/2000/svg" viewBox="0 0 521 181.31"><defs><style>.cls-1{fill:#fcfdfd;}.cls-2{fill:#0a5b54;}.cls-3{fill:#f0f4f3;}</style></defs><title>ACEP</title><g id="Calque_2" data-name="Calque 2"><g id="Calque_1-2" data-name="Calque 1"><path class="cls-1" d="M520.9,104.18c0,24.28-.09,48.56.1,72.83,0,3.51-.61,4.3-4.24,4.3q-208-.18-416-.1c-32.27,0-64.55-.07-96.83.09-3.34,0-4-.86-3.95-4Q.17,90.64,0,4C0,.86.61,0,4,0Q260.62.15,517.28,0c3.19,0,3.72.73,3.7,3.76-.15,23.06-.08,46.13-.08,69.19-8.08-11.23-19.32-15.49-32.8-15.12-7.45.2-14.91-.07-22.36.05-13.15.21-18.78,6-18.8,19.31q0,29.1,0,58.21c0,15,0,14.9,14.95,14.48,3-.09,3.84-1,3.77-3.89-.17-7.62.06-15.25-.11-22.87-.06-2.71.71-3.61,3.48-3.52,6.24.19,12.49,0,18.73.07C501.34,119.9,513,116.14,520.9,104.18Zm-159.62-.46c0,8.85,0,17.69,0,26.54,0,13.35,6,19.45,19.35,19.52,13,.08,26,0,39.05,0,11.75,0,11.54,0,11.79-12,.09-4.23-1.25-5.16-5.23-5.09-13.88.23-27.77,0-41.65.17-3.7.06-4.85-1.09-4.59-4.69a78.28,78.28,0,0,0,0-12c-.28-3.62,1.25-4.29,4.48-4.24,10.24.17,20.48.07,30.72.07,12.11,0,12,0,12.07-12.21,0-3.57-.85-4.74-4.57-4.68-12.84.23-25.68,0-38.52.15-3.07,0-4.39-.72-4.17-4a89.62,89.62,0,0,0,0-12.48c-.27-3.61,1.26-4.28,4.49-4.24,11.28.17,22.56.06,33.84.06,13.62,0,13.56,0,12.92-13.45-.11-2.37-.62-3.41-3.2-3.39-16.83.11-33.67-.15-50.5.24-10.34.25-16.07,6.61-16.23,17C361.16,84.65,361.28,94.19,361.28,103.72ZM79.69,149.19h28.1c1.91,0,3.7,0,5.26-1.54,12.82-12.67,25.71-25.27,38.55-37.93,2.21-2.18,3.54-4.8,2.21-8s-4.37-2.9-7.14-2.91c-15.26,0-30.53.31-45.78-.15-6.76-.2-12.22,1.1-16.25,6.74-3,4.12-5.87,4.59-9,.1-3.94-5.56-9.32-7.08-16.17-6.84-15.24.54-30.52.2-45.78.16-3.21,0-6.45-.12-7.9,3.52s1,5.87,3.28,8.06c12.38,12.13,24.84,24.18,37.15,36.38a8.15,8.15,0,0,0,6.47,2.42C61.65,149.12,70.67,149.19,79.69,149.19Zm41-54.48c9,0,18,0,27.07,0,2.62,0,5-.66,6.13-3.1S154,86.91,152.3,85c-.67-.79-1.39-1.55-2.13-2.28C138,70.77,125.87,58.91,113.8,47a7.73,7.73,0,0,0-6-2.29q-27.86.11-55.7,0a7.69,7.69,0,0,0-5.91,2.48C33.84,59.32,21.4,71.41,9,83.53c-2.28,2.21-4.76,4.51-3.22,8,1.43,3.28,4.64,3.13,7.64,3.13,15.27,0,30.55-.38,45.8.15,7.18.25,12.9-1.26,17.06-7.18,2.57-3.65,4.92-3.52,7.46,0,4.4,6,10.31,7.88,17.68,7.19C107.78,94.24,114.25,94.71,120.67,94.71Zm51.09,55.09c5.82,0,10.85-.28,15.83.09,3.69.28,5.22-1.24,6.31-4.48,1.37-4.09,3.46-7.94,4.84-12,.89-2.66,2.35-3.3,5-3.27,9.19.14,18.38.06,27.57.06,9.64,0,9.65,0,13.41,9.08,1.13,2.71,2.28,5.42,3.32,8.17a3.19,3.19,0,0,0,3.45,2.41c5.65-.1,11.3,0,17.12,0a9,9,0,0,0-.26-2c-11.7-27-23.34-54-35.22-80.9-2.28-5.15-6.42-8.77-12.47-8.84s-10,3.49-12.57,8.6c-2.39,4.8-4.41,9.78-6.55,14.69C191.7,103.89,181.93,126.4,171.76,149.8Zm95.54-49.52c0,21,7.73,34.47,22.12,44.14,17.22,11.57,44,9.25,58.45-4.74,2.24-2.16,2.83-3.49-.05-5.53a80.27,80.27,0,0,1-7.94-6.71c-1.88-1.74-3.26-2.36-5.52-.17-4.84,4.67-11,6.26-17.64,6.5-12.66.45-23.72-6.55-28.36-18A31.68,31.68,0,0,1,296,80.84c8.22-7.63,22.68-9.28,33.18-4.35,3.13,1.47,5,6.31,8.76,4.8,3.21-1.27,5.64-4.48,8.42-6.83a8,8,0,0,1,1.23-1c3.2-1.8,3-3.42.24-5.75-15.71-13.48-33.56-15.82-52-7.89C277.23,67.91,267.74,83.2,267.3,100.28Z"/><path class="cls-2" d="M520.9,104.18c-7.87,12-19.56,15.72-33.15,15.49-6.24-.1-12.49.12-18.73-.07-2.77-.09-3.54.81-3.48,3.52.17,7.62-.06,15.25.11,22.87.07,2.91-.78,3.8-3.77,3.89-14.95.42-14.95.51-14.95-14.48q0-29.12,0-58.21c0-13.29,5.65-19.1,18.8-19.31,7.45-.12,14.91.15,22.36-.05,13.48-.37,24.72,3.89,32.8,15.12Zm-40-29.26v-.25c-4.16,0-8.32.06-12.48,0-1.91,0-2.85.48-2.83,2.61.09,7.63,0,15.25,0,22.88,0,1.54.21,2.8,2.19,2.74,9-.28,18.06.88,27-.7,7-1.25,11-7,10.62-14.45-.35-6.92-5-12.11-12-12.74C489.23,74.62,485,74.92,480.88,74.92Z"/><path class="cls-2" d="M361.28,103.72c0-9.53-.12-19.07,0-28.61.16-10.44,5.89-16.8,16.23-17,16.83-.39,33.67-.13,50.5-.24,2.58,0,3.09,1,3.2,3.39.64,13.46.7,13.45-12.92,13.45-11.28,0-22.56.11-33.84-.06-3.23,0-4.76.63-4.49,4.24a89.62,89.62,0,0,1,0,12.48c-.22,3.31,1.1,4.06,4.17,4,12.84-.14,25.68.08,38.52-.15,3.72-.06,4.6,1.11,4.57,4.68-.1,12.2,0,12.21-12.07,12.21-10.24,0-20.48.1-30.72-.07-3.23,0-4.76.62-4.48,4.24a78.28,78.28,0,0,1,0,12c-.26,3.6.89,4.75,4.59,4.69,13.88-.21,27.77.06,41.65-.17,4-.07,5.32.86,5.23,5.09-.25,12,0,12-11.79,12-13,0-26,.06-39.05,0-13.33-.07-19.32-6.17-19.35-19.52C361.26,121.41,361.28,112.57,361.28,103.72Z"/><path class="cls-2" d="M79.69,149.19c-9,0-18-.07-27,0a8.15,8.15,0,0,1-6.47-2.42C33.86,134.61,21.4,122.56,9,110.43c-2.23-2.19-4.72-4.44-3.28-8.06s4.69-3.52,7.9-3.52c15.26,0,30.54.38,45.78-.16,6.85-.24,12.23,1.28,16.17,6.84,3.18,4.49,6.1,4,9-.1,4-5.64,9.49-6.94,16.25-6.74,15.25.46,30.52.14,45.78.15,2.77,0,5.77-.37,7.14,2.91s0,5.79-2.21,8c-12.84,12.66-25.73,25.26-38.55,37.93-1.56,1.55-3.35,1.54-5.26,1.54Zm53.15-37-1-1.61c-9.3,0-18.63.41-27.89-.15-5.74-.35-9.43,1.77-12.75,6-1.52,2-1.55,3,.2,4.69q7.17,6.78,14.09,13.83c1.49,1.52,2.39,1.27,3.78-.09C117.1,127.28,125,119.76,132.84,112.21ZM26.91,110.77c8.84,8.73,16.74,16.45,24.51,24.3,1.68,1.7,2.67,1.43,4.16-.15,4.51-4.79,9.15-9.44,13.71-14.18.68-.7,2.06-1.67,1.13-2.51-3-2.69-4.51-7.37-9.38-7.42C50.17,110.69,39.3,110.77,26.91,110.77ZM71,136.12l.92,1H88.6l.94-1.23c-2.56-2.22-5.21-4.35-7.67-6.68-1.28-1.21-2.15-1.26-3.42,0C76,131.6,73.48,133.84,71,136.12Z"/><path class="cls-2" d="M120.67,94.71c-6.42,0-12.89-.47-19.25.13-7.37.69-13.28-1.16-17.68-7.19-2.54-3.49-4.89-3.62-7.46,0-4.16,5.92-9.88,7.43-17.06,7.18-15.25-.53-30.53-.16-45.8-.15-3,0-6.21.15-7.64-3.13-1.54-3.54.94-5.84,3.22-8,12.4-12.12,24.84-24.21,37.17-36.4a7.69,7.69,0,0,1,5.91-2.48q27.86.14,55.7,0a7.73,7.73,0,0,1,6,2.29c12.07,12,24.24,23.82,36.37,35.72.74.73,1.46,1.49,2.13,2.28,1.66,2,2.72,4.23,1.57,6.68s-3.51,3.11-6.13,3.1C138.72,94.68,129.69,94.71,120.67,94.71ZM131.83,83.3l.9-1.55c-7.83-7.56-15.68-15.1-23.46-22.71-1.4-1.37-2.36-1.49-3.82,0-4.72,4.81-9.6,9.47-14.38,14.23a3.69,3.69,0,0,0-1.18,2.14c0,1.62,7,7.87,8.91,7.88C109.81,83.33,120.82,83.3,131.83,83.3Zm-105.12,0c12,0,22.32-.32,32.62.12,5.93.25,7.66-4.56,11-7.47,1.08-1-.2-1.83-.87-2.53q-7-7.28-14.09-14.53c-1-1-1.89-2-3.39-.47C43.93,66.35,35.83,74.27,26.71,83.25ZM70.78,56.53C79.9,67.1,79.9,67.1,88.68,57.61c.16-.17,0-.6.08-1.08Z"/><path class="cls-2" d="M171.76,149.8c10.17-23.4,19.94-45.91,29.74-68.43,2.14-4.91,4.16-9.89,6.55-14.69,2.54-5.11,6.52-8.68,12.57-8.6s10.19,3.69,12.47,8.84c11.88,26.91,23.52,53.92,35.22,80.9a9,9,0,0,1,.26,2c-5.82,0-11.47-.06-17.12,0a3.19,3.19,0,0,1-3.45-2.41c-1-2.75-2.19-5.46-3.32-8.17-3.76-9.08-3.77-9.08-13.41-9.08-9.19,0-18.38.08-27.57-.06-2.61,0-4.07.61-5,3.27-1.38,4.09-3.47,7.94-4.84,12-1.09,3.24-2.62,4.76-6.31,4.48C182.61,149.52,177.58,149.8,171.76,149.8Zm48.78-69.44c-4.36,10.59-8.17,20-12.13,29.4-1.1,2.59-.95,3.67,2.28,3.58,6.56-.19,13.14-.07,19.72,0,1.9,0,3.67,0,2.5-2.76C228.91,100.83,225,91.11,220.54,80.36Z"/><path class="cls-2" d="M267.3,100.28c.44-17.08,9.93-32.37,28.61-40.42,18.4-7.93,36.25-5.59,52,7.89,2.72,2.33,3,4-.24,5.75a8,8,0,0,0-1.23,1c-2.78,2.35-5.21,5.56-8.42,6.83-3.8,1.51-5.63-3.33-8.76-4.8-10.5-4.93-25-3.28-33.18,4.35a31.68,31.68,0,0,0-7.68,34.89c4.64,11.49,15.7,18.49,28.36,18,6.62-.24,12.8-1.83,17.64-6.5,2.26-2.19,3.64-1.57,5.52.17a80.27,80.27,0,0,0,7.94,6.71c2.88,2,2.29,3.37.05,5.53-14.47,14-41.23,16.31-58.45,4.74C275,134.75,267.34,121.31,267.3,100.28Z"/><path class="cls-1" d="M480.88,74.92c4.16,0,8.35-.3,12.48.07,7,.63,11.69,5.82,12,12.74.37,7.46-3.6,13.2-10.62,14.45-8.94,1.58-18,.42-27,.7-2,.06-2.19-1.2-2.19-2.74,0-7.63.07-15.25,0-22.88,0-2.13.92-2.65,2.83-2.61,4.16.08,8.32,0,12.48,0Z"/><path class="cls-3" d="M132.84,112.21c-7.86,7.55-15.74,15.07-23.54,22.68-1.39,1.36-2.29,1.61-3.78.09q-6.92-7-14.09-13.83c-1.75-1.66-1.72-2.73-.2-4.69,3.32-4.24,7-6.36,12.75-6,9.26.56,18.59.15,27.89.15Z"/><path class="cls-3" d="M26.91,110.77c12.39,0,23.26-.08,34.13,0,4.87,0,6.43,4.73,9.38,7.42.93.84-.45,1.81-1.13,2.51-4.56,4.74-9.2,9.39-13.71,14.18-1.49,1.58-2.48,1.85-4.16.15C43.65,127.22,35.75,119.5,26.91,110.77Z"/><path class="cls-3" d="M71,136.12c2.5-2.28,5-4.52,7.47-6.88,1.27-1.24,2.14-1.19,3.42,0,2.46,2.33,5.11,4.46,7.67,6.68l-.94,1.23H71.9Z"/><path class="cls-3" d="M131.83,83.3c-11,0-22,0-33,0-1.87,0-8.94-6.26-8.91-7.88a3.69,3.69,0,0,1,1.18-2.14c4.78-4.76,9.66-9.42,14.38-14.23,1.46-1.48,2.42-1.36,3.82,0,7.78,7.61,15.63,15.15,23.46,22.71Z"/><path class="cls-3" d="M26.71,83.25c9.12-9,17.22-16.9,25.25-24.88,1.5-1.49,2.39-.56,3.39.47q7,7.26,14.09,14.53c.67.7,2,1.58.87,2.53-3.32,2.91-5,7.72-11,7.47C49,82.93,38.7,83.25,26.71,83.25Z"/><path class="cls-3" d="M70.78,56.53h18c0,.48.08.91-.08,1.08C79.9,67.1,79.9,67.1,70.78,56.53Z"/><path class="cls-3" d="M220.54,80.36c4.41,10.75,8.37,20.47,12.37,30.17,1.17,2.81-.6,2.76-2.5,2.76-6.58,0-13.16-.14-19.72,0-3.23.09-3.38-1-2.28-3.58C212.37,100.39,216.18,91,220.54,80.36Z"/></g></g></svg>