<svg xmlns="http://www.w3.org/2000/svg" viewBox="0 0 512.5 207"><defs><style>.cls-1{fill:#fefdfd;}.cls-2{fill:#f3b51d;}.cls-3{fill:#191919;}.cls-4{fill:#e8543f;}.cls-5{fill:#ce7163;}.cls-6{fill:#5a6062;}</style></defs><title>Atijariwafa</title><g id="Calque_2" data-name="Calque 2"><g id="Calque_1-2" data-name="Calque 1"><path class="cls-1" d="M256.25,0Q383.67,0,511.11,0c1.13,0,1.39.26,1.39,1.39q0,102.1,0,204.22c0,1.13-.26,1.39-1.39,1.39q-254.86,0-509.72,0C.26,207,0,206.74,0,205.61Q0,103.5,0,1.39C0,.26.26,0,1.39,0Q128.82,0,256.25,0Zm-51.9,87.71a3,3,0,0,0,.26-1.63c0-13.93,0-27.86,0-41.79,0-1.33-.35-1.86-1.8-1.86q-76,.06-151.92,0c-2.4,0-2.4,0-2.4,2.34q0,38.31,0,76.63a11.5,11.5,0,0,0,.18,3.46,2.55,2.55,0,0,0-.17,1.47c0,13.88,0,27.76,0,41.64,0,1.29.27,1.72,1.66,1.72q76.49-.06,153,0c1.35,0,1.57-.49,1.57-1.68q0-39.15,0-78.29C204.72,89.07,204.89,88.33,204.35,87.74Zm245.56,5.41v0c9.59,0,19.18,0,28.78,0,3.08,0,4.18-1.15,4.18-4.2q0-8.47,0-17c0-3.44,0-3.38-3.46-3.47-1.31,0-1.74.28-1.73,1.66.08,5.9,0,11.81.06,17.72,0,1.09-.28,1.54-1.44,1.52-3-.07-6-.06-8.94,0-1,0-1.37-.27-1.33-1.28.07-1.47,0-2.93,0-4.4,0-3.82,0-3.78-3.81-3.75-1.06,0-1.26.4-1.24,1.34.05,2.27,0,4.54,0,6.81,0,1-.32,1.32-1.3,1.29q-3-.08-5.91,0c-.95,0-1.31-.26-1.4-1.26a10,10,0,0,0-2.62-6.57c-2.54-2.54-5.76-3.18-9.13-3.32-4.37-.18-8.59.83-12.8,1.86a1.13,1.13,0,0,0-.95,1.18c0,.65.05,1.32,0,2-.1,1,.34,1.22,1.15,1a46.66,46.66,0,0,1,5.71-1.41,23.19,23.19,0,0,1,9.16-.26c2.45.52,4.32,1.89,4.4,5.14,0,1.29-.29,1.76-1.67,1.75q-10.9-.1-21.81,0c-1.47,0-1.79-.5-1.77-1.84.06-5.15,0-10.3,0-15.45,0-3.62,0-3.55-3.65-3.63-1.35,0-1.56.48-1.55,1.66.05,6.11,0,12.22,0,18.33,0,3.63,1,4.64,4.66,4.64Zm-133,0c4.55,0,9.09,0,13.63,0,2.75,0,4-1.23,4-4,0-4.44,0-8.88,0-13.32,0-.89-.21-1.29-1.16-1.26-2.37,0-4.76-.11-7.11.09-3.26.27-5.93,1.64-7.14,4.93a12.91,12.91,0,0,0-.52,5.64c.14,1.5.73,1.78,2.08,1.72,2.52-.11,5.05,0,7.57-.06,1.06,0,1.54.15,1.54,1.36s-.78,1.12-1.6,1.12c-7.42,0-14.84,0-22.25,0-1.32,0-1.74-.27-1.72-1.64.07-5.24,0-10.49,0-15.74,0-3.51,0-3.46-3.58-3.5-1.11,0-1.5.25-1.49,1.41,0,6.41,0,12.82,0,19.23,0,2.83,1.2,4,4.1,4ZM262.65,72c-2.2-.27-4.3-.7-6.38.08-8.67,3.25-17.33,6.49-26,9.65-1.11.4-1.33,1-1.12,1.9.29,1.17,1.16.42,1.73.3,6.82-1.4,13.65-2,20.5-.21a10.22,10.22,0,0,1,5.15,3c.91,1,1.63,2.3,1.21,3.55s-1.79.56-2.72.56c-8.13,0-16.26,0-24.38,0-1,0-1.69.06-1.59,1.33s.89,1,1.63,1h31c7.87,0,15.74,0,23.62,0,2.28,0,2.5-.24,2.51-2.54s0-4.75,0-7.12c0-.85-.13-1.3-1.13-1.29s-1.34.3-1.31,1.31c.07,2,0,3.94,0,5.91,0,1-.36,1.4-1.43,1.39-3.48,0-7,0-10.45,0-1.05,0-1.46-.35-1.44-1.39,0-1.77,0-3.53,0-5.3,0-.84.48-2-1.23-1.93s-1.11,1.09-1.13,1.89c0,1.76,0,3.53,0,5.29,0,1-.31,1.47-1.4,1.42-1.72-.07-3.44,0-5.15,0-2.87,0-2.49.46-3.18-2.56a5.86,5.86,0,0,0-.36-1c-1.6-3.65-4.84-5.1-8.35-6.09a25.82,25.82,0,0,0-7.48-1c-.32,0-.79.08-.82-.42s.38-.41.65-.51c1.49-.59,3-1.18,4.48-1.75Zm96.43,59.86c-.71-.39-.75-1-.91-1.59q-1.08-3.84-2.2-7.67c-.33-1.09-.23-2.62-1.18-3.13s-2.27,0-3.41-.19c-1.43-.2-1.94.5-2.24,1.73-.79,3.22-1.66,6.42-2.49,9.63-.08.32,0,.79-.48.82s-.57-.47-.68-.84q-1.2-4-2.38-8.08c-1-3.41-1-3.38-4.62-3.26-1,0-1.11.39-.83,1.21,1.52,4.51,3,9,4.56,13.55,1.17,3.41,1.21,3.32,4.65,3.42a1.82,1.82,0,0,0,2.1-1.6c.68-2.57,1.25-5.18,2-7.72.41-1.3.44-2.75,1.4-4,1.11,3.9,2.26,7.63,3.19,11.42.34,1.39.79,2.08,2.28,1.87,1.19-.17,2.43.27,3.57-.25.23-.1.3-.6.4-.92.73-2.35,1.46-4.7,2.17-7.06.86-2.84,1.67-5.69,2.55-8.51.35-1.12,0-1.38-1.12-1.38-3.06,0-3.05,0-3.72,3-.15.68-.39,1.35-.58,2C360.46,126.84,359.77,129.34,359.08,131.88Zm20.66-38.47c3,0,6.05-.29,9.07-.45,1,0,1.4-.38,1.35-1.45a30.48,30.48,0,0,1,.11-4.38,3.57,3.57,0,0,1,3.85-3.43c.83,0,1.18.21,1.13,1.12-.07,1.56,0,3.12,0,4.69.06,4.38-.68,3.56,3.8,3.7,1.06,0,1.41-.41,1.39-1.45,0-3.48-.06-7,0-10.44,0-1.13-.44-1.35-1.41-1.4a58.93,58.93,0,0,0-6.51.1c-5,.36-7.54,3-7.64,8,0,1-.28,1.39-1.36,1.45-3.73.19-7.47.33-11.19.16-5-.24-8.31-2.36-8.7-8-.08-1.14-.75-1.15-1.4-.94-1.14.35-3.19-1.08-3.36.91-.32,3.85,1,7.23,4.53,9.38a17.91,17.91,0,0,0,8.91,2.38C374.79,93.47,377.27,93.41,379.74,93.41Zm-138.16,27.7c2,4.84,3.8,9.35,5.77,13.78,1.36,3.08.49,2.67,3.81,2.67h1.51c1.45,0,1.56-.24,1-1.58-2.35-5.52-4.67-11.06-7-16.59-1-2.43-2-4.87-3.11-7.26-.37-.8-.93-1.69-2-1.72s-1.42.82-1.86,1.56a5.94,5.94,0,0,0-.33.67c-.69,1.65-1.36,3.3-2.07,4.94q-4,9.44-8.09,18.87c-.2.47-.34,1.08.47,1.1,1.46,0,2.93,0,4.39,0,.57,0,.83-.51,1-1ZM354,87.74c0-2,0-3.93,0-5.9,0-.8-.18-1.21-1.08-1.18-2.32,0-4.66-.13-7,.09-3.26.33-6,1.58-7.26,5a14.39,14.39,0,0,0-.52,5.83c.07,1.14.56,1.57,1.72,1.54,2.83-.07,5.65,0,8.48,0,1.17,0,1.29.45.81,1.39a4.25,4.25,0,0,1-2.66,2c-2.85.94-5.78.55-8.69.52-.56,0-1.63-.6-1.53.7.08,1-.72,2.34,1.24,2.61,3.63.49,7.25.71,10.79-.38,3-.94,5.84-2.94,5.66-7.36C354,91,354,89.36,354,87.74Zm14.91,36.67a9.2,9.2,0,0,1,6.66-2,2.93,2.93,0,0,1,2.63,2.48c.24,1-.16,1.28-1.06,1.23a20.41,20.41,0,0,0-5.56.51c-4.1.85-6.06,5.77-3.56,9,2,2.52,6.57,2.89,9.14.74.43-.35.71-.95,1.39-1,.27,2.08.27,2.08,2.39,2.07.31,0,.61,0,.91,0,.7,0,1-.27,1-1-.17-4.18-.25-8.37-.53-12.54a4.8,4.8,0,0,0-2.72-4.09c-3.44-1.75-6.83-1-10.22.17-.42.14-.47.47-.47.84Zm-55.52,6.5h-.19c0-2,.13-4,0-6-.19-2.38-1.15-4.43-3.53-5.36-3.07-1.2-6.13-.74-9.13.37-.94.35-1.54,2.57-.84,3.63s1.22-.17,1.83-.35.93-.4,1.42-.5c3.42-.64,5.22-.25,6,2.11.29.9.2,1.45-1,1.38a20.31,20.31,0,0,0-5.7.52,5.87,5.87,0,0,0-4.58,4.64,5.3,5.3,0,0,0,2.4,5.47,6.75,6.75,0,0,0,8-.67c.83-.79,1.18-.82,1.32.41a1,1,0,0,0,1.27.95,6.87,6.87,0,0,1,1.36,0c1.11.15,1.52-.23,1.44-1.42C313.32,134.35,313.41,132.63,313.41,130.91Zm100.06-.29h-.26c0-2,.09-3.94,0-5.9a5.53,5.53,0,0,0-4.37-5.45,11.44,11.44,0,0,0-6.25,0c-3.1.77-3.11.7-2.89,3.68.08,1,.35,1.14,1.16.63a8.24,8.24,0,0,1,5.5-1.16A2.94,2.94,0,0,1,409,125c.21.83,0,1.24-1,1.18a18.62,18.62,0,0,0-5.71.52,5.59,5.59,0,0,0-4.5,4.34,5,5,0,0,0,1.68,5.29,6.68,6.68,0,0,0,8.57-.14c.69-.59,1.26-1.11,1.37.35.06.78.5,1,1.22,1a10.35,10.35,0,0,1,1.67,0c.93.06,1.21-.32,1.18-1.26C413.42,134.35,413.47,132.48,413.47,130.62Zm-26.54-4.39h0c0,2.77,0,5.54,0,8.32,0,3.48-.2,2.81,2.88,2.95,1.33.06,1.74-.33,1.71-1.68-.09-3.88,0-7.76-.05-11.64,0-.92.25-1.31,1.19-1.19.4.05.81,0,1.21,0,1.29.17,1.6-.41,1.66-1.64.06-1.5-.35-2.2-1.93-1.92-.35.06-.71,0-1.06,0-.76.1-1.15-.13-1.06-1,.05-.5,0-1,0-1.51.14-1.94,1.15-2.73,3-2.19.92.27,1.08-.06,1.1-.81s.08-1.2.12-1.81-.17-1-.79-1.09c-4-.61-7.73.18-8,5.78C386.82,120,386.93,123.1,386.93,126.23Zm36.67-2.13c0,3.94,0,7.88,0,11.81,0,.66,0,1.25.86,1.35s1.28,0,1.4-.94c.17-1.31.77-.73,1.23-.2,2.08,2.38,7.6,1.86,9.48-1.1,2.25-3.54,2.1-7.28,1.21-11.09a6.45,6.45,0,0,0-10.87-3.05c-.21.21-.38.53-.74.34s-.3-.6-.31-.94c0-2.62,0-5.24,0-7.87,0-.87-.15-1.47-1.24-1.43s-1,.75-1,1.47ZM412,87.12V83.64c0-3.88,0-3.85-3.84-3.73-1,0-1.29.31-1.27,1.32.07,3.69,0,7.37,0,11.06a3.4,3.4,0,0,1-2.4,3.59c-2.69,1-5.44.79-8.21.58-.71,0-1.76-.32-1.55.94.16,1-.94,2.49,1.16,2.83a26,26,0,0,0,9.63-.23c4.25-.9,6.44-3.66,6.44-8Zm80-6h0c0-3.79,0-7.58,0-11.36,0-.92-.22-1.28-1.18-1.19a13.86,13.86,0,0,1-2.88,0c-1.3-.17-1.48.41-1.47,1.54,0,6.36,0,12.72,0,19.09,0,1.38-.67,3.28.31,4s2.71.15,4.11.25c.92.06,1.09-.32,1.08-1.14C492,88.55,492,84.82,492,81.08ZM255.11,124.45h0c0,2.77-.06,5.55,0,8.32a4.85,4.85,0,0,0,3.19,4.69,10.15,10.15,0,0,0,5.08.14c.58-.09.71-.5.69-1s-.08-1,0-1.51c.06-.95-.33-1.22-1.26-1.14-2.41.21-3-.37-3.09-2.84-.05-1.82,0-3.63,0-5.45,0-2.84,0-2.84,2.88-3,.49,0,1,.09,1.17-.63.52-2-.05-2.81-2.12-2.83a3.53,3.53,0,0,0-.46,0c-1.14.17-1.49-.35-1.47-1.46.1-3.65.18-3-2.92-3h-.3c-1.08-.19-1.4.3-1.38,1.34C255.14,118.9,255.11,121.68,255.11,124.45Zm12-.23h0c0,2.68-.08,5.36,0,8,.14,3.95,2.53,5.95,6.44,5.54,2.73-.29,2.72-.31,2.4-3-.09-.74-.33-.89-1.05-.84-2.54.2-3.21-.43-3.26-3,0-2,0-3.94,0-5.91,0-2.27,0-2.36,2.32-2.24,1.44.07,1.91-.35,1.87-1.83,0-1.26-.26-1.93-1.67-1.68-.34.06-.71,0-1.06,0-1.14.14-1.49-.36-1.49-1.47,0-3,0-3-3-3-1.27,0-1.55.47-1.52,1.6C267.11,119,267.07,121.6,267.07,124.22Zm27.29,4.49v-8.23c0-.59,0-1.25-.81-1.14-1.27.17-2.68-.6-3.82.46-.15.14,0,.58,0,.89,0,1.66,0,3.33,0,5,0,3.43.05,6.86,0,10.29-.05,2-.39,3.9-3,4.17-.66.06-.79.59-.73,1.12.12,1-.38,2.1.3,3.05.08.1.38.08.58.07,3.89-.19,6.68-1.93,7.25-6.36C294.5,134.74,294.22,131.47,294.36,128.71Zm160.46,1.59h-.08c0-1.86.06-3.73,0-5.59s-.54-3.64-2.15-4.78c-2.07-1.46-6.41-1.38-8.55,0a1.35,1.35,0,0,0-.43,1.85c.28.72.86.05,1.3,0a5.37,5.37,0,0,0,.83-.34c3.53-1.21,6.1,0,6.71,3,.25,1.23,0,1.79-1.45,1.85a15.91,15.91,0,0,0-6.21,1.07,5.43,5.43,0,0,0-3.4,5.25,4.65,4.65,0,0,0,3,4.67,6.73,6.73,0,0,0,7.1-1.09c.38-.31.88-1.06,1.09.1.15.84.53,1.32,1.42,1.16s.85-.95.85-1.66C454.81,133.94,454.82,132.12,454.82,130.3Zm-132.7-8.18c-.12-.22-.23-.34-.24-.46-.19-2.33-.19-2.33-2.47-2.33-.1,0-.2,0-.3,0-1-.14-1.41.25-1.4,1.34.06,4.54,0,9.08,0,13.62,0,3.68-.38,3.07,3.28,3.18,1.18,0,1.45-.41,1.43-1.5a66.86,66.86,0,0,1,.1-8c.35-3.23,1.36-4.7,3.76-4.44,1.76.18,2.16-.31,1.93-1.85a4.82,4.82,0,0,1,0-.76c0-2.16-.76-2.6-2.81-1.81C323.93,119.68,323.12,120.93,322.12,122.12Zm8.74,6.27v5.76c0,3.51,0,3.46,3.56,3.49,1.07,0,1.36-.32,1.35-1.37,0-4.39,0-8.78,0-13.17,0-3.81,0-3.77-3.81-3.72-.9,0-1.11.32-1.09,1.14C330.88,123.14,330.86,125.77,330.86,128.39Zm-46,.26V122.9c0-3.52,0-3.48-3.55-3.52-1.05,0-1.36.27-1.35,1.34.06,4.44,0,8.88,0,13.32,0,3.64,0,3.6,3.61,3.6,1,0,1.31-.27,1.29-1.27C284.82,133.8,284.86,131.22,284.86,128.65Zm206.39-9c-1.57-.4-2.68-.37-3.73.67-1.6,1.6-3.31,3.09-5,4.6-.35.32-.62,1-1.18.75s-.28-.9-.28-1.37q0-6,0-12c0-.9-.26-1.39-1.29-1.42s-1.14.51-1.14,1.32c0,7.82,0,15.64,0,23.46,0,.75-.23,1.73,1.08,1.73s1.34-.92,1.34-1.87c0-1.62,0-3.23,0-4.84,0-.52-.31-1.26.32-1.49s.79.49,1.13.84c2,2.11,4,4.22,6,6.36a2.52,2.52,0,0,0,2.23,1c.39-.05.9.1,1.09-.33s-.26-.79-.56-1.12c-2.31-2.44-4.58-4.93-6.95-7.32-1.05-1-1-1.7.11-2.68C486.74,124,488.88,121.88,491.25,119.64Zm-29.36,2.11c-.05-.63-.1-.92-.09-1.21.05-.77-.1-1.28-1.05-1.23s-1.18.48-1.17,1.34c.05,5,.06,10.1.09,15.14,0,.76-.05,1.58,1.08,1.63s1.26-.75,1.26-1.62c0-2.37-.07-4.74.06-7.11.1-1.74,0-3.54.84-5.18a4.57,4.57,0,0,1,4.9-2.45c1.57.19,2.66,1.4,3.05,3.46a10.65,10.65,0,0,1,.19,2c0,3.18,0,6.36,0,9.54,0,.77.07,1.42,1.08,1.45a1.13,1.13,0,0,0,1.29-1.31c-.06-4.09.29-8.18-.22-12.25a5.14,5.14,0,0,0-3.72-4.66C466.52,118.31,464.1,119.16,461.89,121.75Zm-1.87-49c-2.59,0-2.59,0-2.59,3.2,0,1.68,0,1.68,3.35,1.68,1.53,0,1.43,0,1.57-3.48C462.45,71.82,460.75,73.16,460,72.78Zm9.56,2.65c0-2.64,0-2.64-2.68-2.65a9.61,9.61,0,0,1-1.2,0c-.83-.09-1.07.32-1,1.06,0,.35,0,.7,0,1,0,2.79,0,2.79,2.69,2.78C469.58,77.66,469.58,77.66,469.58,75.43ZM450,100.67c2.63,0,2.63,0,2.63-2.7,0-2.18,0-2.18-2.11-2.18-2.76,0-2.76,0-2.77,2.71,0,2.17,0,2.17,2.1,2.17ZM329.69,69.77c0-2.72.32-2.42-1.71-2.43-3.17,0-3.4,0-3.09,1.69.19,1.06-1.49,3.17,1.32,3.18C329.68,72.22,329.68,72.22,329.69,69.77Zm58.12,26c-.87.46-2.57-.88-2.47,1.48.14,3.47,0,3.47,3.54,3.47,1.38,0,1.29,0,1.41-3.51C390.37,94.78,388.63,96.21,387.81,95.72Zm-7.7.07c-2.6,0-2.6,0-2.6,2.62,0,2.26,0,2.26,2.32,2.26,2.55,0,2.55,0,2.56-2.54C382.39,95.78,382.39,95.78,380.11,95.79Zm-44.36,19.4c0-2.45,0-2.45-2.45-2.44s-2.43,0-2.43,2.44,0,2.44,2.42,2.44S335.75,117.63,335.75,115.19Zm-50.88.1c0-2.54,0-2.54-2.5-2.54s-2.38,0-2.38,2.34c0,2.54,0,2.54,2.47,2.54S284.87,117.63,284.87,115.29Zm7.4-2.54c-2.59,0-2.59,0-2.59,1.66,0,3.22,0,3.27,3.46,3.2,3,0,1.06-2.3,1.34-3.46C295,111.9,293,113.09,292.27,112.75Zm-48.6,19c-.16-.82.64-2.46-1.37-2-1.05.23-3.21-1.21-2.84,1.49.13,1-1.22,2.82,1.33,2.76C243.67,133.93,243.67,134,243.67,131.75Zm29-53c0-1.66,0-1.59-1.33-1.68s-1.76.35-1.73,1.69.52,1.37,1.55,1.39S273,79.84,272.7,78.72Zm13.62,16.53c-1.33-.43-1.49.33-1.52,1.5s.35,1.55,1.54,1.55,1.61-.43,1.62-1.65S287.62,94.93,286.32,95.25Z" transform="translate(0 0)"/><path class="cls-2" d="M48.74,124.92a11.5,11.5,0,0,1-.18-3.46q0-38.31,0-76.63c0-2.33,0-2.34,2.4-2.34q76,0,151.92,0c1.45,0,1.8.53,1.8,1.86,0,13.93,0,27.86,0,41.79a3.14,3.14,0,0,1-.25,1.63c-2.08.38-4.17.05-6.25.17-1.76,0-3.53,0-5.3,0a11.05,11.05,0,0,0-8.52,3.85q-7.92,9.24-15.86,18.45c-1.26,1.47-1.28,1.49-2.52.06C159.5,102.88,153.07,95.45,146.7,88c-3.47-4.08-8.53-4.27-12-.26-4,4.6-7.93,9.26-11.9,13.89-2.62,3.06-5.26,6.09-7.86,9.17-.65.77-1.11.88-1.73,0-.41-.57-.93-1.06-1.39-1.6C105.74,102.11,99.7,95,93.58,88c-3.76-4.32-8.44-4.28-12.18,0-5.09,5.85-10.13,11.75-15.19,17.63L49,125.52Z" transform="translate(0 0)"/><path class="cls-3" d="M449.91,93.15H421.58c-3.65,0-4.67-1-4.66-4.64,0-6.11,0-12.22,0-18.33,0-1.18.2-1.69,1.55-1.66,3.64.08,3.65,0,3.65,3.63,0,5.15,0,10.3,0,15.45,0,1.34.3,1.86,1.77,1.84q10.91-.1,21.81,0c1.38,0,1.7-.46,1.67-1.75-.08-3.25-1.95-4.62-4.4-5.14a23.19,23.19,0,0,0-9.16.26,46.66,46.66,0,0,0-5.71,1.41c-.81.27-1.25,0-1.15-1,.07-.64,0-1.31,0-2a1.13,1.13,0,0,1,.95-1.18c4.21-1,8.43-2,12.8-1.86,3.37.14,6.59.78,9.13,3.32a10,10,0,0,1,2.62,6.57c.09,1,.45,1.29,1.4,1.26q3-.08,5.91,0c1,0,1.33-.28,1.3-1.29-.06-2.27,0-4.54,0-6.81,0-.94.18-1.34,1.24-1.34,3.82,0,3.81-.07,3.81,3.75,0,1.47,0,2.93,0,4.4,0,1,.37,1.3,1.33,1.28,3,0,6,0,8.94,0,1.16,0,1.44-.43,1.44-1.52-.05-5.91,0-11.82-.06-17.72,0-1.38.42-1.7,1.73-1.66,3.46.09,3.46,0,3.46,3.47q0,8.48,0,17c0,3.05-1.1,4.19-4.18,4.2-9.6,0-19.19,0-28.78,0Z" transform="translate(0 0)"/><path class="cls-3" d="M316.86,93.15H303.24c-2.9,0-4.1-1.14-4.1-4,0-6.41,0-12.82,0-19.23,0-1.16.38-1.43,1.49-1.41,3.58,0,3.58,0,3.58,3.5,0,5.25.06,10.5,0,15.74,0,1.37.4,1.66,1.72,1.64,7.41-.07,14.83,0,22.25,0,.82,0,1.6.2,1.6-1.12s-.48-1.4-1.54-1.36c-2.52.08-5-.05-7.57.06-1.35.06-1.94-.22-2.08-1.72a12.91,12.91,0,0,1,.52-5.64c1.21-3.29,3.88-4.66,7.14-4.93,2.35-.2,4.74,0,7.11-.09.95,0,1.17.37,1.16,1.26,0,4.44,0,8.88,0,13.32,0,2.75-1.23,4-4,4C326,93.17,321.41,93.15,316.86,93.15Zm9.28-9.63c3.66,0,3.63,0,3.59-3.71,0-1-.3-1.53-1.38-1.43-.6.06-1.22,0-1.81.09-2.6.45-3.79,1.53-4.06,3.58-.12,1,0,1.59,1.24,1.49C324.52,83.47,325.34,83.52,326.14,83.52Z" transform="translate(0 0)"/><path class="cls-4" d="M262.65,72l-14.51,5.56c-1.5.57-3,1.16-4.48,1.75-.27.1-.67.13-.65.51s.5.43.82.42a25.82,25.82,0,0,1,7.48,1c3.51,1,6.75,2.44,8.35,6.09a5.86,5.86,0,0,1,.36,1c.69,3,.31,2.51,3.18,2.56,1.71,0,3.43,0,5.15,0,1.09.05,1.42-.42,1.4-1.42,0-1.76,0-3.53,0-5.29,0-.8-.49-1.86,1.13-1.89s1.21,1.09,1.23,1.93c0,1.77,0,3.53,0,5.3,0,1,.39,1.4,1.44,1.39,3.48-.06,7-.07,10.45,0,1.07,0,1.45-.37,1.43-1.39,0-2,0-3.94,0-5.91,0-1,.33-1.31,1.31-1.31s1.15.44,1.13,1.29c0,2.37,0,4.74,0,7.12s-.23,2.54-2.51,2.54c-7.88,0-15.75,0-23.62,0h-31c-.74,0-1.54.18-1.63-1s.61-1.34,1.59-1.33c8.12,0,16.25,0,24.38,0,.93,0,2.33.58,2.72-.56s-.3-2.56-1.21-3.55a10.22,10.22,0,0,0-5.15-3c-6.85-1.76-13.68-1.19-20.5.21-.57.12-1.44.87-1.73-.3-.21-.87,0-1.5,1.12-1.9,8.7-3.16,17.36-6.4,26-9.65C258.35,71.32,260.45,71.75,262.65,72Z" transform="translate(0 0)"/><path class="cls-3" d="M359.08,131.88c.69-2.54,1.38-5,2.07-7.54.19-.67.43-1.34.58-2,.67-3,.66-3,3.72-3,1.1,0,1.47.26,1.12,1.38-.88,2.82-1.69,5.67-2.55,8.51-.71,2.36-1.44,4.71-2.17,7.06-.1.32-.17.82-.4.92-1.14.52-2.38.08-3.57.25-1.49.21-1.94-.48-2.28-1.87-.93-3.79-2.08-7.52-3.19-11.42-1,1.28-1,2.73-1.4,4-.79,2.54-1.36,5.15-2,7.72a1.82,1.82,0,0,1-2.1,1.6c-3.44-.1-3.48,0-4.65-3.42-1.55-4.51-3-9-4.56-13.55-.28-.82-.16-1.18.83-1.21,3.63-.12,3.63-.15,4.62,3.26q1.18,4,2.38,8.08c.11.37.16.86.68.84s.4-.5.48-.82c.83-3.21,1.7-6.41,2.49-9.63.3-1.23.81-1.93,2.24-1.73,1.14.16,2.5-.29,3.41.19s.85,2,1.18,3.13q1.13,3.82,2.2,7.67C358.33,130.86,358.37,131.49,359.08,131.88Z" transform="translate(0 0)"/><path class="cls-3" d="M379.74,93.41c-2.47,0-4.95.06-7.42,0A17.91,17.91,0,0,1,363.41,91c-3.56-2.15-4.85-5.53-4.53-9.38.17-2,2.22-.56,3.36-.91.65-.21,1.32-.2,1.4.94.39,5.65,3.66,7.77,8.7,8,3.72.17,7.46,0,11.19-.16,1.08-.06,1.35-.44,1.36-1.45.1-5.07,2.59-7.68,7.64-8a58.93,58.93,0,0,1,6.51-.1c1,0,1.43.27,1.41,1.4-.08,3.48-.06,7,0,10.44,0,1-.33,1.48-1.39,1.45-4.48-.14-3.74.68-3.8-3.7,0-1.57-.06-3.13,0-4.69.05-.91-.3-1.13-1.13-1.12a3.57,3.57,0,0,0-3.85,3.43,30.48,30.48,0,0,0-.11,4.38c0,1.07-.33,1.4-1.35,1.45C385.79,93.12,382.77,93.38,379.74,93.41Z" transform="translate(0 0)"/><path class="cls-3" d="M241.58,121.11l-6.44,15.44c-.2.48-.46,1-1,1-1.46.05-2.93.06-4.39,0-.81,0-.67-.63-.47-1.1q4-9.43,8.09-18.87c.71-1.64,1.38-3.29,2.07-4.94a5.94,5.94,0,0,1,.33-.67c.44-.74.91-1.58,1.86-1.56s1.58.92,2,1.72c1.1,2.39,2.09,4.83,3.11,7.26,2.33,5.53,4.65,11.07,7,16.59.57,1.34.46,1.58-1,1.58h-1.51c-3.32,0-2.45.41-3.81-2.67C245.38,130.46,243.59,126,241.58,121.11Z" transform="translate(0 0)"/><path class="cls-3" d="M354,87.74c0,1.62-.06,3.23,0,4.85.18,4.42-2.62,6.42-5.66,7.36-3.54,1.09-7.16.87-10.79.38-2-.27-1.16-1.64-1.24-2.61-.1-1.3,1-.71,1.53-.7,2.91,0,5.84.42,8.69-.52a4.25,4.25,0,0,0,2.66-2c.48-.94.36-1.4-.81-1.39-2.83,0-5.65,0-8.48,0-1.16,0-1.65-.4-1.72-1.54a14.39,14.39,0,0,1,.52-5.83c1.23-3.4,4-4.65,7.26-5,2.3-.22,4.64,0,7-.09.9,0,1.1.38,1.08,1.18C354,83.81,354,85.78,354,87.74Zm-8.34,1.88c.81,0,1.62,0,2.42,0,1,.06,1.44-.29,1.33-1.3a9.77,9.77,0,0,1,0-1.21c0-2.59-.28-2.84-2.86-2.55-2.76.32-3.88,1.17-4.26,3.25-.3,1.61-.12,1.81,1.55,1.81Z" transform="translate(0 0)"/><path class="cls-3" d="M368.93,124.41v-3.55c0-.37.05-.7.47-.84,3.39-1.18,6.78-1.92,10.22-.17a4.8,4.8,0,0,1,2.72,4.09c.28,4.17.36,8.36.53,12.54,0,.71-.3,1-1,1-.3,0-.6,0-.91,0-2.12,0-2.12,0-2.39-2.07-.68,0-1,.61-1.39,1-2.57,2.15-7.16,1.78-9.14-.74-2.5-3.18-.54-8.1,3.56-9a20.41,20.41,0,0,1,5.56-.51c.9,0,1.3-.21,1.06-1.23a2.93,2.93,0,0,0-2.63-2.48A9.2,9.2,0,0,0,368.93,124.41Zm5.12,10a4.47,4.47,0,0,0,4.33-4.6c0-.41-.19-.69-.63-.68-1.54.05-3.08-.18-4.58.53a2.53,2.53,0,0,0-1.68,3C371.75,134.07,373.05,134.11,374.05,134.38Z" transform="translate(0 0)"/><path class="cls-3" d="M313.41,130.91c0,1.72-.09,3.44,0,5.14.08,1.19-.33,1.57-1.44,1.42a6.87,6.87,0,0,0-1.36,0,1,1,0,0,1-1.27-.95c-.14-1.23-.49-1.2-1.32-.41a6.75,6.75,0,0,1-8,.67,5.3,5.3,0,0,1-2.4-5.47,5.87,5.87,0,0,1,4.58-4.64,20.31,20.31,0,0,1,5.7-.52c1.18.07,1.27-.48,1-1.38-.76-2.36-2.56-2.75-6-2.11-.49.1-.94.36-1.42.5s-1.18,1.34-1.83.35-.1-3.28.84-3.63c3-1.11,6.06-1.57,9.13-.37,2.38.93,3.34,3,3.53,5.36.16,2,0,4,0,6ZM307,129.09a6.83,6.83,0,0,0-3.5.66,2.69,2.69,0,0,0-1.44,2.46,2.14,2.14,0,0,0,1.78,2c2.49.72,4.87-1.08,5.22-4,.1-.83-.08-1.26-1-1.13A7.36,7.36,0,0,1,307,129.09Z" transform="translate(0 0)"/><path class="cls-3" d="M413.47,130.62c0,1.86-.05,3.73,0,5.59,0,.94-.25,1.32-1.18,1.26a10.35,10.35,0,0,0-1.67,0c-.72.05-1.16-.18-1.22-1-.11-1.46-.68-.94-1.37-.35a6.68,6.68,0,0,1-8.57.14,5,5,0,0,1-1.68-5.29,5.59,5.59,0,0,1,4.5-4.34,18.62,18.62,0,0,1,5.71-.52c.92.06,1.17-.35,1-1.18a2.94,2.94,0,0,0-2.65-2.51,8.24,8.24,0,0,0-5.5,1.16c-.81.51-1.08.35-1.16-.63-.22-3-.21-2.91,2.89-3.68a11.44,11.44,0,0,1,6.25,0,5.53,5.53,0,0,1,4.37,5.45c.12,2,0,3.93,0,5.9ZM409,130c0-.41.07-.88-.51-.89-1.81,0-3.66-.2-5.28.8a2.49,2.49,0,0,0-1.11,2.49,2,2,0,0,0,1.62,1.74A4.13,4.13,0,0,0,409,130Z" transform="translate(0 0)"/><path class="cls-5" d="M48.74,124.92c.09.2.18.4.28.6.08.74.65.63,1.14.64,1.92,0,3.84.07,5.76,0,2.7-.09,5.42.31,8.11-.55,1.42-.45,2.53-1.43,3.9-1.91,0,.9-.75,1.14-1.34,1.46A15.39,15.39,0,0,1,59.07,127c-2.73,0-5.46.07-8.18,0-1.4,0-1.83.41-1.82,1.81,0,12.72,0,25.44,0,38.16a5.35,5.35,0,0,0,0,1.06c.19.91.48,1.59,1.72,1.28a12.44,12.44,0,0,1,2.87-.12H199.86c4.38,0,4.38,0,4.38-4.47q0-31.71,0-63.44c0-1.16-.52-2.28-.27-3.44.52-2.35.12-4.73.27-7.09.07-1-.45-.91-1.1-.72a1.39,1.39,0,0,1,.14-.42c.3-.39.82-.8.54-1.28s-.92-.2-1.4-.22c-1.44-.06-2.88-.09-4.32-.14,2.08-.12,4.17.21,6.25-.17.53.59.36,1.33.36,2q0,39.13,0,78.29c0,1.19-.22,1.68-1.57,1.68q-76.49,0-153,0c-1.39,0-1.67-.43-1.66-1.72,0-13.88,0-27.76,0-41.64A2.55,2.55,0,0,1,48.74,124.92Z" transform="translate(0 0)"/><path class="cls-3" d="M386.93,126.23c0-3.13-.11-6.26,0-9.37.25-5.6,3.95-6.39,8-5.78.62.09.82.52.79,1.09s-.1,1.21-.12,1.81-.18,1.08-1.1.81c-1.86-.54-2.87.25-3,2.19,0,.5,0,1,0,1.51-.09.84.3,1.07,1.06,1,.35,0,.71.05,1.06,0,1.58-.28,2,.42,1.93,1.92-.06,1.23-.37,1.81-1.66,1.64-.4-.05-.81,0-1.21,0-.94-.12-1.2.27-1.19,1.19,0,3.88,0,7.76.05,11.64,0,1.35-.38,1.74-1.71,1.68-3.08-.14-2.88.53-2.88-2.95,0-2.78,0-5.55,0-8.32Z" transform="translate(0 0)"/><path class="cls-4" d="M423.6,124.1V112.45c0-.72-.08-1.44,1-1.47s1.24.56,1.24,1.43c0,2.63,0,5.25,0,7.87,0,.34-.08.74.31.94s.53-.13.74-.34a6.45,6.45,0,0,1,10.87,3.05c.89,3.81,1,7.55-1.21,11.09-1.88,3-7.4,3.48-9.48,1.1-.46-.53-1.06-1.11-1.23.2-.12.9-.68,1-1.4.94s-.87-.69-.86-1.35C423.61,132,423.6,128,423.6,124.1Zm2.19,4.07a10.16,10.16,0,0,0,.69,4.23c1,2.46,2.73,3.6,5.22,3.38,1.92-.17,3.55-2,4.07-4.3a16.12,16.12,0,0,0-.17-6.88,4.92,4.92,0,0,0-4.22-3.77,4.72,4.72,0,0,0-4.63,2.75A9.34,9.34,0,0,0,425.79,128.17Z" transform="translate(0 0)"/><path class="cls-3" d="M412,87.12V92c0,4.37-2.19,7.13-6.44,8a26,26,0,0,1-9.63.23c-2.1-.34-1-1.85-1.16-2.83-.21-1.26.84-1,1.55-.94,2.77.21,5.52.4,8.21-.58a3.4,3.4,0,0,0,2.4-3.59c0-3.69,0-7.37,0-11.06,0-1,.29-1.29,1.27-1.32,3.84-.12,3.84-.15,3.84,3.73Z" transform="translate(0 0)"/><path class="cls-3" d="M492,81.08c0,3.74,0,7.47,0,11.21,0,.82-.16,1.2-1.08,1.14-1.4-.1-3.21.44-4.11-.25s-.3-2.64-.31-4c0-6.37,0-12.73,0-19.09,0-1.13.17-1.71,1.47-1.54a13.86,13.86,0,0,0,2.88,0c1-.09,1.19.27,1.18,1.19,0,3.78,0,7.57,0,11.36Z" transform="translate(0 0)"/><path class="cls-3" d="M255.11,124.45c0-2.77,0-5.55,0-8.32,0-1,.3-1.53,1.38-1.34h.3c3.1.06,3-.64,2.92,3,0,1.11.33,1.63,1.47,1.46a3.53,3.53,0,0,1,.46,0c2.07,0,2.64.8,2.12,2.83-.18.72-.68.61-1.17.63-2.89.11-2.89.11-2.88,3,0,1.82,0,3.63,0,5.45.07,2.47.68,3,3.09,2.84.93-.08,1.32.19,1.26,1.14,0,.5,0,1,0,1.51s-.11.9-.69,1a10.15,10.15,0,0,1-5.08-.14,4.85,4.85,0,0,1-3.19-4.69c-.08-2.77,0-5.55,0-8.32Z" transform="translate(0 0)"/><path class="cls-3" d="M267.07,124.22c0-2.62,0-5.25,0-7.87,0-1.13.25-1.63,1.52-1.6,3,.06,3,0,3,3,0,1.11.35,1.61,1.49,1.47.35,0,.72,0,1.06,0,1.41-.25,1.63.42,1.67,1.68,0,1.48-.43,1.9-1.87,1.83-2.32-.12-2.32,0-2.32,2.24,0,2,0,3.94,0,5.91.05,2.6.72,3.23,3.26,3,.72,0,1,.1,1.05.84.32,2.69.33,2.71-2.4,3-3.91.41-6.3-1.59-6.44-5.54-.1-2.67,0-5.35,0-8Z" transform="translate(0 0)"/><path class="cls-3" d="M294.36,128.71c-.14,2.76.14,6-.29,9.31-.57,4.43-3.36,6.17-7.25,6.36-.2,0-.5,0-.58-.07-.68-.95-.18-2-.3-3.05-.06-.53.07-1.06.73-1.12,2.58-.27,2.92-2.19,3-4.17.09-3.43,0-6.86,0-10.29,0-1.66,0-3.33,0-5,0-.31-.11-.75,0-.89,1.14-1.06,2.55-.29,3.82-.46.8-.11.81.55.81,1.14Z" transform="translate(0 0)"/><path class="cls-5" d="M454.82,130.3c0,1.82,0,3.64,0,5.45,0,.71.12,1.49-.85,1.66s-1.27-.32-1.42-1.16c-.21-1.16-.71-.41-1.09-.1a6.73,6.73,0,0,1-7.1,1.09,4.65,4.65,0,0,1-3-4.67,5.43,5.43,0,0,1,3.4-5.25,15.91,15.91,0,0,1,6.21-1.07c1.46-.06,1.7-.62,1.45-1.85-.61-3.07-3.18-4.23-6.71-3a5.37,5.37,0,0,1-.83.34c-.44.07-1,.74-1.3,0a1.35,1.35,0,0,1,.43-1.85c2.14-1.34,6.48-1.42,8.55,0,1.61,1.14,2.07,2.92,2.15,4.78s0,3.73,0,5.59Zm-2.34-.35c-.12-.54.39-1.65-.68-1.6-2.18.09-4.45-.12-6.41,1.24a3.54,3.54,0,0,0-1.48,3.79,3.12,3.12,0,0,0,3.12,2.36C450.47,135.91,452.39,133.89,452.48,130Z" transform="translate(0 0)"/><path class="cls-3" d="M322.12,122.12c1-1.19,1.81-2.44,3.29-3,2-.79,2.81-.35,2.81,1.81a4.82,4.82,0,0,0,0,.76c.23,1.54-.17,2-1.93,1.85-2.4-.26-3.41,1.21-3.76,4.44a66.86,66.86,0,0,0-.1,8c0,1.09-.25,1.53-1.43,1.5-3.66-.11-3.27.5-3.28-3.18,0-4.54,0-9.08,0-13.62,0-1.09.36-1.48,1.4-1.34.1,0,.2,0,.3,0,2.28,0,2.28,0,2.47,2.33C321.89,121.78,322,121.9,322.12,122.12Z" transform="translate(0 0)"/><path class="cls-3" d="M330.86,128.39c0-2.62,0-5.25,0-7.87,0-.82.19-1.12,1.09-1.14,3.81,0,3.81-.09,3.81,3.72,0,4.39,0,8.78,0,13.17,0,1-.28,1.37-1.35,1.37-3.56,0-3.56,0-3.56-3.49v-5.76Z" transform="translate(0 0)"/><path class="cls-3" d="M284.86,128.65c0,2.57,0,5.15,0,7.72,0,1-.29,1.27-1.29,1.27-3.62,0-3.61,0-3.61-3.6,0-4.44,0-8.88,0-13.32,0-1.07.3-1.35,1.35-1.34,3.55,0,3.55,0,3.55,3.52Z" transform="translate(0 0)"/><path class="cls-5" d="M491.25,119.64c-2.37,2.24-4.51,4.37-6.78,6.34-1.12,1-1.16,1.63-.11,2.68,2.37,2.39,4.64,4.88,6.95,7.32.3.33.78.62.56,1.12s-.7.28-1.09.33a2.52,2.52,0,0,1-2.23-1c-2-2.14-4-4.25-6-6.36-.34-.35-.63-1-1.13-.84s-.31,1-.32,1.49c-.05,1.61,0,3.22,0,4.84,0,.95,0,1.88-1.34,1.87s-1.08-1-1.08-1.73c0-7.82,0-15.64,0-23.46,0-.81.12-1.34,1.14-1.32s1.29.52,1.29,1.42q0,6,0,12c0,.47-.24,1.13.28,1.37s.83-.43,1.18-.75c1.69-1.51,3.4-3,5-4.6C488.57,119.27,489.68,119.24,491.25,119.64Zm-.43,16.88c-1.89-2.47-4.3-4.41-6.29-6.72-2.23-2.59-2.46-2.52-.1-4.62,1.52-1.36,3-2.77,4.49-4.18.23-.21.68-.47.33-.85s-.64,0-.92.21a2.9,2.9,0,0,0-.49.35c-1.73,1.66-3.44,3.33-5.16,5-.51.49-1.05,1.12-1.8.86s-.49-1.12-.5-1.74c0-4.08,0-8.17,0-12.25,0-.39.11-.92-.45-1s-.74.42-.76.92,0,.7,0,1.06q0,8.85,0,17.7c0,1.47,0,2.93,0,4.39,0,.42.08.87.61.87s.6-.46.6-.88c0-2,0-4,0-6,0-.53-.4-1.21.21-1.49s1.12.29,1.61.75c2.38,2.18,4.39,4.7,6.64,7C489.33,136.42,489.85,136.94,490.82,136.52Z" transform="translate(0 0)"/><path class="cls-5" d="M461.89,121.75c2.21-2.59,4.63-3.44,7.62-2.51a5.14,5.14,0,0,1,3.72,4.66c.51,4.07.16,8.16.22,12.25a1.13,1.13,0,0,1-1.29,1.31c-1,0-1.08-.68-1.08-1.45,0-3.18,0-6.36,0-9.54a10.65,10.65,0,0,0-.19-2c-.39-2.06-1.48-3.27-3.05-3.46a4.57,4.57,0,0,0-4.9,2.45c-.85,1.64-.74,3.44-.84,5.18-.13,2.37-.05,4.74-.06,7.11,0,.87-.07,1.66-1.26,1.62s-1.07-.87-1.08-1.63c0-5,0-10.09-.09-15.14,0-.86.25-1.3,1.17-1.34s1.1.46,1.05,1.23C461.79,120.83,461.84,121.12,461.89,121.75Zm1.19.09A.93.93,0,0,0,464,121c.83-.17,1.67-.33,2.5-.51a3.44,3.44,0,0,1,2.05.17,4.54,4.54,0,0,1,3,4.58c.07,3.37,0,6.74,0,10.12,0,.52-.29,1.38.71,1.32s.73-.82.73-1.4a76.9,76.9,0,0,0-.29-10.84c-.48-3.36-2-5.4-6.33-4.73-.92.15-2.13-.15-2.45,1.23-.67,0-.93.3-.89.94l-.13.13Zm-3,6.19h0c0,2.32,0,4.63,0,6.95,0,.63-.14,1.55.71,1.59s.7-.91.71-1.51c0-1.52,0-3,0-4.54.08-2-.31-3.93.42-5.84.35-.91.88-1.85-.37-2.59a1.08,1.08,0,0,1-.28-1.12c.11-.49.38-1.11-.39-1.18s-.84.68-.84,1.28Z" transform="translate(0 0)"/><path class="cls-3" d="M460,72.78c.73.38,2.43-1,2.33,1.4-.14,3.48,0,3.48-1.57,3.48-3.35,0-3.35,0-3.35-1.68C457.43,72.78,457.43,72.78,460,72.78Z" transform="translate(0 0)"/><path class="cls-3" d="M469.58,75.43c0,2.23,0,2.23-2.19,2.23-2.7,0-2.7,0-2.69-2.78,0-.35,0-.7,0-1-.06-.74.18-1.15,1-1.06a9.61,9.61,0,0,0,1.2,0C469.58,72.79,469.58,72.79,469.58,75.43Z" transform="translate(0 0)"/><path class="cls-3" d="M450,100.67h-.15c-2.1,0-2.1,0-2.1-2.17,0-2.71,0-2.71,2.77-2.71,2.12,0,2.12,0,2.11,2.18C452.63,100.67,452.63,100.67,450,100.67Z" transform="translate(0 0)"/><path class="cls-3" d="M329.69,69.77c0,2.45,0,2.45-3.48,2.44-2.81,0-1.13-2.12-1.32-3.18-.31-1.66-.08-1.71,3.09-1.69C330,67.35,329.67,67.05,329.69,69.77Z" transform="translate(0 0)"/><path class="cls-3" d="M387.81,95.72c.82.49,2.56-.94,2.48,1.44-.12,3.51,0,3.51-1.41,3.51-3.5,0-3.4,0-3.54-3.47C385.24,94.84,386.94,96.18,387.81,95.72Z" transform="translate(0 0)"/><path class="cls-3" d="M380.11,95.79c2.28,0,2.28,0,2.28,2.34,0,2.53,0,2.53-2.56,2.54-2.32,0-2.32,0-2.32-2.26C377.51,95.8,377.51,95.8,380.11,95.79Z" transform="translate(0 0)"/><path class="cls-3" d="M335.75,115.19c0,2.44,0,2.44-2.46,2.44s-2.42,0-2.42-2.44,0-2.44,2.43-2.44S335.74,112.74,335.75,115.19Z" transform="translate(0 0)"/><path class="cls-3" d="M284.87,115.29c0,2.34,0,2.34-2.41,2.34s-2.47,0-2.47-2.54c0-2.34,0-2.34,2.38-2.34S284.87,112.75,284.87,115.29Z" transform="translate(0 0)"/><path class="cls-3" d="M292.27,112.75c.75.34,2.76-.85,2.21,1.4-.28,1.16,1.65,3.41-1.34,3.46-3.47.07-3.47,0-3.46-3.2C289.68,112.74,289.68,112.74,292.27,112.75Z" transform="translate(0 0)"/><path class="cls-3" d="M243.67,131.75c0,2.23,0,2.18-2.88,2.24-2.55.06-1.2-1.8-1.33-2.76-.37-2.7,1.79-1.26,2.84-1.49C244.31,129.29,243.51,130.93,243.67,131.75Z" transform="translate(0 0)"/><path class="cls-4" d="M272.7,78.72c.25,1.12-.34,1.41-1.51,1.4s-1.53-.18-1.55-1.39.44-1.77,1.73-1.69S272.69,77.06,272.7,78.72Z" transform="translate(0 0)"/><path class="cls-5" d="M286.32,95.25c1.3-.32,1.64.19,1.64,1.4s-.35,1.66-1.62,1.65-1.57-.35-1.54-1.55S285,94.82,286.32,95.25Z" transform="translate(0 0)"/><path class="cls-3" d="M198.11,87.91c1.44,0,2.88.08,4.32.14.48,0,1.12-.25,1.4.22s-.24.89-.54,1.28a1.39,1.39,0,0,0-.14.42.13.13,0,0,0-.12.16c-.29,0-.42.23-.59.43l-11.9,13.83Q181.68,114.7,172.81,125a7.42,7.42,0,0,1-2.35,1.84c-2.81,1.39-5.43.79-8-.64a.22.22,0,0,0-.21-.14c-.26-.37-.48-.77-.77-1.11-3.18-3.71-6.32-7.44-9.57-11.09a90.73,90.73,0,0,0-6.44-7.15h0a40.5,40.5,0,0,0-4.29-5.22c-.61-.64-.94-.43-1.42.13-4,4.71-8,9.39-12.05,14.09Q123.33,120.86,119,126a.11.11,0,0,0-.13.09c-.41.19-.82.37-1.22.58a7.39,7.39,0,0,1-9.19-1.65c-2.51-2.82-4.92-5.72-7.39-8.57-2.14-2.47-4.14-5-6.47-7.35h0c-2-2.71-4.32-5.14-6.48-7.71-.41-.49-.75-.34-1.12,0a44,44,0,0,0-4.35,5.19.19.19,0,0,0-.17.19,7.52,7.52,0,0,0-.9.78q-4.69,5.48-9.37,11A56.87,56.87,0,0,0,68,123.68l0,0c-1.37.48-2.48,1.46-3.9,1.91-2.69.86-5.41.46-8.11.55-1.92.07-3.84,0-5.76,0-.49,0-1.06.1-1.14-.64l17.19-19.9C71.27,99.74,76.31,93.84,81.4,88c3.74-4.3,8.42-4.34,12.18,0,6.12,7,12.16,14.14,18.23,21.21.46.54,1,1,1.39,1.6.62.87,1.08.76,1.73,0,2.6-3.08,5.24-6.11,7.86-9.17,4-4.63,7.9-9.29,11.9-13.89,3.48-4,8.54-3.82,12,.26,6.37,7.48,12.8,14.91,19.21,22.35,1.24,1.43,1.26,1.41,2.52-.06q7.92-9.23,15.86-18.45A11.05,11.05,0,0,1,192.81,88C194.58,87.92,196.35,87.93,198.11,87.91ZM74.85,98.54c2.17.93,3.35-1,5-1.17,0,0,.06-.08.09-.12.87-1.36,2.48-1.48,3.77-2s2.4-1.2,3.6-1.78c1.36-.66,2.51-1.73,4.11-2,1.44-.21,1.69-.8,1-2-2.07-3.29-6.16-4.15-9.11-1S77.7,95.12,74.85,98.54Zm65.47-11.6c-2.14-.33-3.65.84-4.8,2.56A16.65,16.65,0,0,1,134,91.32c-1.73,1.94-3.43,3.91-5.13,5.89a1.08,1.08,0,0,0-.18,1.38.77.77,0,0,0,1.1,0c2.06-1.5,4.63-2,6.74-3.4.55-.37.8-1,1.48-1.23a40.59,40.59,0,0,0,5-2.09c.81-.43,1.05-1.43,1.95-1.52,1.13-.11.6-.7.33-1.1A5,5,0,0,0,140.32,86.94Zm55.27,2.76v0c-.75,0-1.51,0-2.26,0a9.15,9.15,0,0,0-6.83,2.58c-.23.22-1,.45-.32,1,2.12,1.88,4.95,2.52,7.22,4.16.29.21.46-.27.69-.44,2.31-1.66,3.63-4.26,5.78-6.08.26-.23.51-.51.28-.92s-.58-.34-.93-.34Z" transform="translate(0 0)"/><path class="cls-1" d="M326.14,83.52c-.8,0-1.62,0-2.42,0-1.19.1-1.36-.54-1.24-1.49.27-2,1.46-3.13,4.06-3.58.59-.1,1.21,0,1.81-.09,1.08-.1,1.36.41,1.38,1.43C329.77,83.53,329.8,83.52,326.14,83.52Z" transform="translate(0 0)"/><path class="cls-1" d="M345.68,89.62h-1.82c-1.67,0-1.85-.2-1.55-1.81.38-2.08,1.5-2.93,4.26-3.25,2.58-.29,2.86,0,2.86,2.55a9.77,9.77,0,0,0,0,1.21c.11,1-.37,1.36-1.33,1.3C347.3,89.59,346.49,89.62,345.68,89.62Z" transform="translate(0 0)"/><path class="cls-1" d="M374.05,134.38c-1-.27-2.3-.31-2.56-1.76a2.53,2.53,0,0,1,1.68-3c1.5-.71,3-.48,4.58-.53.44,0,.59.27.63.68A4.47,4.47,0,0,1,374.05,134.38Z" transform="translate(0 0)"/><path class="cls-1" d="M307,129.09a7.36,7.36,0,0,0,1,0c.93-.13,1.11.3,1,1.13-.35,2.89-2.73,4.69-5.22,4a2.14,2.14,0,0,1-1.78-2,2.69,2.69,0,0,1,1.44-2.46A6.83,6.83,0,0,1,307,129.09Z" transform="translate(0 0)"/><path class="cls-1" d="M409,130a4.13,4.13,0,0,1-5.28,4.14,2,2,0,0,1-1.62-1.74,2.49,2.49,0,0,1,1.11-2.49c1.62-1,3.47-.84,5.28-.8C409.11,129.11,409.06,129.58,409,130Z" transform="translate(0 0)"/><path class="cls-4" d="M82.43,106.85a.19.19,0,0,1,.17-.19,1.35,1.35,0,0,0,1.6-.84c.53-1.4,2.16-1.87,2.65-3.31.16-.47.94-.6,1.13-.21.57,1.13,1.73,1.61,2.44,2.6,1.15,1.6,2.22,3.35,4.13,4.23h0c0,.24,0,.56.14.73,2.19,2.66,4.26,5.43,6.65,7.9,2.05,2.13,3.78,4.51,5.66,6.74,2.42,2.87,5.35,4.52,9,3.6,1.1-.28,2.42-.55,2.8-2A.11.11,0,0,1,119,126c1.1,0,1.53-.89,2.1-1.54,1.06-1.19,2-2.48,3-3.7,3-3.49,6.39-6.57,9-10.37a11.32,11.32,0,0,1,1-1.28c2-2.13,4-4.28,5.87-6.51.52-.62.64-.5,1.09,0,1.11,1.16,2.55,2,3.23,3.59.18.43.7.53,1.19.51h0c.44,2,2.16,3.19,3.27,4.75,1.69,2.37,4,4.32,5.81,6.61,1.13,1.42,2.67,2.48,3.59,4,.8,1.35,2.18,2.17,2.89,3.56.22.45.74.47,1.22.4a.22.22,0,0,1,.21.14,1,1,0,0,0,.34.79c2,1.82,6.78,1.75,9.12-.3a45.17,45.17,0,0,0,3.94-4.12c2-2.27,4-4.59,5.94-6.92s4.11-4.61,6-7c1.45-1.82,3.17-3.37,4.51-5.28.77-1.1,2-1.89,2.71-3,1.29-2,3.23-3.37,4.44-5.42a6.77,6.77,0,0,1,2.14-2.58A2.49,2.49,0,0,0,203,90.13a.13.13,0,0,1,.12-.16c.65-.19,1.17-.27,1.1.72-.15,2.36.25,4.74-.27,7.09-.25,1.16.27,2.28.27,3.44q0,31.72,0,63.44c0,4.47,0,4.47-4.38,4.47H53.72a12.44,12.44,0,0,0-2.87.12c-1.24.31-1.53-.37-1.72-1.28a5.35,5.35,0,0,1,0-1.06c0-12.72,0-25.44,0-38.16,0-1.4.42-1.86,1.82-1.81,2.72.09,5.45,0,8.18,0a15.39,15.39,0,0,0,7.52-1.81c.59-.32,1.35-.56,1.34-1.46l0,0c1.19,0,1.78-1,2.3-1.77a51.17,51.17,0,0,1,5.17-6.09c2-2.27,3.75-4.81,6-6.9C81.92,108.44,82.67,107.82,82.43,106.85Zm5.23,16.26c1.21,0,2.41,0,3.62,0,.67,0,1.06-.21,1-.93q0-3.7,0-7.4c0-.65-.34-.87-1-.87q-3.63,0-7.25,0c-.67,0-1,.21-1,.94,0,2.42,0,4.83,0,7.25,0,.81.41,1,1.14,1C85.34,123.09,86.5,123.11,87.66,123.11Z" transform="translate(0 0)"/><path class="cls-1" d="M425.79,128.17a9.34,9.34,0,0,1,1-4.59,4.72,4.72,0,0,1,4.63-2.75,4.92,4.92,0,0,1,4.22,3.77,16.12,16.12,0,0,1,.17,6.88c-.52,2.3-2.15,4.13-4.07,4.3-2.49.22-4.23-.92-5.22-3.38A10.16,10.16,0,0,1,425.79,128.17Z" transform="translate(0 0)"/><path class="cls-1" d="M452.48,130c-.09,3.94-2,6-5.45,5.79a3.12,3.12,0,0,1-3.12-2.36,3.54,3.54,0,0,1,1.48-3.79c2-1.36,4.23-1.15,6.41-1.24C452.87,128.3,452.36,129.41,452.48,130Z" transform="translate(0 0)"/><path class="cls-4" d="M490.82,136.52c-1,.42-1.49-.1-2-.66-2.25-2.29-4.26-4.81-6.64-7-.49-.46-.95-1.05-1.61-.75s-.23,1-.21,1.49c.05,2,0,4,0,6,0,.42-.07.88-.6.88s-.61-.45-.61-.87c0-1.46,0-2.92,0-4.39q0-8.85,0-17.7c0-.36,0-.71,0-1.06s.18-1,.76-.92.45.58.45,1c0,4.08,0,8.17,0,12.25,0,.62-.31,1.46.5,1.74s1.29-.37,1.8-.86c1.72-1.66,3.43-3.33,5.16-5a2.9,2.9,0,0,1,.49-.35c.28-.21.61-.54.92-.21s-.1.64-.33.85c-1.48,1.41-3,2.82-4.49,4.18-2.36,2.1-2.13,2,.1,4.62C486.52,132.11,488.93,134.05,490.82,136.52Z" transform="translate(0 0)"/><path class="cls-4" d="M464,120.89c.32-1.38,1.53-1.08,2.45-1.23,4.31-.67,5.85,1.37,6.33,4.73a76.9,76.9,0,0,1,.29,10.84c0,.58.15,1.36-.73,1.4s-.7-.8-.71-1.32c0-3.38,0-6.75,0-10.12a4.54,4.54,0,0,0-3-4.58,3.44,3.44,0,0,0-2.05-.17c-.83.18-1.67.34-2.5.51Z" transform="translate(0 0)"/><path class="cls-4" d="M460.07,128v-7c0-.6-.06-1.36.84-1.28s.5.69.39,1.18a1.08,1.08,0,0,0,.28,1.12c1.25.74.72,1.68.37,2.59-.73,1.91-.34,3.89-.42,5.84-.06,1.51,0,3,0,4.54,0,.6.27,1.55-.71,1.51s-.71-1-.71-1.59c0-2.32,0-4.63,0-6.95Z" transform="translate(0 0)"/><path class="cls-4" d="M463.07,121.83c0-.64.22-1,.89-.94l.05.06a.93.93,0,0,1-.93.89Z" transform="translate(0 0)"/><path class="cls-4" d="M463.08,121.84l-.14.12.13-.13Z" transform="translate(0 0)"/><path class="cls-6" d="M74.85,98.54c2.85-3.42,5.47-6.85,8.41-10s7-2.31,9.11,1c.74,1.17.49,1.76-1,2-1.6.23-2.75,1.3-4.11,2-1.2.58-2.36,1.26-3.6,1.78s-2.9.66-3.77,2c0,0,0,.11-.09.12C78.2,97.55,77,99.47,74.85,98.54Z" transform="translate(0 0)"/><path class="cls-6" d="M140.32,86.94a5,5,0,0,1,5,2.31c.27.4.8,1-.33,1.1-.9.09-1.14,1.09-1.95,1.52A40.59,40.59,0,0,1,138,94c-.68.25-.93.86-1.48,1.23-2.11,1.41-4.68,1.9-6.74,3.4a.77.77,0,0,1-1.1,0,1.08,1.08,0,0,1,.18-1.38c1.7-2,3.4-3.95,5.13-5.89a16.65,16.65,0,0,0,1.52-1.82C136.67,87.78,138.18,86.61,140.32,86.94Z" transform="translate(0 0)"/><path class="cls-6" d="M195.59,89.7h3.63c.35,0,.72,0,.93.34s0,.69-.28.92c-2.15,1.82-3.47,4.42-5.78,6.08-.23.17-.4.65-.69.44-2.27-1.64-5.1-2.28-7.22-4.16-.64-.57.09-.8.32-1a9.15,9.15,0,0,1,6.83-2.58c.75,0,1.51,0,2.26,0Z" transform="translate(0 0)"/><path class="cls-5" d="M203,90.13a2.49,2.49,0,0,1-1.41,2.23,6.77,6.77,0,0,0-2.14,2.58c-1.21,2-3.15,3.45-4.44,5.42-.71,1.08-1.94,1.87-2.71,3-1.34,1.91-3.06,3.46-4.51,5.28-1.91,2.41-4,4.65-6,7s-3.93,4.65-5.94,6.92a45.17,45.17,0,0,1-3.94,4.12c-2.34,2-7.16,2.12-9.12.3a1,1,0,0,1-.34-.79c2.57,1.43,5.19,2,8,.64a7.42,7.42,0,0,0,2.35-1.84q8.88-10.28,17.73-20.59l11.9-13.83C202.61,90.36,202.74,90.15,203,90.13Z" transform="translate(0 0)"/><path class="cls-5" d="M145.48,106.7c-.49,0-1-.08-1.19-.51-.68-1.58-2.12-2.43-3.23-3.59-.45-.47-.57-.59-1.09,0-1.88,2.23-3.87,4.38-5.87,6.51a11.32,11.32,0,0,0-1,1.28c-2.6,3.8-6,6.88-9,10.37-1,1.22-2,2.51-3,3.7-.57.65-1,1.57-2.1,1.54q4.38-5.16,8.76-10.33c4-4.7,8-9.38,12.05-14.09.48-.56.81-.77,1.42-.13A40.5,40.5,0,0,1,145.48,106.7Z" transform="translate(0 0)"/><path class="cls-5" d="M118.83,126.12c-.38,1.43-1.7,1.7-2.8,2-3.67.92-6.6-.73-9-3.6-1.88-2.23-3.61-4.61-5.66-6.74-2.39-2.47-4.46-5.24-6.65-7.9-.14-.17-.1-.49-.14-.73,2.33,2.3,4.33,4.88,6.47,7.35,2.47,2.85,4.88,5.75,7.39,8.57a7.39,7.39,0,0,0,9.19,1.65C118,126.49,118.42,126.31,118.83,126.12Z" transform="translate(0 0)"/><path class="cls-5" d="M162.25,126c-.48.07-1,0-1.22-.4-.71-1.39-2.09-2.21-2.89-3.56-.92-1.55-2.46-2.61-3.59-4-1.83-2.29-4.12-4.24-5.81-6.61-1.11-1.56-2.83-2.73-3.27-4.75a90.73,90.73,0,0,1,6.44,7.15c3.25,3.65,6.39,7.38,9.57,11.09C161.77,125.27,162,125.67,162.25,126Z" transform="translate(0 0)"/><path class="cls-5" d="M82.43,106.85c.24,1-.51,1.59-1,2.07-2.24,2.09-4,4.63-6,6.9a51.17,51.17,0,0,0-5.17,6.09c-.52.8-1.11,1.73-2.3,1.77a56.87,56.87,0,0,1,4.21-5.07q4.66-5.51,9.37-11A7.52,7.52,0,0,1,82.43,106.85Z" transform="translate(0 0)"/><path class="cls-5" d="M94.55,109.13c-1.91-.88-3-2.63-4.13-4.23-.71-1-1.87-1.47-2.44-2.6-.19-.39-1-.26-1.13.21-.49,1.44-2.12,1.91-2.65,3.31a1.35,1.35,0,0,1-1.6.84A44,44,0,0,1,87,101.47c.37-.39.71-.54,1.12,0C90.23,104,92.55,106.42,94.55,109.13Z" transform="translate(0 0)"/><path class="cls-3" d="M87.66,123.11c-1.16,0-2.32,0-3.47,0-.73,0-1.15-.2-1.14-1,0-2.42,0-4.83,0-7.25,0-.73.36-1,1-.94q3.61,0,7.25,0c.61,0,.94.22,1,.87q0,3.69,0,7.4c0,.72-.38.94-1,.93C90.07,123.09,88.87,123.11,87.66,123.11Zm-3.87-7.25c.32,1.24-.08,2.75,1.62,2.16a31.68,31.68,0,0,0,3.67-1.87c.26-.14.64-.16.6-.55s-.51-.37-.83-.47c-1.49-.49-3,0-4.45,0C83.62,115.18,83.75,115.73,83.79,115.86Z" transform="translate(0 0)"/><path class="cls-6" d="M83.79,115.86c0-.13-.17-.68.61-.7,1.48,0,3-.52,4.45,0,.32.1.77,0,.83.47s-.34.41-.6.55A31.68,31.68,0,0,1,85.41,118C83.71,118.61,84.11,117.1,83.79,115.86Z" transform="translate(0 0)"/></g></g></svg>