<svg xmlns="http://www.w3.org/2000/svg" viewBox="0 0 518 168.77"><defs><style>.cls-1{fill:#498dcb;}</style></defs><title>Atos</title><g id="Calque_2" data-name="Calque 2"><g id="Calque_1-2" data-name="Calque 1"><path class="cls-1" d="M329.46,168.77H314.13c-3.29-1.21-6.86-1.14-10.19-2.12l-8-2.4a111.76,111.76,0,0,1-17-9.12,8.55,8.55,0,0,0-2.84-2.22c-1.19-1.08-2.39-2.12-3.52-3.25-.89-.88-1.41-1.07-2.4.12a62.5,62.5,0,0,1-8.28,7.64l-6.26,4a4.27,4.27,0,0,0-2.25,1.15l-8.52,3.4a82.57,82.57,0,0,1-12.49,2.35l-12.52.06-8.5-1.29c-3-1.07-6.07-2.14-9.08-3.22a39.92,39.92,0,0,1-19.79-19.48l-2.82-8.47a113.31,113.31,0,0,1-1.34-17V59.47c.24-5.1.24-5.11-4.77-5.1-1.78,0-3.54.06-5.32.09h-8.53l-5.68-.1c0-7.89,0-15.8-.16-23.7,0-2,1.08-1.82,2.34-1.82,6.51,0,13,0,19.53,0,.87,0,1.9.46,2.62-.51V17q0-4.24,0-8.48a42.38,42.38,0,0,0,0-4.78C178.22,1.58,179,1,181.1,1q14.18.16,28.34,0c2.17,0,2.71.63,2.67,2.72-.13,7.24.07,14.5-.16,21.74-.1,2.81.74,3.44,3.45,3.4,11.32-.12,22.65,0,34,0,0,6.88,0,13.74.07,20.61,0,4.71,0,4.71-4.6,4.94H219.34a30.5,30.5,0,0,1-4-.13c-2.81-.42-3.4.77-3.38,3.43.09,20,0,40.07,0,60.11a16.18,16.18,0,0,0,.55,5.58,9.43,9.43,0,0,0,1.07,4.54c1.52,6.67,7.93,12.83,14.19,13.64a14.06,14.06,0,0,0,8.53.48,21.94,21.94,0,0,0,8.51-2.24,23.29,23.29,0,0,0,7.29-4l1.25-1c4.94-3.22,5-3.25,2.37-7.48l-2-5-1.55-4c-.61-2.46-1.22-4.93-1.84-7.39l-1.53-11.34c0-2.07,0-4.13-.05-6.21.34-2.83.68-5.67,1-8.5.6-2.81,1.21-5.65,1.81-8.47a96.29,96.29,0,0,1,7.24-17c1-1.65,2.07-3.31,3.09-5A14.07,14.07,0,0,0,264.69,51a99.26,99.26,0,0,1,14.23-13.64c1.7-1.12,3.41-2.22,5.1-3.34,1.14-.63,2.28-1.25,3.41-1.89l9.64-4.34c.46-.1,1.07-.42,1.34-.26.75.47,0,.92-.23,1.35A22,22,0,0,0,295.94,34h0a28.8,28.8,0,0,0-2.87,8.51,38.68,38.68,0,0,0-2.14,9.06,41.59,41.59,0,0,0-1.17,7.93A27.35,27.35,0,0,0,289.2,68c-.61.92-1.21,1.84-1.81,2.76a22.55,22.55,0,0,0-3.25,5.73,25.32,25.32,0,0,0-2.9,8.48C280,89.8,278.86,94.65,280,99.71c.06.74.11,1.49.17,2.22a25.19,25.19,0,0,0,2.06,9.13,39,39,0,0,0,9.65,16.41,16.47,16.47,0,0,0,4.06,3.84,36.58,36.58,0,0,0,17,8.51c4.14.84,8.27,1.75,12.53.66a10.2,10.2,0,0,0,4.5-.66,34.73,34.73,0,0,0,14.43-6.16l-5.91-2.72a76.22,76.22,0,0,1-29.51-29,107.38,107.38,0,0,1-6.78-17c-.58-2.83-1.14-5.68-1.7-8.51-.22-2.81-.41-5.64-.63-8.46,0-1.5,0-3,.06-4.5q.86-6.26,1.69-12.48c.77-2.64,1.52-5.28,2.28-7.92.32-.79.62-1.56.94-2.36.84-2,1.68-4,2.52-6.06q2.73-4.57,5.47-9.18a.8.8,0,0,0,.19-.44,3.91,3.91,0,0,1,3.22-1.25c2.88,0,5.75-.06,8.62-.08l4,.13,9.68,1.61a103,103,0,0,1,17,6.36,11.5,11.5,0,0,0,4,2.19A20.91,20.91,0,0,0,364,37,85.08,85.08,0,0,1,385,60.14a106.85,106.85,0,0,1,6.88,16.34l1.8,8.49.58,6.22c0,3.59,0,7.18,0,10.77l-1.14,8.46c-.74,2.84-1.48,5.68-2.2,8.52-2,6-5.07,11.49-8.17,17-.71,1-1.41,1.91-2.11,2.86l-4.07,5.06-4.38,4.6c-1.69,1.5-3.41,3-5.1,4.49l-3.66,2.73a99,99,0,0,1-16.35,8.65L338,167.07c-2.84.57-5.8.55-8.52,1.7m9.07-113.25c-5.65-2.66-6.06-4.09-6.88,3.91-.87,1.23-.36,2.65-.53,4a32.79,32.79,0,0,0,1.11,14.26A24.49,24.49,0,0,0,334.58,85a21.56,21.56,0,0,0,3.95,7.33l.69,1.15a33,33,0,0,0,7.84,8.5,28.91,28.91,0,0,0,8.51,5.54c6.88,3,6.16,4.29,7.41-4.38,1-3.18.61-6.42.49-9.66A30.33,30.33,0,0,0,362.25,85,32.46,32.46,0,0,0,359,75.91a21.13,21.13,0,0,0-2.86-5.1c-.72-1-1.41-1.92-2.11-2.88a28.42,28.42,0,0,0-6.92-7.13l-2.37-1.75a18.47,18.47,0,0,0-6.18-3.53"/><path class="cls-1" d="M453.2,0h19.31a35.81,35.81,0,0,0,9.62,1.17c3.15,1,6.48,1,9.7,1.58A35.59,35.59,0,0,0,499.16,4a57.45,57.45,0,0,0,9.69,2.15c.86.62.41,1.55.57,2.35q-.24,4.5-.49,9l-.12,7.92c-.86,2.23-.39,4.57-.46,6.85.17,6.21-1,12.41-.57,18.64-2.4,1.35-5,.14-7.47.64l-8.51,0-10.13-.67c0-2.79-.07-5.61-.1-8.41,0-1.31.05-2.62.06-3.92.75-1.13.37-2.39.38-3.58,0-7.14,0-7.14-7.24-7.22-2.79-.77-5.65-.58-8.49-.48-3.06,0-6.12-.46-9.12.43A34,34,0,0,0,449.25,29a27.79,27.79,0,0,0-8.63,3.21c-4.08,2.32-7.45,5.34-8.32,10.31-.34,2.91-.54,5.82,1.15,8.47a19.38,19.38,0,0,0,7.29,7.2L443,59.49a24.56,24.56,0,0,0,6.26,3.31,36.22,36.22,0,0,0,8.51,3.49c5.68,2.56,11.69,4.2,17.61,6.11,2.64,1,5.29,1.94,7.94,2.91a5.51,5.51,0,0,0,2.88,1.15l5,2.33,9.15,5A3.09,3.09,0,0,0,502,85l6.86,6.12L511,93.52c.95,1.59,1.93,3.19,2.85,4.81,2.26,3.94,2.91,8.4,4.06,12.7,0,1.13.09,2.25.11,3.38a88.64,88.64,0,0,1-.61,13,52.82,52.82,0,0,1-6.84,16.43c-.57.78-1.13,1.57-1.69,2.36l-6.33,6.65-2.87,2.21a75,75,0,0,1-16.38,8.59l-9.14,2.76L460,168.77H440.73c-.49-.88-1.32-.51-2-.59A157,157,0,0,1,423.12,166l-7.93-1.74-9.1-2.82a1.06,1.06,0,0,0-.5-.13l-7.38-2.91q-4.29-2.09-8.56-4.21c-.71-.35-.31-.86-.2-1.33a.59.59,0,0,0,.24-.43,43.32,43.32,0,0,0,5.09-8,88.45,88.45,0,0,0,7.5-13.13c1.08-2.34,2.26-2.8,4.37-1.67,2.8,1.08,5.5,2.47,8.52,2.88a32.4,32.4,0,0,0,7.89,2.33c5.89,2.16,12.07,2.92,18.22,3.81,2.65.14,5.25.94,7.94.58,3.62.06,7.24.52,10.81-.45a35.9,35.9,0,0,0,14.74-4.59c2.91-1.62,5.58-3.49,6.89-6.73,1.75-2.67,1.25-5.61,1-8.52a12,12,0,0,0-3.92-7.24c-3.55-3.49-7.93-5.56-12.47-7.38a107.71,107.71,0,0,0-17-5.81,44,44,0,0,0-8.47-2.88l-17.08-7.29c-.79-.48-1.57-1-2.4-1.45-8.39-4.66-15.37-10.75-19.73-19.48a47.06,47.06,0,0,1-3.5-15.33l0-9.61a46.77,46.77,0,0,1,5.88-17L407.23,21l3.34-3.54,5.2-4.37,6.72-4.14c.58-.33,1.16-.66,1.75-1l8-3.4c2.84-.79,5.68-1.56,8.54-2.34,4.12-.89,8.4-.92,12.46-2.19"/><path class="cls-1" d="M155.29,127.41c1.94,5.47,3.93,10.94,5.78,16.44a2.08,2.08,0,0,0,2.41,1.68c3-.07,6.05,0,9.05,0,1.62-.06,2.11.56,2.1,2.12-.1,6.12-.1,12.22-.14,18.33l-6.27.07-8.49,0H117.12c-1.68,0-3.35-.09-5-.12,0-6.78,0-13.57-.07-20.36,3.58,0,7.16-.09,10.75-.1,1.22,0,2.07-.1,1.43-1.73-1.07-2.59-2-5.23-3-7.86-.58-1.86-1.15-3.74-1.78-5.61-2.58-7.7-2.58-7.7-10.79-7.26H57.52c-5.44-.24-4.4-.45-5.72,3.8-2.32,5.79-4.46,11.62-6.22,17.61-.58,1.59.69,1,1.3,1,3.95.07,7.92.08,11.88.12q0,10.19-.09,20.37l-1.12.11H5.89c-5.86.51-5.84.51-5.76-5.5,0-3.86.12-7.73-.1-11.58-.18-2.67.5-3.83,3.35-3.49,2.15.25,4.38-.16,6.5.15,3.4.51,5.12-.79,5.5-4.09.63-1.86,1.63-3.6,1.83-5.6a38.25,38.25,0,0,0,2.92-8.45,30.49,30.49,0,0,0,2.85-7.9,1.38,1.38,0,0,0,.48-1.27,38.14,38.14,0,0,0,2.81-7.86,41.72,41.72,0,0,0,3-8.45c2.34-5.56,4.28-11.28,6.11-17a49.51,49.51,0,0,0,3-8.45c2.06-5.24,4-10.51,5.64-15.89A60.18,60.18,0,0,0,47.35,51C49.5,45.79,51.3,40.48,53,35.14a59,59,0,0,0,3.36-9.65c1.6-3.56,1.6-3.57-2.12-3.56-1.76,0-3.51.09-5.27.13A39.89,39.89,0,0,0,40.61,22c-.3-6.94-.22-13.86,0-20.8v0L49,1.12h59.6c1.42,0,2.06.65,2.49,2,.59,1.82,1,3.75,2.08,5.37,1.63,5.57,3.65,11,5.73,16.43A68.71,68.71,0,0,0,122.22,34q3,8.48,5.9,17c1,2.84,2.08,5.68,3.12,8.53a40.53,40.53,0,0,0,2.89,8,.67.67,0,0,0,.09.46c1,2.83,2,5.66,3,8.48a58.62,58.62,0,0,0,3.2,8.52,19.58,19.58,0,0,0,2.26,6.33,3.29,3.29,0,0,0,.66,2.17c1,2.81,1.95,5.64,2.92,8.48q3.06,8.49,6.15,17c1,2.83,2,5.64,2.91,8.47M63.38,93.47c-.27.9-.56,1.79-.83,2.7-.58,2.09,1.12,1.15,1.75,1.15q20.52.09,41,0c.7,0,1.55.33,2-.51a13.42,13.42,0,0,0-1.59-4.51c-.78-2.26-1.57-4.54-2.34-6.82-1.1-3-2.18-6.05-3.29-9.09-1-2.82-2-5.65-2.93-8.47C95.15,62.3,93.09,56.63,91,51c-.48-3-1.9-5.67-2.88-8.5s-2-5.89-3-8.83c-.2,0-.4,0-.59,0-2,5.79-4,11.56-5.94,17.35a42.24,42.24,0,0,0-3,8.46c-2.27,5.58-4.29,11.27-6.12,17a52.64,52.64,0,0,0-3,8.46l-.48,1.24a43.07,43.07,0,0,0-2.69,7.32"/></g></g></svg>