<svg xmlns="http://www.w3.org/2000/svg" viewBox="0 0 536.35 195.04"><defs><style>.cls-1{fill:#203260;}.cls-2{fill:#f0f0f0;}</style></defs><title>CAZALS</title><g id="Calque_2" data-name="Calque 2"><g id="Calque_1-2" data-name="Calque 1"><path class="cls-1" d="M301.63,164a30.93,30.93,0,0,0-6.62,1.82,109.3,109.3,0,0,0-13.4,3.79,2.43,2.43,0,0,0-1.77.41l-.48.13a21,21,0,0,0-5,1.43,23.48,23.48,0,0,0-6.71,1.94l-1.15.22-1,.34c-3.34.45-6.46,1.69-9.65,2.68l-.4.1-1.19.24-1,.35-.07,0-7.83,2.16-1.15.26-.62.26-1.68.47-.44.14-1.17.26a.83.83,0,0,0-1,.34l-.08,0a18.53,18.53,0,0,0-5.6,1.6l-1.1.21a39.51,39.51,0,0,0-7.25,2.07l-1.2.28a.76.76,0,0,0-.94.26l-1.29.33-.52.19-2.75.76a155.71,155.71,0,0,0-15.13,4.24l-3.36.92a.7.7,0,0,0-.89.27l-1.35.35-.47.16h0a33,33,0,0,0-6.69,1.84l-1.22.21c-.13-.16-.27-.32-.4-.49,0-1.45-.05-2.9-.07-4.35v-6.69a36.49,36.49,0,0,0,0-7.24v-6.7a36.49,36.49,0,0,0,0-7.24v-6.69a36.49,36.49,0,0,0,0-7.24v-6.7a36.49,36.49,0,0,0,0-7.24v-6.69a36.59,36.59,0,0,0,0-7.25v-6.69a36.49,36.49,0,0,0,0-7.24V99.9a36.59,36.59,0,0,0,0-7.25V86a36.49,36.49,0,0,0,0-7.24V72a36.59,36.59,0,0,0,0-7.25V58.09a36.49,36.49,0,0,0,0-7.24v-6.7a36.49,36.49,0,0,0,0-7.24V30.22A36.49,36.49,0,0,0,189,23v-6.7A36.49,36.49,0,0,0,189,9V2.35c.38-.9-.43-2.68,1.69-2.3a30.83,30.83,0,0,0,7.22,2.05l12.86,3.6,7.83,2.16.08,0a.84.84,0,0,0,1,.34,109.71,109.71,0,0,0,11.24,3l.18.19.24-.07,1.22.37a27.69,27.69,0,0,0,6.68,1.77c9.17,3,18.5,5.41,27.83,7.82l9,2.53,1.1.23a9.24,9.24,0,0,0,3.91,1.09,20.36,20.36,0,0,0,6.07,1.71A35.74,35.74,0,0,0,295,29.07a109.3,109.3,0,0,0,11.75,3.37l1,.33,1.16.23,7.26,2.08.61.14,1,.31,1.21.25,1,.33,3.36.92a107.43,107.43,0,0,0,13.42,3.69c8.64,2.79,17.42,5.05,26.19,7.35l.5.18a2.39,2.39,0,0,0,1.74.4l6.72,2c4.45,1.14,8.77,2.81,13.33,3.57a31.35,31.35,0,0,0,7.3,2.06,28.6,28.6,0,0,0,6.67,1.85,3,3,0,0,0,2.2.61,9.1,9.1,0,0,0,3.46,1l1,.35,1.17.2a33.77,33.77,0,0,0,6.7,1.92l1.19.31a.87.87,0,0,0,1,.32l3.33.86.59.26,1.16.24a119.06,119.06,0,0,0,13.39,3.72,14.84,14.84,0,0,0,4.52,1.3l.14.18.2-.09a2.57,2.57,0,0,0,1.83.46,41.39,41.39,0,0,0,7.25,2.07c4.26,1.24,8.45,2.71,12.83,3.53l.19.18.25-.06,1.22.36a30.63,30.63,0,0,0,6.67,1.82A88.34,88.34,0,0,0,481.27,81l.47.14a2.45,2.45,0,0,0,1.76.43,25.36,25.36,0,0,0,6.72,1.93l4.95,1.42.53.16a2.35,2.35,0,0,0,1.74.4l4.36,1.32c.33.43.79.37,1.24.33l.19.18.24-.07,1.23.31,6.69,1.85A22.63,22.63,0,0,0,517.48,91a127.12,127.12,0,0,0,15.67,4.33l1.53.72c.36.9,1.7,1.11,1.67,2.32L532,99.85l-6.61,1.83a51.14,51.14,0,0,0-7.79,2.18l-1.22.3a.68.68,0,0,0-.89.24l-1.36.39-.23-.05-.16.19-9,2.44-.57.31h0a28,28,0,0,0-6.67,1.79l-1.19.3-.46.17-1.18.28-.61.24-1.65.39-.53.19a1.9,1.9,0,0,0-1.6.46,148.9,148.9,0,0,0-14.54,4l-5.05,1.38a.84.84,0,0,0-1,.34l-.08,0a131.12,131.12,0,0,0-15.68,4.38,20.3,20.3,0,0,0-5.52,1.42L441.67,125l-1.13.21-1,.4-1.32.38-.44.14a58.1,58.1,0,0,0-9.6,2.65l-.44.14h0a46.29,46.29,0,0,0-8.26,2.25l-1.29.32-.53.18-11.1,3.09a29.16,29.16,0,0,0-6.72,1.92l-1.12.22-.7.3a21.11,21.11,0,0,0-5.41,1.39c-4.47,1.25-9.05,2.15-13.4,3.83l-1.23.31-.41.11-1.19.25-1,.33a7.85,7.85,0,0,0-3.43,1,24.89,24.89,0,0,0-6.68,1.83l-1.22.32-.44.12a2.18,2.18,0,0,0-1.72.47,8.46,8.46,0,0,0-3.89,1.12l-1.71.41-.55.21a16.11,16.11,0,0,0-5,1.31l-7.27,2A131.53,131.53,0,0,0,330.16,156a24.6,24.6,0,0,0-6.72,1.91l-1.18.26-.56.19a17.17,17.17,0,0,0-5.49,1.5A144.52,144.52,0,0,0,301.63,164Zm50.91-74.91.58-.19c.61,1.11,1.23,2.21,1.83,3.32q5.67,10.38,11.32,20.77c.47.86.91,1.58,2.07,1.45s1.12-1.1,1.26-1.86c1.72-9.59,3.38-19.18,5.14-28.76.29-1.62-.3-1.84-1.7-1.82-1.57,0-1.44,1.12-1.61,2.09q-2,11.55-4,23.12a11,11,0,0,1-2.59-3.42q-5.52-10.14-11-20.29c-.46-.86-.9-1.54-2.07-1.49s-1.18.71-1.31,1.45q-2.58,14.66-5.18,29.31c-.26,1.46.34,1.72,1.63,1.7,1.73,0,1.5-1.34,1.68-2.36Q350.54,100.57,352.54,89.06Zm-154,14.17c-.11,6.23,2.15,9.45,6.33,10.78,5.48,1.75,12.49-1.91,14.58-7.8.81-2.31,1.06-4.77,3.44-6.25.58-.36.85-1.43,1-2.22s.69-2-.82-2.15c-.92-.07-2.11-.28-2.27,1.31-.19,1.95-1.6,2.24-3.24,2.22a25.29,25.29,0,0,0-3.89.2c-3.31.48-5.69,2.2-6.6,5.54-.2.76-.85,2,.52,2.27.94.19,2.28.42,2.56-1.29.46-2.75,2.68-3.26,4.94-3.66,2-.36,2.19.64,1.76,2.22a10,10,0,0,1-9.48,6.87,5.71,5.71,0,0,1-5.73-6.46c.24-3.57,2.25-6,5.24-7.71,1.52-.85,2.13-1.71.74-3.22-1.64-1.79-1.36-3.76-.17-5.63a5.81,5.81,0,0,1,5.85-3c2.36.29,3.3,1.81,3.31,4.06,0,1.5,1.24,1.12,2.05,1.23,1.18.17,1-.79,1-1.5a6.49,6.49,0,0,0-4-6.4,8.23,8.23,0,0,0-8.63,1.43c-2.85,2.24-4.23,5.3-3.33,8.87a3,3,0,0,1-1.14,3.49C200.06,98.66,198.6,101.5,198.55,103.23ZM419,82c-1.49,0-3,.08-4.46,0s-2.13.33-2.39,1.88c-1.56,9.33-3.27,18.64-4.82,28-.14.81-1.25,2.27.8,2.59,1.83.28,2.1-.81,2.32-2.26.48-3.21,1.11-6.39,1.68-9.59.11-.61,0-1.51.84-1.54a38.33,38.33,0,0,1,7.5,0c1.67.27,1.7,2.45,2.35,3.82,1.28,2.68,2.47,5.4,3.54,8.16.73,1.88,2.33,1.68,3.46,1.21s0-1.58-.31-2.31c-1.31-3.26-2.6-6.55-4.14-9.71-.86-1.76-.75-2.72,1.09-3.64a8.35,8.35,0,0,0,3.15-3.47c3.76-6.46,0-13.06-7.54-13.12ZM301.65,82a41.61,41.61,0,0,1-4.18,0c-1.72-.16-2.35.42-2.65,2.21-1.51,9.24-3.23,18.45-4.78,27.69-.13.79-1.34,2.22.78,2.56,1.87.29,2.14-.9,2.37-2.24l1.05-6c.93-5.24.94-5.1,6.37-5.3,2.42-.09,3.7.6,4.53,2.9,1.09,3,2.66,5.93,3.79,9a2.42,2.42,0,0,0,3.53,1.55c1.26-.57,0-1.78-.33-2.58q-1.87-4.78-4.06-9.44c-.73-1.56-.89-2.58.92-3.53a8.81,8.81,0,0,0,3.49-3.89c3.41-6.67-.28-12.78-7.76-12.83Zm88.29,32.47c2.6,0,5.21-.07,7.8,0,1.59.06,1.47-1,1.61-2,.19-1.48-.91-1.11-1.65-1.12-3.71,0-7.43-.07-11.14,0-1.64,0-2.38-.23-1.91-2.14a63.35,63.35,0,0,0,1.26-7.39c.21-1.65.93-2.13,2.56-2.07,3.33.13,6.68,0,10,.07,1.62.05,1.47-1.1,1.63-2,.25-1.37-.8-1.18-1.61-1.19-3.15,0-6.32-.1-9.47,0-1.89.08-2.19-.56-1.78-2.25a64.17,64.17,0,0,0,1.34-7.38c.19-1.63,1-1.92,2.38-1.9,3.9.07,7.8-.05,11.7.06,1.63.05,1.8-.86,1.91-2,.15-1.72-1.17-1.11-1.91-1.12-4.83,0-9.66,0-14.49-.06-1.59,0-2,.61-2.27,2q-2.4,14-5,27.93c-.34,1.85-.15,2.72,2,2.54S387.62,114.47,389.94,114.47Zm-133.31-.35c2.58.84,4,0,4.69-2.07,1.53-4.87,4.7-6.82,9.8-5.92,2.25.4,5-.79,6.78.43s1.26,4.08,1.77,6.21c.35,1.43,1,1.79,2.3,1.64,2-.23.87-1.57.73-2.31-1.83-9.45-3.73-18.89-5.62-28.33-.16-.79-.14-1.7-1.34-1.77a1.88,1.88,0,0,0-2,1.14c-1,1.89-2.05,3.73-3.08,5.6C266,97.15,261.35,105.57,256.63,114.12ZM450.8,82c-4.06.09-7.67,1.27-10.44,4.39-3.54,4-2.6,8.7,2.18,11a19.84,19.84,0,0,0,4.75,1.54,20.27,20.27,0,0,1,5.59,1.63c4,2,4.35,5.18,1,8.14a12.52,12.52,0,0,1-14.79.79c-.7-.45-1.38-.94-2-1.45-1-.79-1.48.14-2.07.64-.86.73-.39,1.32.27,1.79a28.21,28.21,0,0,0,3.48,2.29c7,3.53,16.43,1,19.48-5.29a6.36,6.36,0,0,0-2.37-8.7,19.14,19.14,0,0,0-7.28-2.61,16.89,16.89,0,0,1-5.24-1.81c-2.43-1.39-2.86-3.64-1.14-5.84a8.51,8.51,0,0,1,3.77-2.75,10.85,10.85,0,0,1,11.28,1.59c1,.81,1.66.77,2.48-.29s.18-1.59-.62-2.18A13.4,13.4,0,0,0,450.8,82ZM248.26,82a18.41,18.41,0,0,1-2.78,0c-2.74-.42-3.74.59-4.17,3.44-1.36,9-3.14,17.87-4.71,26.81-.13.74-.94,1.93.68,2.16,1.28.18,2.33.08,2.5-1.69.24-2.39.75-4.76,1.13-7.14.73-4.64.72-4.64,5.33-4.64,1,0,2,0,3.06,0a11.53,11.53,0,0,0,10.79-8.51A8,8,0,0,0,252.43,82C251,82,249.65,82,248.26,82Zm83.19,0H322c-1.38,0-3-.32-2.93,1.85s1.73,1.06,2.68,1.17a21.35,21.35,0,0,0,4.45,0c2.23-.21,3.06.19,2.54,2.83-1.63,8.17-2.92,16.41-4.32,24.63-.12.7-.92,1.76.56,1.91,1,.1,2.34.52,2.52-1.25.08-.74.27-1.46.4-2.19,1.33-7.76,2.7-15.51,4-23.28.32-1.93,1-2.91,3.19-2.68s4.27,0,6.4.07c1.59.07,1.46-1,1.63-2,.28-1.59-1-1-1.62-1C338.13,81.92,334.79,82,331.45,82Z"/><path class="cls-1" d="M67,88c-1.44-1.74-.3-3.83-.76-5.7,1.86-.66,3.81,0,5.69-.39H85.86l5.86.28a8.25,8.25,0,0,1-2,6.63c-3.34,4.2-6.44,8.59-9.61,12.91-1.55,2.11-3,4.26-4.86,6.8,5,0,9.3.13,13.63-.06,2.33-.1,2.88.66,3,2.93.1,2.66-.79,3.47-3.26,3.12a11.75,11.75,0,0,0-2.21.09H72.46c-1,0-2,0-3-.15s-2.53.66-3-.68a4.78,4.78,0,0,1,.75-4.45c4.51-6,8.91-12.08,13.34-18.14.49-.67.91-1.38,1.36-2.08.59-.5,1-1.09-.18-1.19a17.28,17.28,0,0,0-3,.2,25,25,0,0,0-6.47,0A17.57,17.57,0,0,0,67,88Z"/><path class="cls-1" d="M40.28,92.75l2.1-5.67.3-.53L43,85.44,44.57,82c3.36-.71,5,.8,5.77,4a52,52,0,0,0,2.6,6.65,42.35,42.35,0,0,0,2.72,7.29q2.27,7.07,5.2,13.88c-.52,1.08-1.6.39-2.35.74-3.32.57-5-1.23-5.49-4.18-.52-3.12-2.35-3.8-5.11-3.43-1.28.17-2.58.13-3.88.19-1.7-.54-2.78-.08-3.26,1.77-.43,1.68-1.09,3.29-1.65,4.93-.46.58-1.15.56-1.78.71-1.63-.54-3.52.65-5-.73a22.46,22.46,0,0,0,2.26-6.09c1.39-2.47,2.07-5.22,3.07-7.84L38,98.81a24.83,24.83,0,0,0,2.11-5.59l0-.16.2-.11Zm9.24,8.17-3-7.69-2.84,7.69Z"/><path class="cls-1" d="M113.7,82.1A11.5,11.5,0,0,0,115.29,86a38.9,38.9,0,0,0,2.89,7.73,18.24,18.24,0,0,0,1.82,5l.49,1.14.15.58.29.63a25.57,25.57,0,0,0,2.29,6l2.34,6.67c-1.36,1.29-3.08.18-4.56.71a2.3,2.3,0,0,1-2.23-1.28c-.41-1.3-.89-2.59-1.22-3.91-.52-2.08-1.71-2.9-3.8-2.22-7-.66-7-.7-9.53,5.78-.85,2.22-2.55,1.21-3.88,1.64l-2.9-.19c.06-2.82,2.07-5,2.38-7.79a123.63,123.63,0,0,0,5-13.33c1-2.48,2-5,3-7.44C109.4,81.76,109.38,81.75,113.7,82.1Zm.6,18.77c-1.11-2.43-1.43-4.91-3-7-.37,1-.66,1.75-1,2.52C108.22,101.43,108.22,101.43,114.3,100.87Z"/><path class="cls-1" d="M161.18,112.7c-1.65-1-3-2.36-5-2.82,0-.33,0-.67,0-1,1.35-.13,1.77-1.23,2.3-2.22,1.6-2.38,2.89-.09,4.31.28q6.58,3.79,11.56-.2c1.89-2.2,1.71-3.75-.67-5a7.56,7.56,0,0,0-3.64-1.19l-.15-.05-.11-.19-.2,0c-1.24-.3-2.49-.59-3.73-.91-4.3-1.13-8.26-2.93-9.11-7.79s2.35-7.44,6-9.59a24.24,24.24,0,0,1,6.7-1.18,33.84,33.84,0,0,1,7.2,2.4c.49,1,2.66.85,1.86,2.72a7.29,7.29,0,0,0-1.82,2.85c-1.21,1.28-2,0-2.84-.53-3.26-1.87-6.55-2.62-9.92-.38-2.34,1.56-2.23,3.58.23,4.91A16.44,16.44,0,0,0,169,94.36c4.5.9,8.82,2.19,11.64,6.24a12,12,0,0,1,.67,6c-2,5.06-6.25,7-11.2,7.92a28.61,28.61,0,0,1-7.46-1.18A1.65,1.65,0,0,0,161.18,112.7Z"/><path class="cls-1" d="M16.69,87.25l-1.16.06-1,.31c-4.72.78-7.12,4-8.22,8.26-.93,3.61,1.13,8.23,4.33,10.4a10.81,10.81,0,0,0,12.15.32l.71-.45c.66-.27,1.27-.28,1.68.43,3,4.09,3,4.09-.65,6.67l-1.08.15a32.63,32.63,0,0,1-6.71,1.16,18.87,18.87,0,0,1-12.95-6.29A17.64,17.64,0,0,1,.63,92.69,20,20,0,0,1,9.48,82.63l6.67-1.78A31.63,31.63,0,0,1,23.38,82c1,.55,2.08,1.07,3.08,1.68.83.5,1.88,1,1,2.28-1,1.23-2,2.47-3.08,3.71a.69.69,0,0,0-.4-.06l-1-.73A8.94,8.94,0,0,0,16.69,87.25Z"/><path class="cls-1" d="M132,82.11l3-.25c2.32-.28,3.41.59,2.92,3a3.71,3.71,0,0,0,.09,1.09V99.91q0,3.6,0,7.22c-.38,1.66.87,1.28,1.7,1.3q3.9.07,7.8,0c5.73,0,5.73,0,4.89,5.89l-3.45.18H134.94c-2.59.37-3.12-.86-3.08-3.28C132,101.55,132,91.83,132,82.11Z"/><path class="cls-2" d="M441.67,125l6.72-1.93c0,.73-.07,1.47,0,2.19.15,1.91-.72,2.67-2.59,2.55-1.37-.08-2.74,0-4.11,0h0C441.68,126.84,441.68,125.91,441.67,125Z"/><path class="cls-2" d="M439.56,125.58l1-.4Z"/><path class="cls-2" d="M437.8,126.1l.44-.14A.56.56,0,0,1,437.8,126.1Z"/><path class="cls-2" d="M427.76,128.89l.44-.14A.6.6,0,0,1,427.76,128.89Z"/><path class="cls-2" d="M352.54,89.06q-2,11.5-4,23c-.18,1,.05,2.32-1.68,2.36-1.29,0-1.89-.24-1.63-1.7q2.63-14.64,5.18-29.31c.13-.74.26-1.41,1.31-1.45s1.61.63,2.07,1.49q5.5,10.16,11,20.29a11,11,0,0,0,2.59,3.42q2-11.57,4-23.12c.17-1,0-2.07,1.61-2.09,1.4,0,2,.2,1.7,1.82-1.76,9.58-3.42,19.17-5.14,28.76-.14.76-.06,1.73-1.26,1.86s-1.6-.59-2.07-1.45Q360.63,102.55,355,92.19c-.6-1.11-1.22-2.21-1.83-3.32Z"/><path class="cls-2" d="M198.55,103.23c0-1.73,1.51-4.57,4-6.81a3,3,0,0,0,1.14-3.49c-.9-3.57.48-6.63,3.33-8.87a8.23,8.23,0,0,1,8.63-1.43,6.49,6.49,0,0,1,4,6.4c0,.71.14,1.67-1,1.5-.81-.11-2,.27-2.05-1.23,0-2.25-.95-3.77-3.31-4.06a5.81,5.81,0,0,0-5.85,3c-1.19,1.87-1.47,3.84.17,5.63,1.39,1.51.78,2.37-.74,3.22-3,1.69-5,4.14-5.24,7.71a5.71,5.71,0,0,0,5.73,6.46,10,10,0,0,0,9.48-6.87c.43-1.58.24-2.58-1.76-2.22-2.26.4-4.48.91-4.94,3.66-.28,1.71-1.62,1.48-2.56,1.29-1.37-.27-.72-1.51-.52-2.27.91-3.34,3.29-5.06,6.6-5.54a25.29,25.29,0,0,1,3.89-.2c1.64,0,3-.27,3.24-2.22.16-1.59,1.35-1.38,2.27-1.31,1.51.11,1,1.35.82,2.15s-.43,1.86-1,2.22c-2.38,1.48-2.63,3.94-3.44,6.25-2.09,5.89-9.1,9.55-14.58,7.8C200.7,112.68,198.44,109.46,198.55,103.23Z"/><path class="cls-2" d="M419,82H422c7.5.06,11.3,6.66,7.54,13.12a8.35,8.35,0,0,1-3.15,3.47c-1.84.92-1.95,1.88-1.09,3.64,1.54,3.16,2.83,6.45,4.14,9.71.29.73,1.49,1.81.31,2.31s-2.73.67-3.46-1.21c-1.07-2.76-2.26-5.48-3.54-8.16-.65-1.37-.68-3.55-2.35-3.82a38.33,38.33,0,0,0-7.5,0c-.86,0-.73.93-.84,1.54-.57,3.2-1.2,6.38-1.68,9.59-.22,1.45-.49,2.54-2.32,2.26-2.05-.32-.94-1.78-.8-2.59,1.55-9.32,3.26-18.63,4.82-28,.26-1.55.93-2,2.39-1.88S417.48,82,419,82Zm-1,15.72a8.46,8.46,0,0,0,9.13-4.57c2.11-3.93.05-7.73-4.31-8-2-.14-4.09,0-6.13-.07-1.16,0-1.66.41-1.82,1.56-.29,2.21-.71,4.4-1.08,6.6C413,97.72,413,97.72,418,97.72Z"/><path class="cls-2" d="M301.65,82h3.07c7.48,0,11.17,6.16,7.76,12.83A8.81,8.81,0,0,1,309,98.72c-1.81,1-1.65,2-.92,3.53q2.18,4.65,4.06,9.44c.31.8,1.59,2,.33,2.58a2.42,2.42,0,0,1-3.53-1.55c-1.13-3-2.7-5.92-3.79-9-.83-2.3-2.11-3-4.53-2.9-5.43.2-5.44.06-6.37,5.3l-1.05,6c-.23,1.34-.5,2.53-2.37,2.24-2.12-.34-.91-1.77-.78-2.56,1.55-9.24,3.27-18.45,4.78-27.69.3-1.79.93-2.37,2.65-2.21A41.61,41.61,0,0,0,301.65,82Zm-1.43,15.72c5.81,0,9-1.86,10.12-5.9.83-3-.44-5.81-3.19-6.43-2.91-.66-6.22-1.09-8.76,0-1.79.8-1.1,4.2-1.68,6.4-.11.44-.11.92-.19,1.38C295.76,97.72,295.75,97.72,300.22,97.72Z"/><path class="cls-2" d="M389.94,114.47c-2.32,0-4.65-.15-7,0s-2.38-.69-2-2.54q2.6-14,5-27.93c.25-1.42.68-2.07,2.27-2,4.83.1,9.66,0,14.49.06.74,0,2.06-.6,1.91,1.12-.11,1.18-.28,2.09-1.91,2-3.9-.11-7.8,0-11.7-.06-1.42,0-2.19.27-2.38,1.9a64.17,64.17,0,0,1-1.34,7.38c-.41,1.69-.11,2.33,1.78,2.25,3.15-.14,6.32,0,9.47,0,.81,0,1.86-.18,1.61,1.19-.16.92,0,2.07-1.63,2-3.34-.1-6.69.06-10-.07-1.63-.06-2.35.42-2.56,2.07a63.35,63.35,0,0,1-1.26,7.39c-.47,1.91.27,2.18,1.91,2.14,3.71-.09,7.43,0,11.14,0,.74,0,1.84-.36,1.65,1.12-.14,1,0,2-1.61,2C395.15,114.4,392.54,114.47,389.94,114.47Z"/><path class="cls-2" d="M256.63,114.12c4.72-8.55,9.38-17,14-25.38,1-1.87,2.1-3.71,3.08-5.6a1.88,1.88,0,0,1,2-1.14c1.2.07,1.18,1,1.34,1.77,1.89,9.44,3.79,18.88,5.62,28.33.14.74,1.23,2.08-.73,2.31-1.29.15-2-.21-2.3-1.64-.51-2.13,0-5-1.77-6.21s-4.53,0-6.78-.43c-5.1-.9-8.27,1.05-9.8,5.92C260.65,114.16,259.21,115,256.63,114.12Zm9.63-11c3.69,0,6.74,0,9.79,0,.76,0,1.82.26,1.52-1.19-.93-4.43-1.84-8.87-2.9-14C271.7,93.31,269.09,98,266.26,103.14Z"/><path class="cls-2" d="M450.8,82a13.4,13.4,0,0,1,8.27,2.85c.8.59,1.5,1,.62,2.18s-1.45,1.1-2.48.29a10.85,10.85,0,0,0-11.28-1.59,8.51,8.51,0,0,0-3.77,2.75c-1.72,2.2-1.29,4.45,1.14,5.84a16.89,16.89,0,0,0,5.24,1.81,19.14,19.14,0,0,1,7.28,2.61,6.36,6.36,0,0,1,2.37,8.7c-3.05,6.24-12.45,8.82-19.48,5.29a28.21,28.21,0,0,1-3.48-2.29c-.66-.47-1.13-1.06-.27-1.79.59-.5,1.05-1.43,2.07-.64.66.51,1.34,1,2,1.45a12.52,12.52,0,0,0,14.79-.79c3.37-3,3-6.11-1-8.14a20.27,20.27,0,0,0-5.59-1.63,19.84,19.84,0,0,1-4.75-1.54c-4.78-2.27-5.72-7-2.18-11C443.13,83.26,446.74,82.08,450.8,82Z"/><path class="cls-2" d="M248.26,82c1.39,0,2.78,0,4.17,0a8,8,0,0,1,7.66,10.39,11.53,11.53,0,0,1-10.79,8.51c-1,0-2,0-3.06,0-4.61,0-4.6,0-5.33,4.64-.38,2.38-.89,4.75-1.13,7.14-.17,1.77-1.22,1.87-2.5,1.69-1.62-.23-.81-1.42-.68-2.16,1.57-8.94,3.35-17.84,4.71-26.81.43-2.85,1.43-3.86,4.17-3.44A18.41,18.41,0,0,0,248.26,82Zm1.05,3.06c-1.12,0-2.23,0-3.34,0-.85,0-1.45.24-1.61,1.16q-.88,5.06-1.78,10.13c-.16.89,0,1.41,1.08,1.38a67,67,0,0,0,7-.13,7.84,7.84,0,0,0,6.58-8.08c-.29-3.26-2.15-4.44-7.05-4.45Z"/><path class="cls-2" d="M331.45,82c3.34,0,6.68,0,10,0,.65,0,1.9-.55,1.62,1-.17,1,0,2.08-1.63,2-2.13-.09-4.29.16-6.4-.07s-2.87.75-3.19,2.68c-1.28,7.77-2.65,15.52-4,23.28-.13.73-.32,1.45-.4,2.19-.18,1.77-1.52,1.35-2.52,1.25-1.48-.15-.68-1.21-.56-1.91,1.4-8.22,2.69-16.46,4.32-24.63.52-2.64-.31-3-2.54-2.83a21.35,21.35,0,0,1-4.45,0c-.95-.11-2.61.91-2.68-1.17S320.61,82,322,82Z"/><path class="cls-2" d="M461.21,75.37a.58.58,0,0,1,.44.12l-.25.06Z"/><path class="cls-2" d="M439,69.22a.52.52,0,0,1,.34.09l-.2.09Z"/><path class="cls-2" d="M114.3,100.87c-6.08.56-6.08.56-4-4.52.31-.77.6-1.55,1-2.52C112.87,96,113.19,98.44,114.3,100.87Z"/><path class="cls-1" d="M418,97.72c-5,0-5,0-4.21-4.52.37-2.2.79-4.39,1.08-6.6.16-1.15.66-1.6,1.82-1.56,2,.07,4.09-.07,6.13.07,4.36.31,6.42,4.11,4.31,8A8.46,8.46,0,0,1,418,97.72Z"/><path class="cls-1" d="M300.22,97.72c-4.47,0-4.46,0-3.7-4.51.08-.46.08-.94.19-1.38.58-2.2-.11-5.6,1.68-6.4,2.54-1.13,5.85-.7,8.76,0,2.75.62,4,3.4,3.19,6.43C309.22,95.86,306,97.72,300.22,97.72Z"/><path class="cls-1" d="M266.26,103.14c2.83-5.13,5.44-9.83,8.41-15.2,1.06,5.13,2,9.57,2.9,14,.3,1.45-.76,1.18-1.52,1.19C273,103.15,270,103.14,266.26,103.14Z"/><path class="cls-1" d="M249.31,85.06h.83c4.9,0,6.76,1.19,7.05,4.45a7.84,7.84,0,0,1-6.58,8.08,67,67,0,0,1-7,.13c-1.06,0-1.24-.49-1.08-1.38q.9-5.07,1.78-10.13c.16-.92.76-1.17,1.61-1.16C247.08,85.08,248.19,85.06,249.31,85.06Z"/></g></g></svg>