<svg xmlns="http://www.w3.org/2000/svg" viewBox="0 0 518 143.13"><defs><style>.cls-1{fill:#54595b;}.cls-2{fill:#d0222e;}.cls-3{fill:#fcf9f9;}.cls-4{fill:#cb212c;}.cls-5{fill:#4b4e50;}.cls-6{fill:#231f20;}</style></defs><title>Cofina</title><g id="Calque_2" data-name="Calque 2"><g id="Calque_1-2" data-name="Calque 1"><path class="cls-1" d="M91,139.17c-28.39,0-56.77,0-85.16.18-4.66,0-5.87-1.67-5.85-6.07Q.18,69.63,0,6C0,1.45,1.45,0,6,.06,34.36.27,62.75.24,91.14.28c-1,1.12-2,2.28-3,3.37C67.76,25.37,58.92,51,62.05,80.65c2.45,23.11,12.86,42.21,29,58.52"/><path class="cls-2" d="M139,1c.16,2.15.44,4.29.44,6.45q0,62.6,0,125.2c0,2.15,1.29,4.79-1.34,6.48-11.46-4.09-22.31-9.23-31-18-19.67-20-26.58-43.71-18.9-70.7C95.49,24.48,112.8,8,139,1"/><path class="cls-3" d="M139,1C112.8,8,95.49,24.48,88.14,50.35c-7.68,27-.77,50.72,18.9,70.7,8.67,8.82,19.52,14,31,18l-47,.07c-16.1-16.31-26.51-35.42-29-58.51-3.13-29.7,5.71-55.29,26.09-77,1-1.09,2-2.24,3-3.37C107.07.49,123-.85,139,1"/><path class="cls-4" d="M503.06,92.93c-9,7.53-18.65,11.37-30.15,9-16.21-3.4-28.14-18.8-26.41-34.29,2.1-18.72,16.29-31.07,34.78-30.27a32.34,32.34,0,0,1,30.89,31.51c.22,7.76.25,15.56-.08,23.32-.12,2.84,2.4,7.21-3.66,7.88-5.62.62-4.47-3.7-5.37-7.11M455.25,70.09c.06,13.6,10.8,24,24.55,23.87a24.16,24.16,0,1,0-24.55-23.87"/><path class="cls-4" d="M286.49,37.31C304.92,37.23,319.86,52,319.62,70c-.23,17.79-15.11,32.62-32.83,32.72a33.11,33.11,0,0,1-33-33.07,32.34,32.34,0,0,1,32.66-32.38M310.79,70A24.18,24.18,0,1,0,286.29,94,23.85,23.85,0,0,0,310.79,70"/><path class="cls-4" d="M222.72,37.29c7.67.1,17,4.71,23.46,14.49,1.21,1.84,4,4.43,1.86,6a7.15,7.15,0,0,1-8.47-.75c-1.14-1-1.9-2.37-2.94-3.45-9.64-10.25-25.1-10.64-34.81-.9a24.24,24.24,0,1,0,35.43,33.05c.72-.81,1.24-1.8,2-2.58a6.57,6.57,0,0,1,8.37-1c2.69,1.77-.38,4.17-1.52,5.92-8.52,13.09-25.45,18-40.11,11.91-13.7-5.73-22.19-21.15-19.47-35.33,3.16-16.46,15.85-27.21,36.23-27.35"/><path class="cls-4" d="M387.2,70.32c0-8.44,0-16.89.05-25.33,0-1.58-.73-3.83,1.62-4.36,2-.45,5.19-1.29,5.93.63,1.24,3.2,2.09,1.92,3.87.8,18.42-11.46,40.65-.48,41.85,20.91.6,10.8,0,21.66.17,32.48,0,3.35-1.16,4.54-4.53,4.58s-4.47-1.28-4.42-4.58c.15-10,.1-19.92,0-29.88-.07-11.24-7.82-19.73-18-19.84S395.42,54.67,395.4,66c0,9.53,0,19,.09,28.58,0,3,.14,5.5-4.23,5.43s-4.07-2.83-4.06-5.69Z"/><path class="cls-4" d="M355.85,25.55c-1.56.79-2.86-.46-4.31-.58-6.07-.53-9.37,2.33-9.46,8.51-.1,6.7.23,13.42-.12,20.11-.22,4.41,1.48,5.61,5.6,5.4,2.38-.12,5.39-1.29,7.16,1.34a4.52,4.52,0,0,1-4.55,7c-7.25-.92-8.75,2.31-8.22,8.7.49,6,.07,12.1.11,18.16,0,3.12.42,5.85-4.4,5.91-5.14.09-4.81-2.81-4.77-6.21.08-7.36-.05-14.71.06-22.06,0-2.8-.5-4.7-3.86-4.36-3.1.33-4.17-1.13-4.11-4.17,0-2.8.56-4.76,3.9-4.39,3.8.44,4.11-1.83,4.07-4.8-.11-7.12-.23-14.28,0-21.4.34-9.14,6.22-15.3,14.74-16s9.19.08,8.13,8.81"/><path class="cls-4" d="M374.57,70.5c0,8.22-.06,16.45,0,24.68.05,3-.39,4.86-4.14,4.87s-4.83-1.43-4.81-5c.13-16.67.16-33.35,0-50,0-3.78,1.37-4.74,4.94-4.78,3.9-.06,4,2,4,4.91-.08,8.44,0,16.89,0,25.34"/><path class="cls-2" d="M163.52.48V139.05h-.85V.32l.85.16"/><path class="cls-4" d="M375.2,21.56c-.43,2.92-1.85,4.87-5,4.78-3-.08-4.78-1.58-4.78-4.82s1.76-4.67,4.81-4.74c3.22-.07,4.55,1.94,5,4.78"/><path class="cls-5" d="M189,136.2c.11.34.22.68.34,1l-1-.37c.21-.21.43-.44.66-.65"/><path class="cls-6" d="M204.42,134.75a7.83,7.83,0,0,1-5.74,2.26,9.23,9.23,0,0,1-3.59-.65,6.7,6.7,0,0,1-2.54-1.77,7.58,7.58,0,0,1-1.44-2.49,8.57,8.57,0,0,1-.49-2.92,8.66,8.66,0,0,1,.5-3,8.41,8.41,0,0,1,1.46-2.55,6.58,6.58,0,0,1,2.54-1.82,8.86,8.86,0,0,1,3.56-.68,7.6,7.6,0,0,1,5.59,2.31l-1.63,1.58a5.41,5.41,0,0,0-4-1.58,5.27,5.27,0,0,0-4.2,1.68,5.79,5.79,0,0,0-1.44,4,5.87,5.87,0,0,0,1.44,3.93,5.26,5.26,0,0,0,4.2,1.63,5.62,5.62,0,0,0,2.18-.44,5.23,5.23,0,0,0,1.87-1.22Z"/><path class="cls-6" d="M215.14,127.33a5.46,5.46,0,0,1,1.57,4,5.53,5.53,0,0,1-1.54,4,5.39,5.39,0,0,1-4.06,1.58,5.32,5.32,0,0,1-4-1.58,6,6,0,0,1,0-8,5.84,5.84,0,0,1,8,0m-6.42,1.49a3.63,3.63,0,0,0-.9,2.51,3.57,3.57,0,0,0,.89,2.49,3.38,3.38,0,0,0,4.82,0,3.59,3.59,0,0,0,.91-2.49,3.65,3.65,0,0,0-.94-2.5,3.1,3.1,0,0,0-2.39-1,3.06,3.06,0,0,0-2.39,1"/><path class="cls-6" d="M226.46,136.71v-5.92a3.18,3.18,0,0,0-.68-2.09,2.22,2.22,0,0,0-1.83-.84,2.36,2.36,0,0,0-1.88.85,3.14,3.14,0,0,0-.73,2.08v5.92H219.1V125.92h2.1l.14,1.44a2.78,2.78,0,0,1,1.26-1.23,4.09,4.09,0,0,1,1.77-.39,3.27,3.27,0,0,1,3.38,2.16,3.91,3.91,0,0,1,3.68-2.14,4.34,4.34,0,0,1,3.4,1.31,5.32,5.32,0,0,1,1.18,3.68v6h-2.28v-6a3.33,3.33,0,0,0-.6-2.08,2.14,2.14,0,0,0-1.77-.79,2.37,2.37,0,0,0-1.91.85,3,3,0,0,0-.72,2.06v5.92Z"/><path class="cls-6" d="M238.93,141.71V125.94H241l.13,1.75a4,4,0,0,1,1.64-1.45,4.73,4.73,0,0,1,2.17-.53,5.33,5.33,0,0,1,3.92,1.6,5.56,5.56,0,0,1,1.52,4,5.65,5.65,0,0,1-1.49,4,5.16,5.16,0,0,1-4,1.57,5.28,5.28,0,0,1-2.17-.45,3.45,3.45,0,0,1-1.64-1.36v6.57Zm8.27-7.91a3.33,3.33,0,0,0,1-2.47,3.4,3.4,0,0,0-.94-2.47,3.34,3.34,0,0,0-2.47-1,3.21,3.21,0,0,0-2.46,1,3.65,3.65,0,0,0,0,4.9,3.3,3.3,0,0,0,2.43,1,3.25,3.25,0,0,0,2.44-1"/><path class="cls-6" d="M261.48,125.94h2.18v10.77h-2.14l-.1-1.75a3.43,3.43,0,0,1-1.57,1.51,4.77,4.77,0,0,1-2.15.53,5.45,5.45,0,0,1-4-1.49,5.62,5.62,0,0,1-1.55-4.19,5.42,5.42,0,0,1,1.58-4.12,5.6,5.6,0,0,1,4-1.5,4.63,4.63,0,0,1,2.17.52,3.64,3.64,0,0,1,1.51,1.42Zm-6.05,2.79a3.83,3.83,0,0,0,0,5.18,3.39,3.39,0,0,0,2.49,1,3.65,3.65,0,0,0,1.71-.39,2.76,2.76,0,0,0,1.14-1,4.68,4.68,0,0,0,.57-1.38,3.25,3.25,0,0,0,0-1.52,4.52,4.52,0,0,0-.57-1.39,2.67,2.67,0,0,0-1.14-1,3.54,3.54,0,0,0-1.71-.4,3.38,3.38,0,0,0-2.49,1"/><path class="cls-6" d="M276,124.92l1.65,1.26-1.29,1.51a5,5,0,0,1,1.31,3.33,4.52,4.52,0,0,1-.72,2.56,4.33,4.33,0,0,1-2.14,1.64c1.89.65,2.84,1.81,2.84,3.52a3.68,3.68,0,0,1-1.72,3.24,7.15,7.15,0,0,1-4.06,1.15,6.35,6.35,0,0,1-4.2-1.28,4.11,4.11,0,0,1-1.48-3.5h2.26a2.06,2.06,0,0,0,1,1.89,4.44,4.44,0,0,0,2.45.71,4.85,4.85,0,0,0,2.41-.57,1.77,1.77,0,0,0,1-1.64,1.94,1.94,0,0,0-.92-1.73,4.48,4.48,0,0,0-2.46-.61,6,6,0,0,1-4.24-1.44,5,5,0,0,1-1.59-3.94,4.91,4.91,0,0,1,1.73-4,6.23,6.23,0,0,1,4.1-1.43,5.06,5.06,0,0,1,2.91.75Zm-6.6,3.65a3,3,0,0,0-1,2.45,3.06,3.06,0,0,0,1,2.44,3.75,3.75,0,0,0,2.54.87,3.5,3.5,0,0,0,2.5-.93,3.36,3.36,0,0,0,0-4.8,3.63,3.63,0,0,0-2.48-.89,3.83,3.83,0,0,0-2.52.86"/><path class="cls-6" d="M288.32,136.71v-5.77a3.3,3.3,0,0,0-.76-2.27,2.77,2.77,0,0,0-2.14-.83,2.8,2.8,0,0,0-2.16.94,3.28,3.28,0,0,0-.85,2.29v5.64h-2.26V125.92h2.06l.13,1.57a4.7,4.7,0,0,1,3.62-1.73,4.39,4.39,0,0,1,3.34,1.38,5.3,5.3,0,0,1,1.3,3.78v5.79Z"/><path class="cls-6" d="M293.92,121.55a1.47,1.47,0,0,1,1.41,0,1.26,1.26,0,0,1,.7,1.22,1.3,1.3,0,0,1-.7,1.24,1.53,1.53,0,0,1-1.41,0,1.31,1.31,0,0,1-.7-1.24,1.27,1.27,0,0,1,.7-1.22m-.43,15.16h2.25V125.9h-2.25Z"/><path class="cls-6" d="M300.49,132.16a2.85,2.85,0,0,0,1.09,2,3.87,3.87,0,0,0,2.42.74,5,5,0,0,0,1.76-.31,3.34,3.34,0,0,0,1.37-.84l1.46,1.42a5.44,5.44,0,0,1-2.06,1.35A7.19,7.19,0,0,1,304,137a5.8,5.8,0,0,1-4.23-1.56,5.52,5.52,0,0,1-1.58-4.15,5.44,5.44,0,0,1,1.57-4,5.52,5.52,0,0,1,4.09-1.57,5.4,5.4,0,0,1,4.21,1.65,6.05,6.05,0,0,1,1.2,4.85Zm6.57-1.89a2.53,2.53,0,0,0-.95-1.93,3.91,3.91,0,0,0-4.41,0,3.14,3.14,0,0,0-1.17,1.93Z"/><polygon class="cls-6" points="317.36 136.71 317.36 121.44 328.17 121.44 328.17 123.82 319.8 123.82 319.8 128.48 327.75 128.48 327.75 130.75 319.8 130.75 319.8 136.71 317.36 136.71"/><path class="cls-6" d="M331,121.55a1.45,1.45,0,0,1,1.4,0,1.26,1.26,0,0,1,.7,1.22,1.3,1.3,0,0,1-.7,1.24,1.51,1.51,0,0,1-1.4,0,1.3,1.3,0,0,1-.7-1.24,1.26,1.26,0,0,1,.7-1.22m-.43,15.16h2.24V125.9h-2.24Z"/><path class="cls-6" d="M344,136.71v-5.77a3.26,3.26,0,0,0-.77-2.27,3.06,3.06,0,0,0-4.3.11,3.29,3.29,0,0,0-.86,2.29v5.64h-2.24V125.92h2.05l.13,1.57a4.7,4.7,0,0,1,3.62-1.73,4.37,4.37,0,0,1,3.34,1.38,5.3,5.3,0,0,1,1.3,3.78v5.79Z"/><path class="cls-6" d="M357.84,125.94H360v10.77h-2.14l-.12-1.75a3.36,3.36,0,0,1-1.56,1.51,4.81,4.81,0,0,1-2.15.53,5.45,5.45,0,0,1-4-1.49,5.58,5.58,0,0,1-1.55-4.19,5.39,5.39,0,0,1,1.59-4.12,5.56,5.56,0,0,1,4-1.5,4.59,4.59,0,0,1,2.16.52,3.53,3.53,0,0,1,1.51,1.42Zm-6,2.79a3.58,3.58,0,0,0,2.49,6.17,3.72,3.72,0,0,0,1.72-.39,2.92,2.92,0,0,0,1.13-1,5.28,5.28,0,0,0,.57-1.38,3.25,3.25,0,0,0,0-1.52,5.08,5.08,0,0,0-.57-1.39,2.83,2.83,0,0,0-1.13-1,3.61,3.61,0,0,0-1.72-.4,3.4,3.4,0,0,0-2.49,1"/><path class="cls-6" d="M371.26,136.71v-5.77a3.3,3.3,0,0,0-.76-2.27,2.77,2.77,0,0,0-2.14-.83,2.8,2.8,0,0,0-2.16.94,3.28,3.28,0,0,0-.85,2.29v5.64h-2.26V125.92h2.05l.14,1.57a4.7,4.7,0,0,1,3.62-1.73,4.39,4.39,0,0,1,3.34,1.38,5.3,5.3,0,0,1,1.29,3.78v5.79Z"/><path class="cls-6" d="M385.54,135.31a5.62,5.62,0,0,1-4.09,1.69,5.74,5.74,0,0,1-4.05-1.49,6.15,6.15,0,0,1,0-8.34,5.69,5.69,0,0,1,4.05-1.49,5.38,5.38,0,0,1,3.9,1.59l-1.45,1.51a3.58,3.58,0,0,0-4.89,0,3.41,3.41,0,0,0-1,2.55,3.31,3.31,0,0,0,1,2.55,3.69,3.69,0,0,0,5-.09Z"/><path class="cls-6" d="M388,121.55a1.45,1.45,0,0,1,1.4,0,1.24,1.24,0,0,1,.7,1.22,1.28,1.28,0,0,1-.7,1.24,1.51,1.51,0,0,1-1.4,0,1.3,1.3,0,0,1-.7-1.24,1.26,1.26,0,0,1,.7-1.22m-.44,15.16h2.26V125.9h-2.26Z"/><path class="cls-6" d="M394.55,132.16a2.86,2.86,0,0,0,1.1,2,3.85,3.85,0,0,0,2.42.74,4.94,4.94,0,0,0,1.75-.31,3.34,3.34,0,0,0,1.37-.84l1.46,1.42a5.36,5.36,0,0,1-2.06,1.35A7.15,7.15,0,0,1,398,137a5.78,5.78,0,0,1-4.22-1.56,5.67,5.67,0,0,1,4.07-9.77,5.4,5.4,0,0,1,4.21,1.66,6.09,6.09,0,0,1,1.21,4.85Zm6.57-1.89a2.56,2.56,0,0,0-.95-1.93,3.91,3.91,0,0,0-4.41,0,3.08,3.08,0,0,0-1.16,1.93Zm-5.94-8.9h2.71l1.62,2.95v.11h-2l-2.3-3Z"/><path class="cls-6" d="M407.68,125.94l.16,1.42A3.34,3.34,0,0,1,411,125.7a3.86,3.86,0,0,1,2.66.92l-1,2a2.86,2.86,0,0,0-1.89-.66,3,3,0,0,0-2.08.76,2.83,2.83,0,0,0-.83,2.18v5.84H405.6V125.94Z"/><path class="cls-6" d="M416.59,132.16a2.79,2.79,0,0,0,1.1,2,3.83,3.83,0,0,0,2.42.74,4.94,4.94,0,0,0,1.75-.31,3.4,3.4,0,0,0,1.37-.84l1.46,1.42a5.36,5.36,0,0,1-2.06,1.35,7.23,7.23,0,0,1-2.57.49,5.82,5.82,0,0,1-4.23-1.56,5.52,5.52,0,0,1-1.58-4.15,5.44,5.44,0,0,1,1.57-4,5.52,5.52,0,0,1,4.08-1.57,5.42,5.42,0,0,1,4.22,1.65,6.05,6.05,0,0,1,1.2,4.85Zm6.57-1.89a2.56,2.56,0,0,0-1-1.93,3.54,3.54,0,0,0-2.24-.68,3.58,3.58,0,0,0-2.18.68,3.17,3.17,0,0,0-1.16,1.93Z"/><path class="cls-6" d="M443.38,133.5H435.1l-1.44,3.21h-2.6l6.86-15.29h2.67l6.85,15.29h-2.6ZM439.25,124,436,131.27h6.47Z"/><path class="cls-6" d="M451.27,125.94l.16,1.42a3.34,3.34,0,0,1,3.17-1.66,3.9,3.9,0,0,1,2.67.92l-1,2a2.86,2.86,0,0,0-1.89-.66,3,3,0,0,0-2.08.76,2.83,2.83,0,0,0-.83,2.18v5.84h-2.24V125.94Z"/><path class="cls-6" d="M459.24,121.55a1.45,1.45,0,0,1,1.4,0,1.25,1.25,0,0,1,.69,1.22,1.29,1.29,0,0,1-.69,1.24,1.51,1.51,0,0,1-1.4,0,1.29,1.29,0,0,1-.71-1.24,1.25,1.25,0,0,1,.71-1.22m-.44,15.16h2.25V125.9H458.8Z"/><path class="cls-6" d="M473.22,135.31a5.61,5.61,0,0,1-4.08,1.69,5.79,5.79,0,0,1-4.07-1.49,6.21,6.21,0,0,1,0-8.34,5.74,5.74,0,0,1,4.07-1.49,5.34,5.34,0,0,1,3.88,1.59l-1.44,1.51a3.58,3.58,0,0,0-4.89,0,3.42,3.42,0,0,0-1,2.55,3.31,3.31,0,0,0,1,2.55,3.71,3.71,0,0,0,5-.09Z"/><path class="cls-6" d="M483.63,125.94h2.18v10.77h-2.14l-.11-1.75a3.46,3.46,0,0,1-1.56,1.51,4.81,4.81,0,0,1-2.15.53,5.43,5.43,0,0,1-4-1.49,5.58,5.58,0,0,1-1.55-4.19,5.42,5.42,0,0,1,1.58-4.12,5.59,5.59,0,0,1,4-1.5,4.59,4.59,0,0,1,2.16.52,3.59,3.59,0,0,1,1.51,1.42Zm-6.06,2.79a3.58,3.58,0,0,0,2.49,6.17,3.72,3.72,0,0,0,1.72-.39,2.79,2.79,0,0,0,1.13-1,4.68,4.68,0,0,0,.57-1.38,3.25,3.25,0,0,0,0-1.52,4.52,4.52,0,0,0-.57-1.39,2.7,2.7,0,0,0-1.13-1,3.61,3.61,0,0,0-1.72-.4,3.4,3.4,0,0,0-2.49,1"/><path class="cls-6" d="M489.31,121.55a1.45,1.45,0,0,1,1.4,0,1.23,1.23,0,0,1,.7,1.22,1.26,1.26,0,0,1-.7,1.24,1.51,1.51,0,0,1-1.4,0,1.29,1.29,0,0,1-.69-1.24,1.25,1.25,0,0,1,.69-1.22m-.43,15.16h2.25V125.9h-2.25Z"/><path class="cls-6" d="M502.36,136.71v-5.77a3.3,3.3,0,0,0-.76-2.27,3.06,3.06,0,0,0-4.3.11,3.25,3.25,0,0,0-.86,2.29v5.64H494.2V125.92h2l.13,1.57a4.72,4.72,0,0,1,3.63-1.73,4.39,4.39,0,0,1,3.34,1.38,5.3,5.3,0,0,1,1.3,3.78v5.79Z"/><path class="cls-6" d="M509.21,132.16a2.82,2.82,0,0,0,1.1,2,3.85,3.85,0,0,0,2.42.74,4.9,4.9,0,0,0,1.75-.31,3.34,3.34,0,0,0,1.37-.84l1.47,1.42a5.48,5.48,0,0,1-2.07,1.35,7.15,7.15,0,0,1-2.57.49,5.8,5.8,0,0,1-4.22-1.56,5.66,5.66,0,0,1,4.07-9.76,5.4,5.4,0,0,1,4.21,1.65,6.05,6.05,0,0,1,1.21,4.85Zm6.57-1.89a2.56,2.56,0,0,0-.95-1.93,3.91,3.91,0,0,0-4.41,0,3.12,3.12,0,0,0-1.16,1.93Z"/></g></g></svg>