<svg xmlns="http://www.w3.org/2000/svg" viewBox="0 0 530 186.09"><defs><style>.cls-1{fill:#010602;}.cls-2{fill:#252122;}.cls-3{fill:#231f20;}.cls-4{fill:#029349;}.cls-5{fill:#02954a;}.cls-6{fill:#001d09;}.cls-7{fill:#038f47;}.cls-8{fill:#01974b;}.cls-9{fill:#ededed;}.cls-10{fill:#6f7173;}.cls-11{fill:#15994e;}.cls-12{fill:#294f90;}.cls-13{fill:#2b292a;}.cls-14{fill:#68686a;}.cls-15{fill:#373637;}.cls-16{fill:#d7dad7;}</style></defs><title>CSE</title><g id="Calque_2" data-name="Calque 2"><g id="Calque_1-2" data-name="Calque 1"><path class="cls-1" d="M323,117.37c0-.3.07-.59.1-.88-5.55-3-11.21-5.88-16.59-9.17A18.85,18.85,0,0,0,296,104.64q-97.45.1-194.9,0a39.91,39.91,0,0,0-4.24.06c-3.24.36-7.3,6.08-6.78,10.62.49,4.23,4.28,1.86,6.31,1.87q110.43.24,220.85.14ZM287.12,94.81c-9.28-5.27-18.49-10.08-29-10.13-50.47-.23-100.94-.11-151.42-.1-.88,0-1.76-.06-2.64,0-5.78.56-5.33,5.83-5.9,9.23-.65,3.91,3.5,2.31,5.5,2.31q89,.15,177.88,0c1.66,0,3.51.63,5.61-1.38M177.45,76.12c22.78,0,45.56-.08,68.33.08,4.07,0,6.07-1,5.46-5.32a4.54,4.54,0,0,1,.13-2.6c2.5-4.88-.34-4.89-4-4.88q-65.16.09-130.32.05c-10.15,0-8-.72-11.51,7.86-1.86,4.62-.28,4.88,3.6,4.87,22.78-.11,45.55-.06,68.33-.06m29.63-58.63c5.17,3.39,5.17,3.39,5.18,9.63,0,7,0,14.1,0,21.14,0,4.21,1.21,9.09-5.55,10.29,12.62.58,24.84.59,37.07.57a1.83,1.83,0,0,0,1.88-1.55c.57-3.6,2.24-7.08,1.69-11.89-2.26,2.82-3.72,5-5.51,6.81a15.54,15.54,0,0,1-16.15,4.08c-4.92-1.57-1.85-7.11-2.61-10.83a2.65,2.65,0,0,1,0-1.05c.44-1.87-1.24-4.71,1.69-5.41s5.44.71,7.29,3.23c1.22,1.66.7,4.14,3,5.77V26.59c-1.64,3.36-2.4,5.48-3.63,7.27a6.25,6.25,0,0,1-7,2.63c-2.36-.7-1.26-3.32-1.36-5.13-.14-2.63-.06-5.28,0-7.92.05-1.44.39-2.7,2-3.39,5.6-2.45,14.59,1,17.2,6.63.43.94,0,2.67,2.55,2.58a62.91,62.91,0,0,1,0-7.14c.44-3.78-1.08-4.89-4.75-4.71-5.45.28-10.94.08-16.41.08ZM168.77,61.21c3-3.51,5.3-3.3,8-2.43a23,23,0,0,0,10.95,1c7.49-1.25,12.65-5.5,13.52-11.35.83-5.52-2.46-10.05-9.71-13.48-4-1.88-8-3.68-11.87-5.71A5.09,5.09,0,0,1,176.9,24c.24-2.57,1.8-4.08,4.12-5,4.92-1.88,10.63.61,14.33,6.19,1,1.45,1.15,3.57,3.69,4.63.19-4.74.69-8.9-.5-14.15-2.4,3.45-5,2.69-7.55,1.87a26.76,26.76,0,0,0-9.42-.76c-6.11.25-10.68,3.82-12,9.22S170.11,35.74,176,39c4.13,2.33,8.53,4.16,12.77,6.32,2.67,1.34,4.71,3.25,4.15,6.61s-3,5-6.11,5.75c-5.53,1.27-11.64-2.24-14.49-8.19-.77-1.59-.74-3.73-3.22-4.87-.87,5.25-.44,10.05-.28,16.55m-7-45c-2.94,4-6,3.21-9.27,2a25.28,25.28,0,0,0-12-1.26c-9,1-16.42,4.94-19.59,13.81-2.81,7.83-2.34,15.68,3.85,22.16,7.94,8.31,23,9.92,32.65,3.45,2.11-1.43,6.3-3.17,4.8-5.48-1.38-2.13-3.45,2.16-5.61,2.95s-4.07,2.18-6.23,2.8c-8.14,2.36-15-1-17.39-8.48a32.72,32.72,0,0,1,.45-21.25c2.61-7.21,9-9.89,16.2-7,3.94,1.57,6.63,4.51,9,7.86.81,1.14.93,3.21,3.4,2.9a64.92,64.92,0,0,0-.28-14.43m134.9,6c-13.87,0-26.69.06-39.5,0-4.64,0-3.78,3.15-3.76,5.81s-1,5.95,3.7,5.87c7.2-.1,14.48-.62,21.61.14,9.07,1,13.24-4.48,17.95-11.78M279.16,43.67c-.13-.44-.25-.88-.39-1.32-7.31,0-14.67-.42-21.95.13-5.55.42-2.91,5.36-3.42,8.42-.47,2.84.87,4,3.88,4.14,9.75.4,15.19-6.53,21.88-11.37"/><path class="cls-2" d="M375.24,0c.42,2.75,2.95,2.28,4.59,2.7,25.77,6.48,44.37,22.14,57.74,44.55,4.36,7.32,4.44,14.68-.09,21.91-15.21,24.28-35.9,41.31-64.39,47.63-20.9,4.64-40.14-.74-58.36-10.8a139.15,139.15,0,0,1-19-12.33c-9.2-7.26-20.43-10.16-31.08-14.28a15.56,15.56,0,0,1-5.77-3.57c-3.14-3.2-3.17-6.29-.24-9.74,4.44-5.24,10.54-8.16,16.08-11.87,10.73-7.2,17.63-18.1,26.18-27.37,10.27-11.12,21.9-19.68,36.37-24.26,1.54-.49,3.78-.06,4.08-2.57ZM303.82,59.29a52.11,52.11,0,0,0,104.22,0c0-28.61-23.52-51.88-52.4-51.81a52.06,52.06,0,0,0-51.82,51.85"/><path class="cls-3" d="M322.24,0c1.44,1.2,1.32,2.06-.36,3.07-5,3-10.05,5.82-14.36,9.8-1.4,1.29-3.35.85-5.1.85q-84.93,0-169.88,0c-5.83,0-6.09-.49-3.9-6.08,1-2.46,2-4.91,1.74-7.64Z"/><path class="cls-4" d="M427.18,186.09c-2.42-2.14-6-4-1.57-7.61.68-.54.4-1.22-.12-1.79-2.8-3-1-5.11,1.45-6.95,1.63-1.22,1.4-1.91-.12-3.09-2.79-2.17-3.73-5.18-2.33-8.46,1.47-3.47,4.64-4.89,8.14-4.81,4.13.1,8.23.84,13.79,1.47-3.41,1.61-3.95,3.19-3.35,5.8,1,4.09-1.31,6.71-5.37,7.59-1.89.4-3.84.46-5.74.78a2,2,0,0,0-1.87,2.13c.11,1,1.1,1.32,2,1.39,2.1.17,4.23.09,6.32.33,3,.35,6.11.88,6.86,4.59.67,3.42-1,5.72-3.83,7.37a10.44,10.44,0,0,0-1.5,1.26Zm7.93-7.42h-3.47c-1.65,0-3.32.14-3.55,2.21-.25,2.23,1.35,3,3.21,3.31a8.39,8.39,0,0,0,3.08.4c2.67-.64,7.11.33,6.94-3.68-.14-3.51-4.19-1.76-6.21-2.24m-4.74-17.37c.29,2.32-.19,5.53,3.2,5.61,4,.11,3.16-3.46,3.24-5.87.09-2.56.34-6.12-3.24-6s-2.95,3.67-3.2,6.25"/><path class="cls-4" d="M0,154.37c2.46-2.68,3.64-6.38,6.91-8.44,4.88-3.09,10-4.26,15.57-2.16,2.49.95,4.86,2,7.41-1.71.24,4.83.71,8.39-.29,12.24-2.07-2.61-3.64-5.19-5.77-7.17-5.23-4.82-12.12-2.85-14.09,4a28.83,28.83,0,0,0-.61,14.61c2.06,9.05,9,11.64,16.7,6.38,1.34-.92,2.1-2.91,4.25-2.63-3.08,9.28-20.49,10.76-27.47.29-.85-1.25-.92-3.06-2.61-3.73Z"/><path class="cls-5" d="M525.71,172.33c1.46.07,2.82.38,1.2,2-2.14,2.16-4.95,2.62-7.86,2.23-5.56-.71-8.64-5.45-8.3-12.69.29-6.2,4.11-10.41,9.55-10.61s7.52,3.57,9.7,7.42v3.18l-1,.26-10.6.1c-1.42.65-1,1.49-.27,2.38.28,4.16,1.71,7.09,6.67,6.32l.94-.62m-2-12.53c-.07-2.35-.32-4.88-3-4.85-2.87,0-3.08,2.81-3.35,5.07s.94,2.66,2.83,2.68c2.18,0,3.92-.26,3.49-2.9"/><path class="cls-4" d="M472.69,153.61c2.61,1.71,5.25,2.35,8.45-.72,0,9.21.11,17.38-.05,25.54-.06,2.89.28,5.46,2.27,7.66H470.65c4.63-4.15,5.36-7.56,2.42-11.3-.2-.22-.38-.43-.56-.67,3.68-5.17,3.12-16-1-19.65.41-.28.8-.58,1.2-.86"/><path class="cls-6" d="M529,164.15l1-.26v1.05l-1-.79"/><path class="cls-3" d="M323,117.37h-5.74q-110.41,0-220.85-.14c-2,0-5.83,2.36-6.31-1.87-.52-4.54,3.54-10.26,6.78-10.63,1.4-.14,2.83,0,4.24,0q97.45,0,194.9,0a18.94,18.94,0,0,1,10.49,2.68c5.37,3.3,11,6.13,16.59,9.17,0,.29-.06.58-.1.88"/><path class="cls-3" d="M287.12,94.81c-2.09,2-3.94,1.39-5.6,1.39q-88.95,0-177.89-.06c-2,0-6.15,1.61-5.5-2.31.57-3.4.12-8.67,5.9-9.22a26,26,0,0,1,2.65,0c50.47,0,100.94-.14,151.42.09,10.53,0,19.74,4.86,29,10.13"/><path class="cls-3" d="M177.45,76.13c-22.78,0-45.56-.06-68.33.05-3.88,0-5.47-.25-3.6-4.87,3.47-8.58,1.36-7.86,11.52-7.87q65.15,0,130.3,0c3.68,0,6.53,0,4,4.87a4.61,4.61,0,0,0-.13,2.62c.62,4.3-1.4,5.34-5.45,5.31-22.78-.16-45.56-.07-68.34-.07"/><path class="cls-4" d="M207.08,17.49h16.67c5.47,0,11,.2,16.41-.08,3.67-.18,5.19.93,4.75,4.7a63,63,0,0,0,0,7.14c-2.52.09-2.12-1.62-2.55-2.56-2.61-5.62-11.6-9.08-17.2-6.64-1.59.69-1.93,2-2,3.39-.09,2.65-.17,5.29,0,7.93.1,1.79-1,4.43,1.36,5.12a6.25,6.25,0,0,0,7-2.63c1.23-1.79,2-3.91,3.63-7.26V48.29c-2.31-1.64-1.79-4.12-3-5.78-1.85-2.52-4.34-3.93-7.29-3.24s-1.25,3.55-1.69,5.41a2.7,2.7,0,0,0,0,1.06c.76,3.72-2.31,9.26,2.61,10.83a15.5,15.5,0,0,0,16.15-4.08c1.79-1.83,3.25-4,5.51-6.81.55,4.81-1.12,8.29-1.69,11.89a1.82,1.82,0,0,1-1.88,1.54c-12.23,0-24.45,0-37.07-.56,6.76-1.19,5.54-6.08,5.55-10.29,0-7,0-14.09,0-21.14,0-6.25,0-6.25-5.18-9.63"/><path class="cls-5" d="M168.77,61.21c-.16-6.5-.59-11.3.28-16.55,2.48,1.14,2.45,3.28,3.22,4.87,2.85,5.95,9,9.46,14.5,8.19,3.13-.73,5.54-2.34,6.1-5.76s-1.48-5.26-4.16-6.6c-4.22-2.16-8.62-4-12.75-6.32-5.85-3.3-7.81-7.6-6.43-13s5.93-9,12-9.22a26.31,26.31,0,0,1,9.42.77c2.53.81,5.15,1.57,7.55-1.88,1.19,5.25.69,9.41.5,14.15-2.54-1.06-2.73-3.18-3.69-4.63C191.66,19.6,186,17.11,181,19c-2.34.88-3.89,2.39-4.13,5a5.09,5.09,0,0,0,2.8,5.27c3.9,2,7.91,3.83,11.87,5.71,7.26,3.43,10.54,8,9.72,13.49-.88,5.84-6,10.09-13.54,11.34a23,23,0,0,1-10.94-1c-2.74-.87-5.05-1.08-8,2.43"/><path class="cls-5" d="M161.74,16.21A64.9,64.9,0,0,1,162,30.64c-2.48.31-2.6-1.76-3.4-2.9-2.39-3.35-5.08-6.29-9-7.86-7.19-2.87-13.6-.19-16.21,7A32.59,32.59,0,0,0,133,48.14c2.35,7.53,9.23,10.85,17.37,8.49,2.17-.62,4.1-2,6.24-2.8s4.23-5.08,5.61-2.95c1.5,2.3-2.7,4-4.8,5.48-9.62,6.47-24.7,4.86-32.65-3.45-6.19-6.47-6.66-14.33-3.86-22.15C124.05,21.89,131.48,18,140.47,17a25.16,25.16,0,0,1,12,1.25c3.23,1.23,6.33,2.05,9.27-2"/><path class="cls-7" d="M341,152.72c-2.41-5.39-6.23-7.63-11.68-7.75-2.93-.07-4.28,1.06-4.12,4,.08,1.4-.14,2.84.05,4.21.25,1.76-1.14,4.43,1.33,5,2.74.65,4.54-1.29,5.41-3.93.26-.77.7-1.47,1.67-3.51V167c-1.46-.65-1.33-2.05-1.81-3.08-1-2.13-2.51-3.63-4.87-3.23-2.92.48-1.86,3.15-1.65,4.72.41,3-2.29,7.48,2.21,8.71a10.89,10.89,0,0,0,12.15-4.43c.79-1.11,1.49-2.28,2.38-3.63,1.08,8.76,0,10.1-8,10.14-6.81,0-13.63,0-20.89,0,5.5-4.82,5.62-28.56,0-32.61,8.67,0,16.7,0,24.72,0,2.25,0,3.23.88,3.16,3.1-.07,2,0,4,0,6"/><path class="cls-3" d="M296.64,22.21c-4.71,7.31-8.88,12.74-18,11.77-7.12-.75-14.4-.24-21.59-.12-4.68.07-3.68-3.25-3.71-5.87s-.88-5.86,3.77-5.82c12.8.11,25.61,0,39.49,0"/><path class="cls-5" d="M160.85,155.82c-1-4.51,1.76-8.85-3-11.59.22-.19.42-.53.63-.55,8.87-.35,8.87-.35,8.87,8.32,0,5.27,0,10.54,0,15.81,0,2.57-.31,5.21,2.39,7-5.25,2.18-10.45-.1-15.38,1.74-2.41.9-4.69-1-6.34-3-3.69-4.47-3.29-13.44.82-17.57,3.5-3.53,7.37-3.45,12-.16m0,8.79c-.33-3,1.38-8.21-3.88-8.29-5-.06-4.28,5.07-4.27,8.61s-1,8.73,4,8.79,4.2-5,4.19-9.11"/><path class="cls-4" d="M300.22,176h-10c3.13-6.1,1.36-12.4,1.57-18.54a2.22,2.22,0,0,0-2.39-2.31c-1.85,0-2.74,1.29-3.38,2.85-2.52,6.16-5.07,12.3-7.85,19-3.3-3.53-3.85-7.8-5.62-11.43s-2.67-7.94-6.33-11.51h11.66c-3.46,4.63,1.25,7.68,2.19,11.62,1.39-3.71,6-6.65,1.91-11.92,4.94,0,9.52,0,14.1,0,2.45,0,2.88,1.32,2.84,3.37-.08,4.23-.05,8.45,0,12.67,0,2-.47,4.21,1.34,6.23"/><path class="cls-5" d="M224.75,152.56c-2.71-2.33-3.57-5.38-6.29-7-3.19-1.9-6.51-2.47-8.77,1.17s.47,5.52,3.19,7.08c2.44,1.41,5,2.56,7.5,3.89,4.64,2.49,6.59,6.49,5.26,11.47s-5.09,7.06-10.24,7.6c-3.74.4-7.08-2.3-10.87-.84-1.3.51-1.07-1-1.09-1.71-.08-2.87,0-5.75,0-9,2.35,1.15,2.11,3,2.81,4.3,1.59,3,3.92,5.05,7.28,5.53,2.84.4,5.23-.63,6.42-3.48s-.28-4.81-2.52-6.2c-2.84-1.74-5.93-3.09-8.77-4.84-4.2-2.61-6.09-6.31-4.45-11.23s5.11-6.67,10.14-6.75c3.1,0,5.93,2.53,9.22.61,1-.61,1.18.91,1.19,1.7.05,2.55,0,5.12,0,7.68"/><path class="cls-4" d="M64.52,176.05H54.13c3-7.39,2.71-14.59.31-22.13,2.49.38,5.6-1.63,8.17,1.38,1.12,1.31,1.69-.27,2.46-.64,6.6-3.2,10.48-.89,11,6.41.39,4.89-1.34,10,1.72,14.9H67.71c2.45-5.58,1.09-11.31,1.19-16.94a2.18,2.18,0,0,0-2.32-2.36c-1.73.05-3.47,1.18-3.55,2.64-.31,5.44-1.64,11,1.49,16.74"/><path class="cls-4" d="M510.49,174.45c-6.43,2.6-11.55.29-16.6,2-3.9,1.31-6.73-1.52-7-5.77-.24-3.5-.05-7-.09-10.54,0-2,.25-4.17-2.37-5.46,8.75-2.13,9.27-1.73,9.28,6.41,0,3,0,6,0,8.95,0,1.44.22,2.92,2,3.27a3.73,3.73,0,0,0,4.07-1.82c1.59-2.51.19-14.87-1.94-17.31,1.85-.93,3.79-.2,5.65-.4,2.55-.29,3.39,1,3.31,3.42-.15,3.67-.06,7.38,0,11.06,0,2.42-.58,5.07,3.71,6.2"/><path class="cls-5" d="M375.49,176.68c-6.24-.1-10.9-5.23-10.75-11.87s5-11.64,11.19-11.53,10.88,5.33,10.74,11.95-4.88,11.55-11.18,11.45m4.13-11.57c-.2-2.31-.28-4.75-.68-7.14a3.24,3.24,0,0,0-3.19-3,3.3,3.3,0,0,0-3.25,2.93,40.68,40.68,0,0,0-.05,14.05c.3,1.71,1.4,3.39,3.54,3.25,1.83-.12,2.72-1.64,3-3.22.4-2.21.44-4.49.64-6.89"/><path class="cls-4" d="M422,165.75c-.21,6.6-4.67,11.05-11,10.94-6.63-.1-10.8-5-10.53-12.41.24-6.65,4.66-11.1,10.95-11,6.48.08,10.79,5.18,10.56,12.47m-14.77-.64a17.81,17.81,0,0,0,1.06,7.76c.59,1.35,1.56,2.48,3.16,2.35a3.26,3.26,0,0,0,2.88-2.71,30.44,30.44,0,0,0-.05-15.11,3.1,3.1,0,0,0-3-2.55,3.21,3.21,0,0,0-3.06,2.47,20.16,20.16,0,0,0-1,7.79"/><path class="cls-3" d="M279.16,43.67C272.47,48.51,267,55.44,257.28,55c-3-.13-4.35-1.3-3.88-4.14.51-3.06-2.13-8,3.42-8.42,7.28-.55,14.64-.13,21.95-.13.14.44.26.88.39,1.32"/><path class="cls-5" d="M190.42,170.63c-3.64,5.47-7.39,7.18-12.08,5.73s-7.27-6-6.94-12.25c.27-5.53,3.19-9.66,7.8-10.6,4.2-.84,7.67.53,9.82,4.37,2.55,4.57,1.59,5.91-3.6,6.22-2.38.14-5.8-1.65-6.94,1.47-.78,2.15.57,4.88,2.6,6.52,3.07,2.5,5.52.76,7.84-1.44.16-.16.62,0,1.5,0m-6-10.87c-.16-2.61-.6-5-3.28-4.81-2.48.2-2.84,2.63-3.07,4.79-.26,2.42,1,2.91,3.1,3,2.47.06,3.65-.8,3.25-3"/><path class="cls-5" d="M132.63,170.72c-2,4.82-5.82,6.81-10.74,5.73-4.77-1-7.46-4.36-7.61-9.43-.13-3.91-.19-7.74,2.91-10.8,5.14-5.08,13.18-3.31,15.29,3.35,1.05,3.31.39,4.7-3.45,4.56-2.6-.09-6.25-1.61-7.71,1.14-1.16,2.19.51,5.1,2.68,6.9,3.4,2.81,5.74-.21,8.63-1.45m-5.34-10.6c-.29-3-.65-5.4-3.38-5.16-2.52.21-2.82,2.65-3,4.81-.27,2.43,1,2.89,3.11,2.94,2.5.06,3.64-.83,3.32-2.59"/><path class="cls-4" d="M50.48,172.68c-2,3.54-4.83,4.13-7.94,4-5.7-.28-9.61-5.17-9.5-11.79s4.31-11.48,9.87-11.56a8.33,8.33,0,0,1,8.35,5.28c1.41,3.28,1.59,5.46-3.32,5.66-2.44.1-7.48-3.15-7.43,2.9,0,4.79,3.32,6.43,10,5.54M40,160.47c-.14.8.22,2.29,2.74,2.18,1.67-.08,3.8.48,3.75-2.26-.05-2.26-.11-5-2.89-5.4s-3.14,2.13-3.6,5.48"/><path class="cls-8" d="M399.61,176H389c1.71-10.72,1.37-21.38.23-32.1,7.38-.71,7.39-.71,7.39,6.82,0,5.95,0,11.92,0,17.88,0,2.41-.28,4.87,3,7.4"/><path class="cls-4" d="M362.65,172.46c-4.44,4.59-9.31,5.4-13.34,2.79-4.38-2.84-6.17-9.21-4.1-14.61,2-5.24,6.69-8.09,12.06-7.3a7.66,7.66,0,0,1,5.07,2.55c.89,1.11,1.51,2.43.59,3.88-.69,1.07-1.56,2-3,1.85a3,3,0,0,1-2.66-2.83c-.21-1.69.2-3.93-2.5-3.65-2.05.21-2.58,2-3.13,3.8a14.45,14.45,0,0,0,.58,9.82c1.93,4.83,5.51,6,10.39,3.7"/><path class="cls-5" d="M92.77,154c-1,2.93-4.82,1-4.63,4.23.26,4.53-1,9.23.68,13.55,1.26,3.34,3-.3,4.57-.48-1.63,4.34-3.87,5.89-7.49,5.25-3.93-.67-4-3.58-4.31-6.72-.53-4.85,2-10.09-1.76-14.59-.2-.24.26-1.29.67-1.74,2.17-2.46,4.42-4.84,6.93-7.56,1.89,3.12-2.09,9.38,5.34,8.06"/><path class="cls-7" d="M105,157.84c-1.73,6-2.48,12,.95,18.14-3.28.54-7.13.25-10.67.08a39,39,0,0,0,0-22c3.21-.46,6.79-1.34,9.58,2.3l.15,1.51"/><path class="cls-7" d="M457,176.22H447c2.43-7.45,2.15-14.57.44-21.8,7.48-2,8.21-1.51,8.21,6.36,0,2.63-.09,5.26,0,7.89.12,2.33-.93,5,1.31,7.55"/><path class="cls-4" d="M243.83,174.34a35.57,35.57,0,0,1-3.78,1.84c-5,1.82-8.87-.54-9.35-5.8a89.29,89.29,0,0,1-.14-9c0-2.58.27-5.16-2.38-7.18,9.17-1.06,9.17-1.06,9.17,7.23,0,2.29,0,4.57,0,6.85.12,5.35.7,5.73,6,4.09.15.64.32,1.29.48,1.93"/><path class="cls-5" d="M243.83,174.34c-.16-.64-.33-1.29-.48-1.93.5-6,1.77-12.15-1.06-18,8.22-1.75,8.25-1.57,8.49,7,.13,4.51-1.61,9.36,2.12,13.37-2,1.05-4,.66-5.86.72l-2.91,0c-.11-.39-.2-.78-.3-1.17"/><path class="cls-8" d="M265,176H254.7c2.55-3.4,1.87-7.15,1.75-10.77s1.14-7.56-1.63-10.85c8.34-1.27,8.19-1.26,8.4,6.69.13,4.92-1.25,10,1.74,14.93"/><path class="cls-5" d="M472.69,153.61c-.4.28-.79.58-1.2.86-5.51,2.8-7.1,15.21-2.43,19a3.8,3.8,0,0,0,3.45.69c.18.24.36.45.56.67-5.22,3.25-9.55,2.21-12.15-3a13.56,13.56,0,0,1,.68-14.05c2.53-4,6.51-5.12,11.09-4.14"/><path class="cls-4" d="M105,157.84l-.15-1.51a5.57,5.57,0,0,1,4.11-3,3.76,3.76,0,0,1,4.43,2,3.37,3.37,0,0,1-.55,3.93c-1.59,1.64-3.23,1-4.59-.39-.94-.94-1.88-1.57-3.25-1.1"/><path class="cls-4" d="M263.73,146.35c-.39,2.08-1.39,3.68-3.67,3.75s-3.58-1.28-3.63-3.55,1.13-3.7,3.43-3.77,3.35,1.53,3.87,3.57"/><path class="cls-7" d="M295.33,150.18c-2.22-.33-3.64-1.63-3.58-3.81a3.48,3.48,0,0,1,3.74-3.59c2.3,0,3.5,1.51,3.46,3.76s-1.37,3.46-3.62,3.64"/><path class="cls-8" d="M451.93,142.74c2.24.21,3.64,1.44,3.76,3.59a3.6,3.6,0,1,1-7.2.27c-.11-2.2,1.33-3.41,3.44-3.86"/><path class="cls-4" d="M52.2,171.21a7.45,7.45,0,0,1-1.08,1c-.08,0-.44-.32-.67-.49.32-.37.62-.76,1-1.1a5.71,5.71,0,0,1,.78.62"/><path class="cls-4" d="M244.13,175.51l2.91,0c-1,.58-2,1.89-2.91,0"/><path class="cls-6" d="M518.1,166.63c-.76-.88-1.14-1.73.27-2.37l-.27,2.37"/><path class="cls-6" d="M525.71,172.34l-.94.61.94-.61"/><path class="cls-9" d="M303.82,59.29A52.06,52.06,0,0,1,355.64,7.44c28.88-.07,52.41,23.2,52.4,51.81a52.11,52.11,0,0,1-104.22,0m69.68-6a.83.83,0,0,0,.67-.48l4.28-.12.91.61c.33.52.65,1.06,1,1.58-.32,3.13-2,5.59-4.95,6.16-3.6.72-2.82,2.83-2.67,5.15,1-4.42,5.22-4.08,8-5.28,2.21-1,2.57-.13,1.81-2.84,4.14-2.31,8.05-7.31,12.76-.39.8,1.17,3.07.84.76,2.85-1.1,1-.13,1.34.91,1,2.5-.79,2.52,1,2.68,2.57.11,1.18-.4,2.65,1.75,3.52-.82-9.39-2.21-18.22-1.45-28.1-3.68,4.18-.82,9.72-5.12,12.65-.66-1.15-1.32-2.33-2-3.51.33-3.33-1.39-6.86,1.12-10l4.37-2.31c-2.42-.86-4.1-.59-5.26,1.41-2.81,1.06-5.53-2.59-8.38-.19,6.35,1.5,6.57,2,4.76,10.75a.49.49,0,0,0-.13.76c-1.41-.42-2,.66-2.64,1.51-3.38-2.34-6.6-5.06-11-5.16-1.15,0-2.28,1.76-3.34.5-1.2-1.43.54-2.49,1.09-3.66.45-1,1.17-1.78,1.53-2.76,1.26-3.35,2.66-2.58,4.19-.23.46.7.78,1.63,2.39,1.1-3.37-6.27-.06-7.73,6-7.15-3.3-.85-6.32-.33-9-1.61-1-5.65,5.3-3.89,6.94-7.14-2.42-.75-2.73-4.24-6.81-5.5,2.89,3.68,3.18,5.9-.76,7.36-2.07.76-2.73,3-2.91,5.21-.26.37-.52.76-.79,1.13-.51.59-1,1.18-1.52,1.76l.06-.12c-.55.54-1.09,1.06-1.64,1.58l0,.05-2.38,1.87.1-.13a2.84,2.84,0,0,0-.87.06c-1.43-3.53-1.72-7.35.15-10.52,2.07-3.52,7.11-1.36,11-4.42-4.11.63-3.7-3-6.41-4.72.67,2.93.64,4.77-2.46,4.89-2.54.1-3.58-1.14-4-3.18a19.19,19.19,0,0,1-.07-3.64c.42-.34.52-.69.09-1.08-.18.2-.34.41-.52.62-3,3-5.71,2.9-6.94-1.41-1.18-4.16-3.72-2.93-6.4-2.38,3.11.67,5,2.64,4.78,5.54s-3.14.7-5,1c1.63,2.28,3.17,2.73,5.31,1.87,2.35-.94,3.72.81,4.58,2.53,1.08,2.12-.5,3.71-1.89,5-1.93,1.82-2.64-1.21-3.62-1.21-4.55,0-5.77-2.92-6.68-6.47-.23-.89-1.4-1.64-2.07-1.14-2.52,1.91-3.15-1.59-4.95-1.8-.11,2.81-.42,5.36,3.65,4.68,1.79-.3,2.16,1.38,2.4,2.84s.15,3.64.88,3.95c4.57,2,1.43,4,.76,7.61-2.59-4.89-6.46-6.13-8.91-9-.74-4.12-3.13-7.94-2.11-12.59-1.53,2.57-2,6.11-6.62,4.62,3.06,2.2,6.3,3.72,5.07,7.94a.86.86,0,0,0-.78.2c-1.85.49-3.7,2.28-5.48-.26-.67-1-1.74-.83-1.15.49,1,2.22-2.46,2.49-1.46,4.9,2.65.3,5.19-3.2,8.09-1h0c.73,1.88.25,3.79.1,5.68-.09,1-2.76,1.06-1.11,2.66a3,3,0,0,0,2.38.67c1.45-.32,1.48-1.6,1.54-2.91.07-1.7-.9-4.2,2.41-4,1,4,.95,8.4,3.69,11.93.76,1,1.28,2.27.1,3.31-1.43,1.26-2.66.29-3.62-.77-2.56-2.82-5.73-5.24-9.42-5.16-3.39.06-3.79-1.51-4.15-3.88-.24-1.59-.46-3.2-.7-4.79l-1.42,0c.91,5.26.38,10.47-.43,16.23,2.89-1.36,1.33-5.62,4.7-4.91,1.62.34,4.06.7,3.73,3.49-2,.19-3.43,1.29-5,2.46-2.47,1.83-5,.76-5.48-2.15-.73-4.85-2.82-9.91.6-14.64.58-1.58-.39-2.7-1.54-3.86v3.79C322,36,321.62,38.62,319,38.36A4.8,4.8,0,0,0,314,40.05c1.64,1.06,2.84,0,4.06,0,2.64,1.78,1.88,4.76,2.44,7.22.45,1.91,1.45,4.47-1.31,5.47-2.95,1.08-4.1-1.23-4.74-4-2.28,4.68-2.11,5,2.12,5.73,1.58.25,3.52.73,3.36,2.6s-1.63,2.54-3.47,1.45c-1.17-.72-1.9.55-2.89.72-.31.05-.73.72-.71,1.08s.75,1.07.78,1.05c2.74-1.89,8.35,1.63,8.79-4.88.19-2.74,2.35-2.44,4.25-1,2.16,1.56,3.93,3.87,7.19,3.84-2-5.45-1.73-5.81,3.77-5.45.53,0,1.05.12,1.58.19h0l1.88,1.46-.21-.06c.51.46,1,.94,1.49,1.41,2.21.74,3.57,2.32,3.12,4.6-.7,3.48-.28,7.18-2.1,10.43l-.87.82c-4.07,1-5.42-1.7-6.6-4.7-.85-2.11-1.55-4.58-4.4-4.54a95,95,0,0,1-17.26-1c-1-.17-3.28-.16-2.35,1.49,2.6,4.65-.57,8.9-.25,13.31l-.22,2.58c4,9.32,10.75,16.28,19.29,21.59,1.57,1,3,1.59,4.8.39,3.13-2.06,6.7-1.71,10.2-1.27-2.31,2.56-6.82,0-9,4.41,9.15,1.27,17.86,4.24,27.05,2.73A47.56,47.56,0,0,0,390.36,94l-4.28.33-1-.94c1.46-1.66,3.36-1.3,5.28-1.36,3.71-.14,7.43-5.61,6-8.5.29-1.79,3.49-1.09,3-3.3-.35-1.6-2.09-.33-3-1l-1.87-2.12c-.91-2.62,3-6.43-2-8-7.62-2.52-15.37,2.18-17.17,10.39l-4.28-.67q-.69-3-1.39-5.91c-.22-5.23-1.13-10.49.64-15.65l-.22.14c.37-.43.74-.87,1.12-1.3l-.09.14c.46-.7.91-1.4,1.36-2.1l-.18.16c.38-.42.77-.84,1.16-1.24Z"/><path class="cls-10" d="M337.07,27.6a.85.85,0,0,1,.78-.2l3.66,0c2.45,2.84,6.32,4.08,8.9,9,.68-3.66,3.82-5.65-.75-7.61-.73-.31-.65-2.58-.88-3.95s-.61-3.14-2.41-2.84c-4.06.68-3.75-1.87-3.63-4.68,1.79.21,2.42,3.71,4.94,1.8.67-.5,1.84.25,2.08,1.14.9,3.55,2.12,6.46,6.67,6.47,1,0,1.69,3,3.62,1.21,1.39-1.31,3-2.9,1.89-5-.87-1.72-2.22-3.47-4.58-2.53-2.14.86-3.68.41-5.31-1.87,1.88-.29,4.75,2,5-1s-1.68-4.87-4.8-5.54c2.69-.55,5.23-1.78,6.41,2.38,1.23,4.31,3.91,4.4,6.94,1.41l.44.46a17.67,17.67,0,0,0,.06,3.64c.45,2,1.49,3.28,4,3.17,3.11-.11,3.14-1.95,2.47-4.88,2.71,1.68,2.3,5.35,6.41,4.72-3.89,3.06-8.92.9-11,4.42-1.87,3.17-1.58,7-.14,10.52.33.62.63.58.86-.06l-.1.13A2,2,0,0,0,371,36l.05-.05c.89-.16,1.66-.44,1.62-1.58l-.05.12c1.19,0,1.41-.82,1.53-1.76.26-.37.52-.76.79-1.13l3.53.07c2.71,1.28,5.73.76,9,1.61-6.11-.58-9.42.88-6,7.15-1.63.53-1.95-.4-2.4-1.11-1.53-2.34-2.93-3.11-4.19.24-.37,1-1.08,1.81-1.52,2.76-.55,1.17-2.31,2.23-1.1,3.66,1.07,1.26,2.19-.53,3.34-.5,4.43.1,7.65,2.82,11,5.16a2.8,2.8,0,0,0,2.64-1.51.49.49,0,0,1,.13-.76c1.1.44,2.18,1.17,3.39.3l2,3.51c4.3-2.93,1.44-8.47,5.12-12.65-.76,9.88.62,18.71,1.46,28.1-2.16-.87-1.65-2.34-1.76-3.52-.16-1.62-.18-3.36-2.68-2.57-1,.32-2,0-.91-1,2.31-2,0-1.68-.76-2.85-4.72-6.92-8.62-1.92-12.76.39-.74-1.06-1.46-2.12-2.19-3.19l-1-1.58c-.1-.5-.21-1-.91-.61l-4.28.12c-.7-.5-.73-.07-.68.48v-.23c-.39.4-.78.82-1.17,1.24l.18-.16c-1.19.23-1.41,1.08-1.35,2.1l.09-.14-1.12,1.3.22-.14c-3.35,2.94-3.71,11.93-.64,15.65.46,2,.93,3.94,1.38,5.91-9.08,1.33-18.12.3-27.16-.54.16-2.2,1.45-4.5-.56-6.53,1.82-3.25,1.39-7,2.1-10.43.46-2.28-.91-3.86-3.12-4.6-.14-.83-.49-1.46-1.49-1.41l.21.06c-.16-1.06-1-1.34-1.88-1.46h0c-.21-1.76-1.43-2.13-2.92-2.14-1.91,0-1.64-1.26-1.42-2.48.33-2.79-2.11-3.15-3.72-3.49-3.38-.71-1.82,3.55-4.71,4.91.81-5.76,1.34-11,.43-16.23l1.42,0c.23,1.59.46,3.2.7,4.79.36,2.37.76,3.94,4.16,3.88,3.68-.08,6.85,2.34,9.42,5.16.94,1.06,2.18,2,3.61.77,1.19-1,.67-2.31-.11-3.31-2.73-3.53-2.64-7.9-3.68-11.93-.8-3.14-3.41-1.74-5.32-2.08h0Z"/><path class="cls-11" d="M343.93,78.3c9,.84,18.08,1.88,27.16.54l4.29.67c1.62,1.89,3.09.06,4.63-.19,1.16,1.33,2.14.34,3.14-.26,4.36,3.17,8.86-1.14,13.25.24.92.62,2.66-.65,3,1,.48,2.21-2.71,1.51-3,3.29l.1-.05c-3.24.15-6.31,1.55-9.67,1.15a3.45,3.45,0,0,0-4,2.2c-2.82,1.93-6.9.16-9.34,3.2-4.31-1.94-6.83,2.41-10.55,3-4.78.79-9.38,2.85-14.05,4.37l-3.16,3c-3.51-.44-7.07-.78-10.2,1.26-1.85,1.21-3.24.59-4.8-.37-8.55-5.33-15.24-12.28-19.28-21.6,5.3-2,10.49.08,15.73.41a4.39,4.39,0,0,0,3.7-.1c2.13-.82,4.62.74,6.63-1,1.33.35,2.57,2.33,4.08.26.78-.33,1.57-.68,2.36-1"/><path class="cls-12" d="M345.71,100.46l3.16-3c9.07.4,16.93-3.19,24.59-7.41,2.45-3,6.53-1.27,9.35-3.19,4.53-1.26,9.94,1.08,13.7-3.34l-.1,0c1.42,2.91-2.3,8.37-6,8.51-1.92.07-3.82-.29-5.28,1.36L383,94.71c1.11.69,2.14.75,3-.36l4.3-.32a47.78,47.78,0,0,1-26.63,13.57c-9.17,1.51-17.89-1.46-27-2.73,2.18-4.4,6.68-1.84,9-4.41"/><path class="cls-13" d="M341.57,79.33c-1.51,2.07-2.74.09-4.09-.26-1.24-2.43-2.93-4.38-5.93-3.33-2.37.85-1.21,2.75-.7,4.32a4.35,4.35,0,0,1-3.68.1c1.18-4,.15-5.44-4.46-6.22-4.23-.72-6.81-.11-9.13,3.16-.49.7-1.28.3-1.94.07-.32-4.41,2.84-8.66.25-13.31-.93-1.65,1.31-1.66,2.35-1.49a95,95,0,0,0,17.26,1c2.85,0,3.55,2.43,4.4,4.54,1.18,3,2.53,5.75,6.6,4.7-1.42,2.09-2.52,4.24-.93,6.74"/><path class="cls-14" d="M334.86,49.31c-.22,1.22-.49,2.47,1.41,2.48,1.5,0,2.72.38,2.93,2.13-.53-.06-1.05-.15-1.58-.18-5.5-.36-5.77,0-3.77,5.44-3.26,0-5-2.28-7.19-3.83-1.9-1.39-4.06-1.7-4.24,1-.45,6.51-6.06,3-8.8,4.88,0,0-.77-.67-.79-1.05a1.34,1.34,0,0,1,.72-1.08c1-.17,1.72-1.44,2.89-.73,1.84,1.1,3.32.28,3.47-1.43.16-1.88-1.79-2.36-3.37-2.61-4.22-.7-4.4-1.05-2.11-5.73.64,2.81,1.79,5.12,4.74,4,2.76-1,1.76-3.54,1.31-5.46-.56-2.46.19-5.44-2.43-7.21.33-.55.67-1.1,1-1.65,2.58.25,2.91-2.32,4.38-3.45L325,35c-3.42,4.73-1.32,9.79-.6,14.64.43,2.91,3,4,5.48,2.15,1.6-1.17,3-2.28,5-2.46"/><path class="cls-15" d="M380,79.32c-1.54.25-3,2.08-4.63.19,1.8-8.21,9.55-12.91,17.17-10.39,4.95,1.62,1.07,5.43,2,8-1.37,1.66-2.73.2-3.41-.46-2.82-2.75-4.94-1.14-7.14.73-1.73-.24-3.5-.53-4,1.88"/><path class="cls-16" d="M311.64,77.17c.67.23,1.45.63,1.94-.07,2.31-3.28,4.89-3.87,9.14-3.16,4.6.78,5.63,2.22,4.44,6.22-5.24-.33-10.43-2.42-15.73-.41Z"/><path class="cls-14" d="M378.5,31.69,375,31.63c.18-2.19.84-4.45,2.91-5.21,3.94-1.46,3.65-3.69.76-7.36,4.08,1.26,4.39,4.75,6.81,5.5-1.64,3.25-7.95,1.49-6.94,7.13"/><path class="cls-16" d="M384,77.44c2.21-1.87,4.32-3.48,7.14-.73.68.66,2.05,2.12,3.41.46l1.87,2.12c-4.4-1.37-8.88,2.95-13.25-.23.27-.54.55-1.08.83-1.62"/><path class="cls-14" d="M392.83,48.7c-1.22.87-2.3.15-3.4-.3,1.81-8.75,1.59-9.25-4.76-10.76,2.85-2.4,5.56,1.25,8.37.21l.89.9c-2.5,3.08-.77,6.63-1.1,10"/><path class="cls-14" d="M341.51,27.43c-1.22,0-2.44,0-3.66,0,1.23-4.22-2-5.74-5.07-7.94,4.6,1.5,5.09-2.05,6.62-4.62-1,4.65,1.37,8.47,2.11,12.59"/><path class="cls-14" d="M337.06,31.72c1.91.35,4.52-1,5.32,2.09-3.31-.18-2.34,2.32-2.41,4-.06,1.3-.09,2.59-1.54,2.91a3,3,0,0,1-2.38-.67c-1.65-1.61,1-1.66,1.11-2.66.15-1.89.63-3.81-.1-5.69"/><path class="cls-14" d="M380.33,54.9c.73,1.06,1.45,2.13,2.19,3.19.77,2.71.4,1.88-1.81,2.84-2.78,1.2-7,.86-8,5.28-.14-2.32-.92-4.43,2.68-5.15,2.91-.57,4.63-3,4.95-6.16"/><path class="cls-14" d="M337.07,27.6v4.13c-2.9-2.2-5.45,1.3-8.09,1-1-2.41,2.46-2.68,1.46-4.9-.58-1.32.48-1.45,1.15-.49,1.78,2.54,3.63.75,5.48.26"/><path class="cls-14" d="M369.71,72.93c-3.07-3.72-2.71-12.7.64-15.65-1.77,5.15-.86,10.42-.64,15.65"/><path class="cls-16" d="M341.57,79.33c-1.59-2.5-.49-4.65.93-6.74l.87-.82c2,2,.72,4.33.56,6.53l-2.36,1"/><path class="cls-10" d="M319,38.36,318,40c-1.22,0-2.42,1.09-4.06.05a4.76,4.76,0,0,1,5.06-1.7"/><path class="cls-14" d="M393.05,37.84c1.15-2,2.84-2.28,5.25-1.41l-4.37,2.32c-.3-.3-.59-.6-.88-.91"/><path class="cls-10" d="M325,35l-1.54-.08V31.11c1.15,1.18,2.12,2.28,1.54,3.87"/><path class="cls-14" d="M371,36a2,2,0,0,1-2.37,1.87L371,36"/><path class="cls-14" d="M339.19,53.93c.92.12,1.72.4,1.89,1.46l-1.89-1.46"/><path class="cls-14" d="M340.86,55.32c1,0,1.35.58,1.49,1.42l-1.49-1.42"/><path class="cls-14" d="M371.16,56.26c-.06-1,.16-1.88,1.35-2.1-.45.7-.89,1.4-1.35,2.1"/><path class="cls-14" d="M372.7,34.41c0,1.12-.73,1.4-1.63,1.57l1.63-1.57"/><path class="cls-14" d="M389.3,49.16a2.79,2.79,0,0,1-2.64,1.51c.68-.85,1.23-1.93,2.64-1.51"/><path class="cls-14" d="M374.17,32.76c-.11.93-.34,1.75-1.53,1.76.52-.59,1-1.17,1.53-1.76"/><path class="cls-10" d="M365.63,15.78c.17-.2.34-.42.52-.62.43.4.33.75-.08,1.08l-.44-.46"/><path class="cls-14" d="M372.34,54.32l1.15-1.25-1.15,1.25"/><path class="cls-14" d="M370.12,57.42c.38-.43.76-.86,1.13-1.31-.37.44-.75.88-1.13,1.31"/><path class="cls-14" d="M378.46,52.71c.7-.36.81.11.91.61l-.91-.61"/><path class="cls-14" d="M373.5,53.31c-.06-.55,0-1,.67-.48a.83.83,0,0,1-.67.48"/><path class="cls-14" d="M368.75,37.76c-.23.65-.53.7-.86.08a2.27,2.27,0,0,1,.86-.08"/><path class="cls-9" d="M373.47,90c-7.68,4.21-15.53,7.8-24.6,7.39,4.68-1.52,9.27-3.58,14.06-4.37,3.71-.61,6.23-5,10.54-3"/><path class="cls-16" d="M330.86,80.06c-.52-1.57-1.67-3.48.7-4.31,3-1.06,4.68.89,5.92,3.32-2,1.73-4.49.18-6.62,1"/><path class="cls-9" d="M396.51,83.5c-3.76,4.42-9.17,2.08-13.7,3.34.67-1.94,2.44-2.39,4-2.21,3.35.4,6.41-1,9.66-1.13"/><path class="cls-10" d="M384,77.44c-.28.54-.56,1.08-.83,1.62-1,.6-2,1.6-3.13.26.46-2.41,2.23-2.12,4-1.88"/><path class="cls-9" d="M386.07,94.35a2.06,2.06,0,0,1-3,.36l2.08-1.3.95.94"/></g></g></svg>