<svg xmlns="http://www.w3.org/2000/svg" viewBox="0 0 481.64 153.65"><defs><style>.cls-1{fill:#258b46;}.cls-2{fill:#515153;}.cls-3{fill:#439451;}.cls-4{fill:#d5ded3;}.cls-5{fill:#ecf3eb;}.cls-6{fill:#fefefe;}</style></defs><title>jokkolabs</title><g id="Calque_2" data-name="Calque 2"><g id="Calque_1-2" data-name="Calque 1"><path class="cls-1" d="M312.09,92.1c0,4.42.08,8.85,0,13.27-.17,7.88-5.78,13.39-13.6,13.43-5.5,0-11,0-16.52,0a13.87,13.87,0,0,1-13.8-13.22c-.2-4.58-.5-9.2.65-13.74,1.6-6.29,5.58-9.68,12.17-9.86,6.31-.17,12.64,0,19-.1,1.24,0,3.16.84,3.27-1.58.1-2.13.09-4.33-2.54-5a14.65,14.65,0,0,0-3.74-.42c-8.76,0-17.52-.08-26.27,0-2,0-2.69-.41-2.66-2.52.07-6.27,0-6.28,6.13-6.29,8.57,0,17.15,0,25.73,0,7.21,0,12,4.67,12.22,11.93C312.2,82.71,312.09,87.4,312.09,92.1Zm-22,18v0c2.34,0,4.69.05,7,0,4.09-.12,5.89-1.87,6.06-6,.11-2.52.09-5,0-7.57-.12-3.3-2-5.49-5.37-5.64-5.13-.23-10.28-.23-15.41,0-3.49.14-5.39,2.3-5.57,5.78-.12,2.43-.11,4.87,0,7.3.13,4.09,1.93,5.94,6,6.11C285.22,110.14,287.66,110.05,290.1,110.05Z"/><path class="cls-1" d="M324.38,77.7c0-8.94,0-17.89,0-26.83,0-1.79.35-2.51,2.37-2.49,6.53.06,6.53,0,6.52,6.48,0,3,.1,6,0,9-.08,1.83.62,2.31,2.35,2.29,6.42-.07,12.83-.1,19.25,0s10.84,3.11,12.48,8.46a17.21,17.21,0,0,1,.6,5.1c0,8.22-.16,16.45.06,24.66s-5.52,15-14.49,14.53c-4.78-.27-9.58,0-14.37,0-8.65,0-14.58-5.82-14.67-14.55s0-17.7,0-26.56Zm34.69,14.79h0c0-4.06.08-8.13,0-12.19-.1-3.56-1.87-5.35-5.41-5.43q-7.44-.16-14.9,0c-3.47.07-5.26,1.48-5.34,4.81-.2,8.3-.24,16.61,0,24.91.12,3.83,2.38,5.46,6.35,5.49,4.43,0,8.85,0,13.28,0,4.08,0,6-1.83,6-5.93C359.12,100.26,359.07,96.37,359.07,92.49Z"/><path class="cls-2" d="M190.25,92.08c0-4.52-.05-9,0-13.54.11-7.17,4.45-12,11.67-12.31,6.93-.31,13.91-.33,20.84,0,7.14.36,11.57,5.3,11.63,12.43q.12,13.39,0,26.8c-.06,7.53-5,12.85-12.57,13.18-6.39.28-12.82.27-19.21,0-7.5-.33-12.25-5.52-12.36-13C190.19,101.1,190.25,96.59,190.25,92.08Zm35.45.51c0-1.9,0-3.79,0-5.68s.06-4,0-6c-.15-4-2-6-6-6.14-5-.12-9.92-.12-14.88,0-3.77.12-5.72,2-5.77,5.77-.13,7.75-.14,15.51,0,23.26.08,4.34,2.13,6.16,6.49,6.21s9,.06,13.53,0,6.55-2.08,6.63-6.68C225.75,99.8,225.7,96.19,225.7,92.59Z"/><path class="cls-2" d="M149.06,93.71c-.88.94-.53,1.88-.54,2.72,0,6.68-.06,13.37,0,20,0,1.75-.47,2.33-2.28,2.34-6.61.06-6.61.13-6.61-6.35,0-20.4,0-40.81-.06-61.22,0-2.28.64-2.89,2.87-2.85,6,.11,6,0,6,6.12,0,10.48,0,20.95,0,31.42,0,.93-.41,2,.2,2.55,7.11-7,14.2-13.89,21.21-20.88a4.68,4.68,0,0,1,3.8-1.55c3.13.11,6.27,0,9.39,0,.15,1.15-.67,1.43-1.13,1.89-7.1,7.19-14.19,14.41-21.4,21.5-1.57,1.55-1.71,2.41-.08,4.06,7.49,7.57,14.84,15.29,22.23,23,.54.57,1.31,1,1.48,2.24-3.6,0-7.15,0-10.7,0a2.29,2.29,0,0,1-1.58-1Q161.47,107,151,96.21A28.43,28.43,0,0,1,149.06,93.71Z"/><path class="cls-2" d="M95.6,89.54c7.17-8,14.72-15,21.87-22.29a2.77,2.77,0,0,1,2-1.16c3.59,0,7.19,0,10.75,0,.35,1.06-.46,1.25-.84,1.63-7.31,7.38-14.61,14.78-22,22.08-1.39,1.36-1.29,2.15,0,3.47,7.59,7.74,15.1,15.56,22.63,23.36.49.51,1,1,1.92,2.05-4.26,0-8,0-11.67-.05-.5,0-1-.66-1.47-1.1Q108,106.31,97.25,95.06c-.35-.36-.52-1.1-1.2-.76s-.44,1.11-.44,1.7c0,6.69-.09,13.37,0,20.06,0,2-.36,2.82-2.62,2.77-6.11-.13-6.11,0-6.11-6.09,0-20.33,0-40.66-.06-61,0-2.5.47-3.47,3.2-3.36,5.54.22,5.55.07,5.55,5.51C95.59,65.64,95.6,77.38,95.6,89.54Z"/><path class="cls-2" d="M30.09,92c0-4.42-.07-8.84,0-13.27.13-7.43,4.65-12.24,12.09-12.5C48.77,66,55.37,66,62,66.16c7.48.23,12.25,5.2,12.33,12.63q.12,13.26,0,26.53c-.07,7.71-5,13-12.7,13.35-6.22.25-12.47.26-18.68,0-8-.32-12.7-5.46-12.8-13.47C30,100.8,30.09,96.37,30.09,92Zm35.47.37c0-3.79.07-7.58,0-11.36-.1-4-2-6-6-6.13-5-.12-9.92-.12-14.87,0C41,75,39,76.72,38.93,80.36c-.18,7.93-.21,15.87,0,23.79.14,4.35,2.1,5.9,6.42,5.95q6.77.08,13.53,0c4.5,0,6.54-2.09,6.63-6.68C65.63,99.71,65.57,96,65.56,92.32Z"/><path class="cls-1" d="M402.55,66.06c4.42,0,8.85.07,13.27,0,1.8,0,2.27.54,2.26,2.32,0,6.49.05,6.49-6.52,6.49q-9.48,0-19,0c-3.65,0-5,1.2-5.05,4.47-.16,5.42,1,7.33,4.76,7.48,4.42.16,8.85,0,13.28.08,7.33.17,12.34,5.27,12.44,12.56q0,3.66,0,7.31c-.08,7-4.92,12-11.89,12-8.49.08-17,0-25.47.06-1.57,0-2.21-.34-2.23-2.1-.05-6.68-.12-6.68,6.52-6.68s13,0,19.51,0c3.25,0,4.52-1.1,4.65-4.3.32-8.2.75-10.44-9.16-10.09-3.61.12-7.23,0-10.84-.15a10.56,10.56,0,0,1-10.17-10A78.91,78.91,0,0,1,379,76a10.11,10.11,0,0,1,10-9.82c4.51-.18,9,0,13.55,0Z"/><path class="cls-2" d="M17.56,96.33q0,13.28,0,26.56a14.47,14.47,0,0,1-1.46,6.8c-2.28,4.39-5.71,6.47-10.7,6.36-5.3-.11-5.12,0-5.37-5.16-.14-2.83.41-4,3.54-3.81,3.43.21,4.87-1.37,5.23-4.81a24.52,24.52,0,0,0,.07-2.71c0-16.89,0-33.79,0-50.68,0-2.26.59-2.89,2.85-2.84,5.94.13,5.94,0,5.94,5.9V96.33Z"/><path class="cls-1" d="M255.79,83.66c0,10.92,0,21.84.05,32.76,0,1.86-.44,2.45-2.39,2.44-6.53,0-6.53,0-6.53-6.47,0-20.39,0-40.78,0-61.17,0-2.25.56-2.92,2.86-2.84,6.05.22,6.06.11,6.06,6.32Z"/><path class="cls-3" d="M450.67,14.12c.88-.32,1.84-.71,1.29-1.89-1-2.2-1-4.55-1.25-6.88a4.32,4.32,0,0,0-.47-1.53,2.33,2.33,0,0,0-2.62-1.45,1.44,1.44,0,0,0-1.29,1.52c.12,1.25,1.08,1.49,2.16,1.53.2,0,.39.28.85.63-4.34,2.17-4.9-2.57-7.4-3.58,2.66-.19,4.25-2.9,7.18-2.41,1.93.31,3.06,1,3.31,2.85.28,2.05.36,4.13.62,6.18.09.73,0,1.93,1.15,1.74a1.58,1.58,0,0,0,1.3-2.23,6.16,6.16,0,0,1-.29-1c-.21-1.5-1.35-3.31.6-4.29s5.09,1.15,5.81,3.21c1.17,3.34.38,6.77.62,10.14.07,1,.05,2,.08,3l-2.21,0c0-1.21-.84-1.44-1.83-1.44s-1.24-.53-1.21-1.38c.08-2-.35-4,.59-5.8,1.59,0,1.16,1.18,1.26,2.09s-.43,2.07.93,2.92c.8-2.64.16-5.06.56-7.9C459,9.09,458,9.68,457.7,11c-1.72,1.66-4.05,2.74-5,5.14a1.65,1.65,0,0,0-1.22,1.2c-1.84.88-3.54,1.67-2.1,4.34.73,1.34-.11,2.7-1.6,3.19s-2.9-.25-3-1.53c-.19-3-2-2.64-3.9-2.33a3.06,3.06,0,0,0-2.15,0c-.6-.05-1.13.16-1.15.79-.07,2.08-1.36,2.41-3.05,2.3-1.14-.07-2.28-.08-3.43-.12l0,0c-.32-.43-.94-.9-.89-1.26.13-.83,1-.49,1.56-.57,1.12-.16,2.41.46,3.45-.68-1.31-1.08-2.71-.65-4-.64a6.23,6.23,0,0,1-4.52-1.24l0,.05v-.55l4.35-.29a5.21,5.21,0,0,0,2.66,0h2.72c.72,0,1.44,0,2.15,0a3.8,3.8,0,0,0,2.24,0c3.41.28,6.77.43,8.41-3.52A1.44,1.44,0,0,0,450.67,14.12Zm6.84-8.95a.85.85,0,0,0-.83,1c0,.62.13,1.31.93,1.34a1.15,1.15,0,0,0,1.2-1.16C458.82,5.66,458.21,5.37,457.51,5.17Z"/><path class="cls-3" d="M449.15,47.61c-.91,1.57.48,10.4,1.82,11.35a1.87,1.87,0,0,0,2.25.33A1.48,1.48,0,0,0,454,58c0-1-.7-1.4-1.59-1.54-.44-.07-.91-.09-1.09-.78,4.05-2.08,4.54,2.65,7.05,3.65a15.76,15.76,0,0,0-3.7,1.83c-3.07,2.35-6.37.87-6.91-3-.25-1.78-.2-3.61-.45-5.39-.1-.73,0-2.15-1.3-1.79A1.69,1.69,0,0,0,445,53.58a8.45,8.45,0,0,1,.55,3.45c.06,1.3-.58,1.71-1.85,1.63-3.39-.22-5.26-2.25-5.35-6-.08-3.52-.12-7-.17-10.55v-2c.93-3.45-.27-6.17-2.86-8.42a1.84,1.84,0,0,1,1.27-1.32c1.38,1.07,2.34,3,4.73,1.42,1.08-.71,2.46.19,2.93,1.58.53,1.56-.2,3-1.64,3.14-2.54.27-2.59,1.61-2.16,3.48,0,.69.07,1.38.11,2.06-.33.79-.21,1.63.71,1.58,2.55-.14,2.31,1.52,2.24,3.14-.11,2.3,1.16,2,2.49,1.24a11.83,11.83,0,0,0,1.9-1.85A2.65,2.65,0,0,1,449.15,47.61Zm-5.56,2.45c.37-.08.65-.25.56-.68,0-.1-.29-.26-.34-.23a.64.64,0,0,0-.23.89l-.39.12.18.27Zm-2.81-4.28c-1,2.78-.09,5.31-.79,7.77C442,52.24,442.31,49.51,440.78,45.78Zm2.06,10.82a.85.85,0,0,0,.93-1c0-.67-.32-1.28-1-1.27a1.1,1.1,0,0,0-1.15,1.18C441.62,56.22,442.23,56.45,442.84,56.6Z"/><path class="cls-3" d="M467,32.06c1.49.86,10.36-.54,11.36-1.82a1.85,1.85,0,0,0,.35-2.23,1.53,1.53,0,0,0-1.32-.82c-1,0-1.4.66-1.58,1.53l-.23,1.08c-1.78-2-1.78-2,3.34-7.13a7.86,7.86,0,0,0,1.63,3.79c2.29,2.91,1,6.2-2.67,6.9-1.94.36-4,.27-5.92.52-.68.08-2,0-1.68,1.15a1.79,1.79,0,0,0,2.32,1.31c.95-.26,1.93-.46,2.9-.63,2.29-.4,2.9.59,2.41,2.75a8.21,8.21,0,0,1-2.31,3.89l-2.17-.4c.12-.48,0-.67-.53-.55.17-1.25-1-2.18-1.58-2-1.91.54-4-.18-6.34.84,2.88,1.34,5.61,0,7.94,1.15l.55.54c0,.35-.08.69-.13,1L461.67,43l-2.07,0c-2.29.12-4.82-1.07-6.66,1.3h-.11l-1.41,1.4c-1,.19-1.49-.49-2-1.19,1.23-1.28,3.1-2.19,1.48-4.6-.76-1.14.23-2.46,1.53-3,1.51-.58,3,.12,3.17,1.55.39,2.92,2.13,2.47,4,2.09l2,.07c.45,0,1.14,0,1.13-.44-.05-3.32,2.35-2.5,4.23-2.59l2.11-.1a.63.63,0,0,0,.1.2s.1,0,.16,0l-.3-.15q-1.73-2.14-3.44-4.3A1.47,1.47,0,0,1,467,32.06Zm9,6.37c.09-.8-.42-.94-1-1s-1.33.14-1.36.94a1.19,1.19,0,0,0,1.18,1.23C475.51,39.67,475.79,39,476,38.43Z"/><path class="cls-2" d="M460.11,19.62l2.21,0c1.58.3,2.65.07,3.22-1.81s2.21-3,3.36-4.52c.78-1,1.54-2.1.91-3.46-.44-.94-1.18-1.72-2.34-1.22s-1.3,1.39-.6,2.44c.24.34.71.61.4,1.36-4.52-1.37-1.12-5.18-2.45-7.54a7.33,7.33,0,0,0,3.78,1.33c4.08.7,5.24,4.17,2.59,7.41-1.09,1.32-2.28,2.56-3.31,3.92-.42.55-1.46,1.37-.45,2a1.77,1.77,0,0,0,2.73-.74,13,13,0,0,1,1.6-2.49c1.5-1.85,2.26-1.71,3.59.35,1,1.49.75,3.11.76,4.71-3.88-.07-7.75.71-11.65.18a2.8,2.8,0,0,0-2.32.42l-2,0c-1.58-.51-2.82-.66-3.48,1.46a2.28,2.28,0,0,1-3.43,1.47c-1.25-.69-2.24-2.09-1.08-3.3,1.85-1.93.45-2.92-.68-4.14a1.62,1.62,0,0,1,1.23-1.19C454.72,18.29,456.69,20.51,460.11,19.62Zm14.26-.9c-.21-.59-.41-1.31-1.16-1.22A1.36,1.36,0,0,0,472.07,19c0,.69.63.75,1.16.75C473.93,19.79,474.44,19.54,474.37,18.72Z"/><path class="cls-3" d="M351.39,144.1c0,1.89.06,3.78,0,5.67a3.68,3.68,0,0,1-3.91,3.85c-2.07,0-4.14,0-6.21,0-1,0-1.5-.25-1.48-1.34s.61-1.31,1.55-1.3c2,0,4,0,5.95,0,.78,0,1.47-.3,1.48-1.2,0-1.14-.91-1-1.56-.9-7.35.91-7.53-1.78-7.39-8,.12-5.43,4.84-8.17,9.82-5.57a3.22,3.22,0,0,1,1.75,3.11C351.4,140.31,351.39,142.21,351.39,144.1Zm-2.31-2.22c0-4.71-.38-5-4.79-4.59-1.43.14-2.12.76-2.08,2.22,0,1.62,0,3.25,0,4.87a1.91,1.91,0,0,0,1.07,2c3.2,1.42,5.78-.22,5.79-3.69Z"/><path class="cls-2" d="M13.32,48.49a6.1,6.1,0,0,1-.27,12.2,6.32,6.32,0,0,1-5.83-6.26A6.15,6.15,0,0,1,13.32,48.49Z"/><path class="cls-3" d="M295.44,139.48c0-2.52,0-5,0-7.57,0-.9.14-1.65,1.26-1.66s1.38.76,1.22,1.65c-.52,2.95,1.15,3.12,3.44,3.06,5.07-.13,5.7.59,5.71,5.74,0,2.16,0,4.32,0,6.48,0,.87,0,1.67-1.18,1.7s-1.31-.69-1.3-1.61c0-2.25-.1-4.51,0-6.75.15-2.49-.86-3.3-3.33-3.25-2.3,0-3.63.48-3.41,3.14a51.18,51.18,0,0,1,0,5.94c0,1,.62,2.44-1.15,2.48-2,0-1.25-1.59-1.29-2.6C295.39,144,295.45,141.73,295.44,139.48Z"/><path class="cls-3" d="M315.34,134.91c.81,0,1.62,0,2.43,0,3,.05,4.08,1.05,4.18,4,.07,2,.07,4,0,5.95-.1,2.68-1.38,3.9-4,4-.9,0-1.8,0-2.7,0-3.79,0-5-1.25-4.94-5,.05-3.63,1-4.54,4.66-4.77,1.39-.09,4,.82,3.93-.73-.08-1.85-2.64-.68-4.1-.92a20.46,20.46,0,0,0-3.23,0,1.1,1.1,0,0,1-1.24-1.12,1.14,1.14,0,0,1,1.27-1.36h3.79Zm.5,11.56c1.93.1,3.75.36,3.7-2.5-.05-2.68-1.8-2.41-3.52-2.44s-3.44-.14-3.46,2.49S314.06,146.69,315.84,146.47Z"/><path class="cls-3" d="M376.25,139.78c0-2.61,0-5.23,0-7.84,0-.87.08-1.67,1.23-1.68s1.42.73,1.26,1.62c-.51,3,1.15,3.13,3.45,3.07,5.1-.13,5.7.57,5.7,5.74,0,2.08,0,4.15,0,6.22,0,.87.23,1.93-1.17,2s-1.27-1-1.27-1.87c0-2.16-.11-4.33,0-6.48.17-2.52-.88-3.3-3.33-3.24-2.25.05-3.64.42-3.44,3.11.17,2.24,0,4.5,0,6.75,0,.89,0,1.67-1.16,1.73-1.34.08-1.36-.82-1.35-1.79,0-2.44,0-4.87,0-7.3Z"/><path class="cls-3" d="M267.57,142.05c0,1,0,2,0,3-.12,2.63-1.23,3.73-3.86,3.83-.81,0-1.63-.06-2.44,0-5.09.47-5.78-2.84-5.26-6.55a3.34,3.34,0,0,1,3.44-3.18c1.17,0,2.35,0,3.52,0,.73,0,1.94.35,1.89-.85,0-1-1.18-.9-2-.91-1.81,0-3.61,0-5.42,0-.95,0-1.59-.23-1.57-1.34s.7-1.12,1.48-1.12c2.35,0,4.7,0,7,0a3,3,0,0,1,3.13,3.06c.09,1.35,0,2.71,0,4.06Zm-6.65,4.48c2.33-.1,4.25.56,4.33-2.28.06-2.51-1.28-2.85-3.23-2.72-1.71.12-3.77-.52-3.79,2.45C258.22,146.59,259.79,146.63,260.92,146.53Z"/><path class="cls-3" d="M405.86,138.57v-6.48c0-.93-.1-1.92,1.29-1.84,1.16.06,1.29.93,1.13,1.75-.56,2.86,1.08,3,3.24,2.93,5.2-.1,5.88.65,5.89,5.91v.82c0,7-.82,7.68-7.88,7.22-2.28-.15-3.5-1.34-3.6-3.55s0-4.51,0-6.76Zm2.42,3.34c0,4.57,0,4.57,3.1,4.59,3.53,0,3.56,0,3.57-3.64,0-1.17,0-2.34,0-3.51a1.9,1.9,0,0,0-.9-1.83,3.73,3.73,0,0,0-5.77,3.31C408.27,141.19,408.27,141.55,408.28,141.91Z"/><path class="cls-2" d="M459.6,43l2.07,0c-.32,1.41-.05,2.4,1.55,2.89,1.86.57,3.07,2.17,4.57,3.31,1,.77,2.06,1.56,3.44,1.17a2.15,2.15,0,0,0,1.64-1.64,1.53,1.53,0,0,0-.79-1.6c-.73-.5-1.36-.14-1.95.36a1.09,1.09,0,0,1-.95.29c1.13-4.34,4.91-1.3,7.29-2.5a8.66,8.66,0,0,0-1.34,3.93c-.76,3.83-4,5-7.1,2.71-1.44-1.07-2.7-2.38-4.15-3.46-.59-.44-1.46-1.68-2.17-.38a1.8,1.8,0,0,0,1,2.66,16.6,16.6,0,0,1,3.08,2.16c.92.74.85,1.56-.12,2.2a12.13,12.13,0,0,1-2.58,1.44c-2.56.9-3.4.28-3.38-2.46C459.72,50.41,459.17,46.73,459.6,43Zm3,9.57c-.83-.1-1.09.38-1.1,1.09,0,.56.16,1.11.83,1.1s1.51-.11,1.53-1C463.83,53,463.16,52.79,462.56,52.61Z"/><path class="cls-2" d="M440.91,18.91a3.8,3.8,0,0,1-2.24,0c.42-1.56.5-2.65-1.67-3.11-1.32-.29-2.39-1.74-3.55-2.68a7.89,7.89,0,0,0-3-1.84,2.26,2.26,0,0,0-2.59,1,1.41,1.41,0,0,0,.17,2c.94.85,1.8.48,2.59-.32.15-.15.45-.15.89-.28-.29,1.94-1.34,3.13-3,2.74-1.48-.35-2.82,0-4.61.09A10.62,10.62,0,0,0,425.48,12c.72-3.33,3.9-4.45,6.69-2.43,1.61,1.16,3,2.58,4.61,3.76.52.39,1.29,1.48,2,.35a1.7,1.7,0,0,0-.75-2.52c-.93-.53-1.8-1.18-2.68-1.8-1.85-1.3-1.41-2.39.3-3.42a9.54,9.54,0,0,1,3-1.11l1.16,0,.66.17.4.56v0c-.05,1.84-.19,3.69-.13,5.53,0,.91-.65,2.16.82,2.67A7.34,7.34,0,0,0,440.91,18.91Zm-3-12.1c-.41.26-1.2.26-1.24,1.06s.54,1.08,1.19,1.21,1.19-.28,1.24-1S438.81,6.9,437.92,6.81Z"/><path class="cls-3" d="M425,19.65l1.25-.12.57.18,0-.05a8.51,8.51,0,0,0,4.39,4.39l0,0,3.57,4.51L433.5,30c-.51-.48-1-1.27-1.79-.84-2.24,1.16-4.69,1-7.08,1.33a3.46,3.46,0,0,0-2.34,1.17c-.54.65-1,1.35-.45,2.19a1.52,1.52,0,0,0,1.49.94c1-.12,1.34-.79,1.39-1.69,0-.44,0-.92.6-.92,1.69.94,0,2.69.94,3.8l0,0c-2.3-.2-2.91,2.15-4.77,3.39.19-1.81-.74-2.73-1.51-3.79-2.27-3.11-.89-6.36,2.94-7,1.86-.29,3.76-.27,5.64-.48.73-.09,1.9-.08,1.66-1.21a1.68,1.68,0,0,0-2.1-1.24c-.79.18-1.56.43-2.36.56-3.18.52-3.83-.21-2.94-3.25.18-.6.44-1.18.67-1.76l.37-.49.69-.77Zm1.85,3.74c-.22-.65-.64-1.13-1.36-1a1.2,1.2,0,0,0-.87,1.22c0,.9.67.93,1.33.83S426.92,24.09,426.83,23.39Z"/><path class="cls-3" d="M361.25,148.86c-1,0-2,0-3,0-2.43-.06-3.63-1.41-3.72-3.74-.09-2.07-.08-4.15,0-6.22a3.74,3.74,0,0,1,3.9-4A25.11,25.11,0,0,1,363,135a3.24,3.24,0,0,1,3,3c.29,1.77-.47,2.62-2,3.23-1.85.7-3.61,1.63-5.39,2.5-.69.34-1.67.54-1.45,1.65s1.28,1.08,2.17,1.09c1.71,0,3.42,0,5.14,0,.84,0,1.66,0,1.67,1.18s-.76,1.25-1.62,1.24h-3.25Zm-.72-11.6v0c-.63,0-1.26,0-1.88,0a1.62,1.62,0,0,0-1.71,1.4c-.16.88-.45,2,.17,2.59s1.46-.23,2.17-.51c1-.39,2-.87,2.93-1.34.63-.3,1.5-.53,1.25-1.45-.18-.68-.94-.72-1.59-.73Z"/><path class="cls-2" d="M438.15,40.07v2a2.85,2.85,0,0,0-3.51,2c-.74,1.68-2.2,3-3.36,4.55-.88,1.15-1.35,2.39-.57,3.75a1.63,1.63,0,0,0,2.1.78c.75-.28,1.22-.79.88-1.66-.21-.53-.94-1.22.2-1.37a1.42,1.42,0,0,1,1.59,1.73,31.36,31.36,0,0,0,0,5.16A8,8,0,0,0,432,55.5c-4.35-.52-5.61-3.94-2.84-7.4,1.07-1.34,2.26-2.58,3.31-3.93.44-.56,1.36-1.34.23-2a1.76,1.76,0,0,0-2.41.56c-.3.45-.46,1-.77,1.42-.79,1.06-1.42,2.76-2.86,2.53s-1.85-1.82-2.31-3.12-.71-2.44.27-3.56c3.11.08,6.25.68,9.28-.59C435.14,40.58,436.7,39.94,438.15,40.07Zm-9.83,2.81c0-.76-.56-1-1.23-1s-1.06.25-1.11.86.15,1.28.89,1.41C427.77,44.3,428,43.54,428.32,42.88Z"/><path class="cls-3" d="M223.7,141.83c0-6.55,2.76-8.62,9.16-6.77a3.18,3.18,0,0,1,2.58,3.09c.08,2.43,0,4.86,0,7.3a3.1,3.1,0,0,1-.12.8c-.69,2.46-3,3.18-8.25,2.6a3.44,3.44,0,0,1-3.39-3.77C223.68,144,223.7,142.91,223.7,141.83Zm9.34.2h0c0-.72,0-1.44,0-2.16,0-1.12,0-2.43-1.47-2.46-1.73,0-4.14-1.06-5,.74a9.63,9.63,0,0,0-.09,7.4c.73,1.94,3.05.68,4.64.93,1.25.19,1.83-.59,1.91-1.74C233.08,143.84,233,142.94,233,142Z"/><path class="cls-3" d="M216.54,134.9h3c.94,0,1.6.31,1.54,1.39s-.76,1.1-1.54,1.1l-4.33,0c-1,0-2.12.08-2.16,1.43,0,1.53,1.12,1.62,2.27,1.6.54,0,1.08,0,1.62,0,3,.11,4.18,1.41,4.15,4.43s-1.09,4-4.09,4.07c-1.62,0-3.24,0-4.87,0-.88,0-1.66-.08-1.62-1.26s.88-1.17,1.72-1.17c1.54,0,3.07,0,4.6,0,1.06,0,1.73-.4,1.78-1.56s-.41-1.92-1.63-2c-.63-.05-1.26,0-1.9,0-3.48-.06-4.5-.94-4.52-3.89s1.05-4,4.65-4Z"/><path class="cls-3" d="M402.61,141.17v.27c.35,8.18-1.07,7.45-8.07,7.42a3.09,3.09,0,0,1-3.4-3.36c-.08-3,0-5.95-.05-8.93,0-.88.13-1.68,1.26-1.66s1.17.88,1.17,1.73c0,2.53.06,5.05,0,7.58-.08,2.37,1.47,2.32,3.07,2.2s3.69.7,3.61-2.2c-.06-2.53,0-5.05,0-7.58,0-.86.06-1.69,1.21-1.71s1.27.75,1.26,1.64c0,1.53,0,3.07,0,4.6Z"/><path class="cls-2" d="M452.83,44.34h.11a19.8,19.8,0,0,1,4.35,3.82c.88,1,2,2,.11,3.16-.81.51-.11,1.13.26,1.57a2.4,2.4,0,0,1,.36,2.86c-3.25-2.46-5.51-5.91-8.87-8.14a2.65,2.65,0,0,0-1.28-1.49c-1.78-2.57-3.83-4.64-7.34-4.11,0-.68-.07-1.37-.11-2.06,1.61.26,2.87.24,3.42-1.86.38-1.48,1.87-1.85,3.3-1.14s1.94,2.11,1.07,3.11c-2.08,2.38-.36,3.34,1.25,4.49.47.7,1,1.38,2,1.19.33,1,.9.53,1.29.14S453.89,44.93,452.83,44.34Zm1.86,4.12c-.23,0-.57-.2-.68-.11-.33.3-.11.62.15.88s.6.68,1,.16S455,48.69,454.69,48.46Z"/><path class="cls-3" d="M325.07,142.67c0-.18,0-.36,0-.54-.35-7.49.88-7.29,7.8-7.21a3.47,3.47,0,0,1,3.76,3.72c.09,2.89,0,5.78,0,8.66,0,.94-.16,1.63-1.3,1.57s-1.11-.91-1.11-1.75c0-2.43-.07-4.87,0-7.3.11-3.31-2.33-2.19-4-2.39-1.85-.23-2.93.29-2.81,2.47.14,2.43,0,4.87,0,7.3,0,.85,0,1.68-1.19,1.69s-1.28-.72-1.27-1.62c0-1.53,0-3.07,0-4.6Z"/><path class="cls-2" d="M433.5,30l1.17-1.48c3.55-1.87,4.5-3.62,4.06-7.48a3.12,3.12,0,0,1,2.15,0c-.19,1.6-.59,3.1,1.82,3.62A2.11,2.11,0,0,1,444,27.88c-.79,1.48-2.16,2.16-3.53,1.05-2.29-1.84-3-.17-3.94,1.4a1.84,1.84,0,0,0-1.27,1.32c-1.14.32-1.21,1.15-.47,1.75,1.68,1.36.6,2.17-.4,3.1-.58.54-1.09,1.15-1.64,1.72-.82.35-1.6,1.21-2.59.35.51-1.6,2.71-2.08,2.64-4.29-2.16.86-3.16,2.68-4.67,3.88-.89.7-1.82,1.7-2.64-.09.49-.62,2.08-.85.76-2.11l0,0c.39,1,.94.52,1.38.1,1-1,1.93-2,2.89-3l.43-.43,1.19-1.21.41-.4C432.87,30.7,433.19,30.35,433.5,30Z"/><path class="cls-2" d="M467,32.06a1.47,1.47,0,0,0-1.35,1.25c-3,1.57-4.59,3.89-4,7.39l-2-.07c.37-1.75.21-3-1.95-3.64a2.09,2.09,0,0,1-1.19-3.3c.86-1.36,2.18-2.1,3.64-.87,2.27,1.93,2.82.07,3.57-1.47A1.91,1.91,0,0,0,465,30.1c1.12-.18,1.42-.77.7-1.66s-1.73-1.36-.46-2.36c1.52-1.17,2.31-3.64,5.14-3.18-.58,1.84-2.67,2.29-2.74,4.14,1.29.32,1.66-.7,2.26-1.25a20.64,20.64,0,0,1,2.7-2.6c.5-.31,2.4-1.81,2,.87C471.94,26.63,469,28.89,467,32.06Z"/><path class="cls-3" d="M238.68,141.83a4.87,4.87,0,0,0,0-.54c-.57-7.09,2.3-6.42,8.09-6.36a1,1,0,0,1,1.17,1.17,1.1,1.1,0,0,1-1.14,1.22,4.89,4.89,0,0,0-.54,0c-1.62.27-3.85-.82-4.76.85-1.07,2-.41,4.4-.34,6.64,0,1.17.91,1.65,2.08,1.62s2.34,0,3.51,0c.72,0,1.22.26,1.25,1.07s-.4,1.34-1.29,1.33c-1.62,0-3.26.08-4.86-.1a3.31,3.31,0,0,1-3.14-3.44c-.07-1.16,0-2.34,0-3.51Z"/><path class="cls-3" d="M289.41,148.87c-4.78,0-5.72-1-5.73-5.56,0-1.35,0-2.7,0-4,.06-3.05,1.2-4.23,4.23-4.36,1.26,0,2.52,0,3.78,0,.92,0,1.31.45,1.27,1.34s-.49,1.1-1.23,1.11a4.37,4.37,0,0,0-.81,0c-1.52.26-3.71-.88-4.42.94a11.39,11.39,0,0,0-.05,7.14c.37,1.35,1.76.84,2.77,1.06,1.3.27,3.68-1.07,3.66,1.2S290.41,148.27,289.41,148.87Z"/><path class="cls-4" d="M474.58,24.06c.41-2.68-1.49-1.18-2-.87a20.64,20.64,0,0,0-2.7,2.6c-.6.55-1,1.57-2.26,1.25.07-1.85,2.16-2.3,2.74-4.14-2.83-.46-3.62,2-5.14,3.18-1.27,1-.14,1.62.46,2.36s.42,1.48-.7,1.66c-2.75-2.1-3.21-5-2.85-8.18a2.8,2.8,0,0,1,2.32-.42c3.9.53,7.77-.25,11.65-.18C475.77,22.33,476,23.66,474.58,24.06Z"/><path class="cls-2" d="M450.67,14.12a1.44,1.44,0,0,1-1.35,1.27c-.27,0-.68-.19-.77-.08-1.93,2.31-3.24.87-4.57-.7a9.46,9.46,0,0,0-1-.86c-.45-.85-1.13-1.67-.39-2.69,1.71.2,2,2.81,4.26,2.45-.7-1.73-2.09-2.63-3.23-3.68A3.27,3.27,0,0,1,442.47,6Z"/><path class="cls-1" d="M250.4,141.82c0-1.8,0-3.6,0-5.4,0-.8.11-1.44,1.12-1.46s1.23.5,1.23,1.36q0,5.53,0,11.08c0,.81-.14,1.4-1.14,1.44-1.23,0-1.23-.74-1.22-1.61C250.42,145.43,250.41,143.62,250.4,141.82Z"/><path class="cls-1" d="M271.2,130.71c1.36-.78,1.82-.07,1.83,1.17,0,5.14,0,10.27,0,15.4,0,1.32-.52,1.88-1.83,1.21l-.29-.8q0-7.09.05-14.19c0-.05.12-.1.11-.14a2,2,0,0,0-.12-.31l0-1.21Z"/><path class="cls-4" d="M425.52,38.07c.82,1.79,1.75.79,2.64.09,1.51-1.2,2.51-3,4.67-3.88.07,2.21-2.13,2.69-2.64,4.29,1,.86,1.77,0,2.59-.35.26.49,1,.53,1.07,1.21-3,1.27-6.17.67-9.28.59C424.69,39.27,424.36,38.3,425.52,38.07Z"/><path class="cls-4" d="M442.47,6a3.27,3.27,0,0,0,1.13,3.82c1.14,1.05,2.53,1.95,3.23,3.68-2.27.36-2.55-2.25-4.26-2.45-.74,1-.06,1.84.39,2.69l-1.38,0c-1.47-.51-.78-1.76-.82-2.67-.06-1.84.08-3.69.13-5.53C441.44,5.64,442.06,5.44,442.47,6Z"/><path class="cls-3" d="M251.44,130.36a1.57,1.57,0,0,1,1.63,1.47,1.37,1.37,0,0,1-1.34,1.65c-1,.07-1.76-.42-1.76-1.52A1.57,1.57,0,0,1,251.44,130.36Z"/><path class="cls-4" d="M473.29,42.94c0-.34.09-.68.13-1l0,0,2.17.4C475,43.3,474.1,43,473.29,42.94Z"/><path class="cls-4" d="M433.8,18.87a5.21,5.21,0,0,1-2.66,0A2.74,2.74,0,0,1,433.8,18.87Z"/><path class="cls-4" d="M439.83,4.84l-1.16,0C439.07,3.88,439.46,3.9,439.83,4.84Z"/><path class="cls-3" d="M271.2,130.71l-.21,1.13C270.75,131.4,270.42,131,271.2,130.71Z"/><path class="cls-4" d="M436.52,18.87h-1A.63.63,0,0,1,436.52,18.87Z"/><path class="cls-3" d="M270.92,147.69l.29.8C270.69,148.37,270.68,148.07,270.92,147.69Z"/><path class="cls-3" d="M271,133.05a2,2,0,0,1,.12.31s-.07.09-.11.14l-.15-.22Z"/><path class="cls-4" d="M425,19.65l-.41.32Z"/><path class="cls-4" d="M426.8,19.71l-.57-.18.56-.37Z"/><path class="cls-4" d="M423.88,20.74l-.37.49C423.63,21.07,423.75,20.9,423.88,20.74Z"/><path class="cls-4" d="M440.89,5.57l-.4-.56Z"/><path class="cls-5" d="M441.58,13.79l1.38,0a9.46,9.46,0,0,1,1,.86c1.33,1.57,2.64,3,4.57.7.09-.11.5,0,.77.08-1.64,3.95-5,3.8-8.41,3.52A7.34,7.34,0,0,1,441.58,13.79Z"/><path class="cls-4" d="M460.11,19.62c-3.42.89-5.39-1.33-7.41-3.43.95-2.41,3.28-3.49,5-5.15l0,0c-.94,1.85-.51,3.85-.59,5.8,0,.85.28,1.38,1.21,1.38S460.07,18.41,460.11,19.62Z"/><path class="cls-4" d="M438.73,21c.44,3.86-.51,5.61-4.06,7.48L431.1,24c1.15,0,2.29,0,3.43.12,1.69.11,3-.22,3.05-2.3C437.6,21.2,438.13,21,438.73,21Z"/><path class="cls-4" d="M431.15,24.05a8.51,8.51,0,0,1-4.39-4.39,6.23,6.23,0,0,0,4.52,1.24c1.28,0,2.68-.44,4,.64-1,1.14-2.33.52-3.45.68-.58.08-1.43-.26-1.56.57C430.21,23.15,430.83,23.62,431.15,24.05Z"/><path class="cls-4" d="M457.7,11c.26-1.36,1.3-1.95,2.71-2.93-.4,2.84.24,5.26-.56,7.9-1.36-.85-.82-2-.93-2.92s.33-2.1-1.26-2.09Z"/><path class="cls-4" d="M457.51,5.17c.7.2,1.31.49,1.3,1.19a1.15,1.15,0,0,1-1.2,1.16c-.8,0-.9-.72-.93-1.34A.85.85,0,0,1,457.51,5.17Z"/><path class="cls-5" d="M433.85,39.43c0-.68-.81-.72-1.07-1.21.55-.57,1.06-1.18,1.64-1.72,1-.93,2.08-1.74.4-3.1-.74-.6-.67-1.43.47-1.75,2.59,2.25,3.79,5,2.86,8.42C436.7,39.94,435.14,40.58,433.85,39.43Z"/><path class="cls-4" d="M440.53,42c3.51-.53,5.56,1.54,7.34,4.11A11.83,11.83,0,0,1,446,48c-1.33.8-2.6,1.06-2.49-1.24.07-1.62.31-3.28-2.24-3.14C440.32,43.64,440.2,42.8,440.53,42Z"/><path class="cls-4" d="M440.78,45.78c1.53,3.73,1.21,6.46-.79,7.77C440.69,51.09,439.82,48.56,440.78,45.78Z"/><path class="cls-4" d="M442.84,56.6c-.61-.15-1.22-.38-1.27-1.1a1.1,1.1,0,0,1,1.15-1.18c.73,0,1,.6,1,1.27A.85.85,0,0,1,442.84,56.6Z"/><path class="cls-4" d="M443.58,50a.64.64,0,0,1,.23-.89c.05,0,.32.13.34.23.09.43-.19.6-.56.68Z"/><path class="cls-4" d="M443.59,50.06l-.22.37-.18-.27.39-.12Z"/><path class="cls-4" d="M461.61,40.7c-.6-3.5,1-5.82,4-7.39q1.71,2.16,3.44,4.3l0,0-2.11.1c-1.88.09-4.28-.73-4.23,2.59C462.75,40.69,462.06,40.71,461.61,40.7Z"/><path class="cls-4" d="M472.87,41.37c-2.33-1.18-5.06.19-7.94-1.15,2.36-1,4.43-.3,6.34-.84.58-.16,1.75.77,1.58,2Z"/><path class="cls-4" d="M476,38.43c-.18.58-.46,1.24-1.17,1.22a1.19,1.19,0,0,1-1.18-1.23c0-.8.71-.94,1.36-.94S476.06,37.63,476,38.43Z"/><path class="cls-6" d="M452.83,44.34c1.06.59.3,1.12-.12,1.54s-1,.88-1.29-.14Z"/><path class="cls-4" d="M469,37.61l.3.15c-.06,0-.14,0-.16,0a.63.63,0,0,1-.1-.2Z"/><path class="cls-4" d="M473.42,41.91l-.55-.54,0,0c.49-.12.65.07.53.55Z"/><path class="cls-3" d="M463.72,31.35c-1.32-1.15-2.4-2.5-4.56-1.06-1.1.72-2.45-.39-2.91-1.69a2.12,2.12,0,0,1,1.51-3c2.64-.28,2.66-1.79,2.38-3.71l2,0c-.36,3.18.1,6.08,2.85,8.18A1.91,1.91,0,0,1,463.72,31.35Z"/><path class="cls-4" d="M474.37,18.72c.07.82-.44,1.07-1.14,1.07-.53,0-1.15-.06-1.16-.75a1.36,1.36,0,0,1,1.14-1.54C474,17.41,474.16,18.13,474.37,18.72Z"/><path class="cls-4" d="M462.56,52.61c.6.18,1.27.39,1.26,1.14,0,.94-.83,1-1.53,1s-.83-.54-.83-1.1C461.47,53,461.73,52.51,462.56,52.61Z"/><path class="cls-4" d="M437.92,6.81c.89.09,1.24.56,1.19,1.27s-.45,1.17-1.24,1-1.22-.48-1.19-1.21S437.51,7.07,437.92,6.81Z"/><path class="cls-6" d="M433.5,30c-.31.35-.63.7-.94,1.06l-.41.4L431,32.67l-.43.43c-1,1-1.9,2-2.89,3-.44.42-1,.88-1.38-.1-.95-1.11.75-2.86-.94-3.8-.63,0-.58.48-.6.92-.05.9-.42,1.57-1.39,1.69a1.52,1.52,0,0,1-1.49-.94c-.52-.84-.09-1.54.45-2.19a3.46,3.46,0,0,1,2.34-1.17c2.39-.29,4.84-.17,7.08-1.33C432.54,28.73,433,29.52,433.5,30Z"/><path class="cls-4" d="M426.83,23.39c.09.7-.32,1-.9,1.08s-1.32.07-1.33-.83a1.2,1.2,0,0,1,.87-1.22C426.19,22.26,426.61,22.74,426.83,23.39Z"/><path class="cls-4" d="M428.32,42.88c-.32.66-.55,1.42-1.45,1.27-.74-.13-.94-.77-.89-1.41s.52-.87,1.11-.86S428.28,42.12,428.32,42.88Z"/><path class="cls-6" d="M454.69,48.45c.31.24.79.45.44.94s-.68.08-1-.16Z"/><path class="cls-6" d="M454.16,49.23c-.26-.26-.48-.58-.15-.88.11-.09.45.07.68.1Z"/><path class="cls-4" d="M430.53,33.1l.43-.43Z"/><path class="cls-4" d="M432.15,31.46l.41-.4Z"/></g></g></svg>