<svg id="Calque_1" data-name="Calque 1" xmlns="http://www.w3.org/2000/svg" viewBox="0 0 780.36 208.34"><defs><style>.cls-1{fill:#d6a100;}.cls-2{fill:none;stroke:#fff;stroke-linecap:round;stroke-linejoin:round;stroke-width:0;}</style></defs><title>logo rogné</title><path d="M324.33,73.76a40.94,40.94,0,0,0-10.51-15.08,44.56,44.56,0,0,0-16-9.06,65.25,65.25,0,0,0-20.38-3H243.71V147.65h28.56a78.47,78.47,0,0,0,21.42-2.89,47.93,47.93,0,0,0,17.81-9.23,44.6,44.6,0,0,0,12.11-16.36q4.49-10,4.49-24.31A54.74,54.74,0,0,0,324.33,73.76Zm-18,40.35a29.88,29.88,0,0,1-21.18,18,60.59,60.59,0,0,1-14.35,1.69h-9.95V60.37h13.64q16,0,25.59,8.9t9.54,25.59Q309.65,106.58,306.36,114.11Z" transform="translate(-9.64 -11.08)"/><path d="M388.11,76.73a23.87,23.87,0,0,0-9.23-4.65,45.44,45.44,0,0,0-11.79-1.45,53.49,53.49,0,0,0-15.16,2,72.87,72.87,0,0,0-14.2,6l6.1,11.55a54.09,54.09,0,0,1,11.95-5.06,37.82,37.82,0,0,1,9.38-1.36q6.75,0,10.59,2.81t3.85,10v5.77H366.77a60.93,60.93,0,0,0-14.12,1.53,34.52,34.52,0,0,0-11.07,4.57A20.82,20.82,0,0,0,331.79,127q0,10.11,7,16.2t18.37,6.1a35.8,35.8,0,0,0,13.16-2.33,26.71,26.71,0,0,0,10.43-7.46h.48l1.76,8.19h13.32V98.39a35,35,0,0,0-2.17-13.08A21.28,21.28,0,0,0,388.11,76.73Zm-8.35,50.86a23,23,0,0,1-8.26,7.14,21.55,21.55,0,0,1-9.86,2.49,19.83,19.83,0,0,1-4.74-.57,11.31,11.31,0,0,1-4.09-1.84,9.11,9.11,0,0,1-2.81-3.37,11.86,11.86,0,0,1-1-5.29q0-5,4.65-8.67t16.05-4l10.1-.16Z" transform="translate(-9.64 -11.08)"/><path d="M455.49,144.28l-2.57-12.2a46.93,46.93,0,0,1-6.33,1.69,35,35,0,0,1-6.82.72,11.83,11.83,0,0,1-7.14-1.93Q430,130.64,430,125V84.11h21.5V71.92H430V48H413.62V71.92H402.06V84.11h11.56v43.48q0,9.94,5.37,15t17.57,5.06a52.4,52.4,0,0,0,10.67-1.05A50,50,0,0,0,455.49,144.28Z" transform="translate(-9.64 -11.08)"/><path d="M512.44,76.73a23.76,23.76,0,0,0-9.22-4.65,45.44,45.44,0,0,0-11.79-1.45,53.49,53.49,0,0,0-15.16,2,72.87,72.87,0,0,0-14.2,6l6.09,11.55a54.34,54.34,0,0,1,12-5.06,37.82,37.82,0,0,1,9.38-1.36c4.5,0,8,.94,10.59,2.81s3.85,5.21,3.85,10v5.77H491.11A60.87,60.87,0,0,0,477,103.93a34.52,34.52,0,0,0-11.07,4.57A20.82,20.82,0,0,0,456.13,127q0,10.11,7,16.2t18.37,6.1a35.8,35.8,0,0,0,13.16-2.33,26.71,26.71,0,0,0,10.43-7.46h.48l1.76,8.19h13.32V98.39a35,35,0,0,0-2.17-13.08A21.2,21.2,0,0,0,512.44,76.73Zm-8.34,50.86a23,23,0,0,1-8.26,7.14,21.56,21.56,0,0,1-9.87,2.49,19.81,19.81,0,0,1-4.73-.57,11.23,11.23,0,0,1-4.09-1.84,9.11,9.11,0,0,1-2.81-3.37,11.86,11.86,0,0,1-1-5.29q0-5,4.65-8.67t16.05-4l10.1-.16Z" transform="translate(-9.64 -11.08)"/><path d="M591.22,130.88a25.64,25.64,0,0,0,2.57-11.47,27.33,27.33,0,0,0-1.69-9.87,24,24,0,0,0-4.57-7.62,23.63,23.63,0,0,0-6.74-5.21,28.8,28.8,0,0,0-8.34-2.81,28,28,0,0,0,13.07-7.38q5.22-5.3,5.22-14.6,0-12.53-8.34-18.93T559,46.57H534.91V147.65h22.14a51.73,51.73,0,0,0,15.16-2.09,36.5,36.5,0,0,0,11.63-5.78A25,25,0,0,0,591.22,130.88Zm-48-77.57h13.48q11.55,0,18.45,4.41t6.89,14.68a15.77,15.77,0,0,1-7.94,14.52,25,25,0,0,1-8.42,3,55,55,0,0,1-10,.88H543.25Zm39.23,75.24a20.45,20.45,0,0,1-6.34,7.14,26,26,0,0,1-9.39,4,51.73,51.73,0,0,1-11.31,1.21H543.25V97.59h12.67a60.59,60.59,0,0,1,11,1,28.61,28.61,0,0,1,9.23,3.29,17.46,17.46,0,0,1,6.34,6.26A19.11,19.11,0,0,1,584.8,118,22.13,22.13,0,0,1,582.48,128.55Z" transform="translate(-9.64 -11.08)"/><path d="M657.16,138.66a54,54,0,0,1-19.57,3.53q-13.17,0-20.78-7.94t-7.62-22.06v-2.25h53.75v-5.77a41.44,41.44,0,0,0-2.09-13.48A30.88,30.88,0,0,0,655,80.26a25.21,25.21,0,0,0-9.14-6.66,29.43,29.43,0,0,0-11.79-2.32A33.15,33.15,0,0,0,620.42,74a30.83,30.83,0,0,0-10.59,7.78,34.82,34.82,0,0,0-6.9,12.28,50.62,50.62,0,0,0-2.41,16,47.89,47.89,0,0,0,2.89,17.57,33.19,33.19,0,0,0,7.86,12,31,31,0,0,0,11.64,7,44,44,0,0,0,14.19,2.25,68.63,68.63,0,0,0,12-1,47.41,47.41,0,0,0,10-2.81ZM617.29,84.59A22,22,0,0,1,633.58,78a19.55,19.55,0,0,1,9.54,2.17,18.78,18.78,0,0,1,6.42,5.7,23.68,23.68,0,0,1,3.61,8.1,38.45,38.45,0,0,1,1.12,9.22H609.51Q610.79,91.17,617.29,84.59Z" transform="translate(-9.64 -11.08)"/><path d="M722.86,80.26a25.24,25.24,0,0,0-9.15-6.66,29.36,29.36,0,0,0-11.79-2.32A33.19,33.19,0,0,0,688.28,74a31,31,0,0,0-10.59,7.78,34.81,34.81,0,0,0-6.89,12.28,50.34,50.34,0,0,0-2.41,16,47.68,47.68,0,0,0,2.89,17.57,32.94,32.94,0,0,0,7.86,12,30.84,30.84,0,0,0,11.63,7,44.06,44.06,0,0,0,14.2,2.25,68.52,68.52,0,0,0,11.95-1,47.07,47.07,0,0,0,10-2.81L725,138.66a53.92,53.92,0,0,1-19.57,3.53q-13.16,0-20.78-7.94t-7.62-22.06v-2.25H730.8v-5.77a41.71,41.71,0,0,0-2.08-13.48A31.22,31.22,0,0,0,722.86,80.26ZM677.37,103.2q1.29-12,7.79-18.61A22,22,0,0,1,701.44,78,19.59,19.59,0,0,1,711,80.18a18.75,18.75,0,0,1,6.41,5.7A23.5,23.5,0,0,1,721,94a38.46,38.46,0,0,1,1.13,9.22Z" transform="translate(-9.64 -11.08)"/><polygon points="732.39 129.66 779.56 65.81 779.56 61.15 725.01 61.15 725.01 68.05 768.65 68.05 722.28 131.1 722.28 136.56 780.36 136.56 780.36 129.66 732.39 129.66"/><polygon class="cls-1" points="18.09 66.27 31.48 74 44.87 66.27 44.87 66.24 44.87 50.81 31.48 43.08 18.09 50.81 18.09 66.27"/><polygon class="cls-1" points="62.96 128.47 62.96 143.93 76.34 151.66 89.73 143.93 89.73 139.66 89.73 128.47 76.34 120.74 62.96 128.47"/><circle class="cls-1" cx="87.02" cy="57.47" r="2.2"/><circle class="cls-1" cx="87.02" cy="108.87" r="2.2"/><circle class="cls-1" cx="97.67" cy="5.33" r="2.2"/><circle class="cls-1" cx="163.87" cy="42.06" r="2.2"/><circle class="cls-1" cx="178.77" cy="102.45" r="2.2"/><circle class="cls-1" cx="163.87" cy="127.25" r="2.2"/><circle class="cls-1" cx="133.96" cy="145.62" r="2.2"/><circle class="cls-1" cx="133.96" cy="24.79" r="2.2"/><circle class="cls-1" cx="119.03" cy="67.96" r="2.2"/><line class="cls-2" x1="97.82" y1="34.19" x2="97.82" y2="34.19"/><circle class="cls-1" cx="111.5" cy="25.64" r="2.2"/><circle class="cls-1" cx="109.43" cy="96.92" r="2.2"/><circle class="cls-1" cx="148.91" cy="100.69" r="2.2"/><circle class="cls-1" cx="177.79" cy="67.96" r="2.2"/><path d="M24.59,130.92l15,8.64v17.27l16.52,9.54,15-8.64,15,8.64,13.39-7.73v33.77l-24.8,24.8,2.22,2.21,25.71-25.71v-56l-15-8.64V113.67l15-8.63V86l-15-8.64V61.89l15-8.63V34.18L86,24.64,71,33.27l-15-8.63L39.55,34.18V51.45l-15,8.63V77.32L9.64,86V105l15,8.63Zm3.14-1.81V113.67l13.39-7.73,13.38,7.73v15.44L47.81,133l-6.69,3.86ZM69.46,87.8v15.41l-13.39,7.73-13.39-7.73V87.8l13.39-7.73Zm15,41.31L77.72,133,71,136.84,64.33,133l-6.69-3.87V113.67L71,105.94l13.38,7.73ZM42.68,155V139.56l6.7-3.87,6.69-3.86,6.69,3.86,6.7,3.87V155l-13.39,7.73Zm56.69-15.45V155L86,162.74,72.59,155V139.56L86,131.83Zm0-51.79v15.45L86,111l-13.4-7.74V87.8L86,80.05ZM72.59,36,86,28.26,99.37,36V51.45L86,59.18l-6.69-3.87-6.7-3.86Zm5.13,22,6.69,3.86V77.32L71,85.05,57.64,77.32V61.89L64.33,58,71,54.17Zm-35-22,13.39-7.73L69.46,36V51.45l-6.7,3.86-6.69,3.87-6.69-3.87-6.7-3.86ZM27.73,61.89l13.39-7.72L54.5,61.89V77.35L41.12,85.08,27.73,77.35Zm-15,41.33V87.77l13.36-7.72L39.55,87.8v15.41L26.15,111Z" transform="translate(-9.64 -11.08)"/><path d="M178.84,138.33a5.33,5.33,0,0,0-9.61-3.17l-9.11-5.26v-13a5.34,5.34,0,1,0-3.14,0v13l-13.39,7.73-13.38-7.73V114.44l14.95-8.6V88.57l13.39-7.72,13.38,7.73v17.23l11.29,6.51a5.43,5.43,0,0,0-.15,1.22,5.35,5.35,0,1,0,1.73-3.93L175.07,104V88.58l9.15-5.28a5.31,5.31,0,1,0-1.85-2.55l-8.87,5.12-13.38-7.73V62.68L169.88,57a5.27,5.27,0,0,0,3.62,1.43,5.33,5.33,0,1,0-5.33-5.33,5.17,5.17,0,0,0,.14,1.19L158.55,60l-13.39-7.73V41A5.33,5.33,0,1,0,142,41V52.23L128.64,60,108.88,48.47V46.23l8.76-5.48a5.32,5.32,0,1,0-1.84-4,5.57,5.57,0,0,0,.18,1.36l-7.1,4.44v-21a5.33,5.33,0,1,0-3.14,0V71.91l-3.87-2.23a5.19,5.19,0,0,0,.12-1.12,5.33,5.33,0,1,0-5.33,5.33,5.26,5.26,0,0,0,3.67-1.48l5.41,3.12v47.78l-3.87-2.24A5.13,5.13,0,0,0,102,120a5.34,5.34,0,1,0-1.66,3.86l5.41,3.12v91.39h3.14V93.26l16.29-10.2a5.32,5.32,0,1,0-1.84-4,5.51,5.51,0,0,0,.18,1.36l-14.63,9.16V52.1l19.76,11.49,15-8.64L157,62.68V78.14l-15,8.62V104l-13.38,7.71-4.39-2.52a5.35,5.35,0,1,0-1.58,2.71l4.4,2.52v15.45l-7.15,4.1-7.15,4.09-.79.45v55.18l25.72,25.71,2.21-2.21-24.79-24.8v-32.9l13.53,7.64L140,160.61a5.27,5.27,0,0,0,3.62,1.43,5.34,5.34,0,1,0-5.33-5.33,5.23,5.23,0,0,0,.14,1.19l-9.77,5.64-13.51-7.63V140.35l7.15-4.09,6.36-3.65,15,8.64,15-8.63,9.63,5.56s0,.1,0,.15a5.34,5.34,0,1,0,10.67,0Zm9.57-27a2.2,2.2,0,1,1-2.2,2.2A2.19,2.19,0,0,1,188.41,111.34Zm-1-34.49A2.2,2.2,0,1,1,185.23,79,2.2,2.2,0,0,1,187.42,76.85ZM173.5,50.94a2.2,2.2,0,1,1-2.19,2.2A2.21,2.21,0,0,1,173.5,50.94ZM121.14,34.53a2.2,2.2,0,1,1-2.2,2.2A2.2,2.2,0,0,1,121.14,34.53ZM96.66,70.75a2.2,2.2,0,1,1,2.2-2.19A2.2,2.2,0,0,1,96.66,70.75Zm0,51.4a2.2,2.2,0,1,1,2.2-2.2A2.21,2.21,0,0,1,96.66,122.15Zm32-45.3a2.2,2.2,0,1,1-2.2,2.19A2.19,2.19,0,0,1,128.67,76.85ZM105.11,16.42a2.2,2.2,0,1,1,2.2,2.19A2.21,2.21,0,0,1,105.11,16.42ZM141.4,35.87a2.2,2.2,0,1,1,2.19,2.2A2.19,2.19,0,0,1,141.4,35.87ZM119.06,110.2a2.2,2.2,0,1,1,2.2-2.19A2.19,2.19,0,0,1,119.06,110.2Zm24.53,44.31a2.2,2.2,0,1,1-2.19,2.2A2.21,2.21,0,0,1,143.59,154.51Zm12.76-42.74a2.2,2.2,0,1,1,2.2,2.2A2.2,2.2,0,0,1,156.35,111.77Zm17.15,28.76a2.2,2.2,0,1,1,2.2-2.2A2.19,2.19,0,0,1,173.5,140.53Z" transform="translate(-9.64 -11.08)"/><path d="M254.81,187.11a18.93,18.93,0,0,0-5.9-.74h-5.2v24.75h5.13a19,19,0,0,0,5.82-.69,11.5,11.5,0,0,0,4.2-2.45,11.71,11.71,0,0,0,4-9.23,11.83,11.83,0,0,0-3.84-9.19A11,11,0,0,0,254.81,187.11Zm1.52,18.19a8.34,8.34,0,0,1-3,1.78,13.83,13.83,0,0,1-4.19.53h-1.68V189.88h1.68q4.78,0,7.23,2.26a8.6,8.6,0,0,1,2.73,6.61A8.44,8.44,0,0,1,256.33,205.3Z" transform="translate(-9.64 -11.08)"/><path d="M271.38,211.12h4l2.76-6h10.6l2.6,6h4.08l-11.81-26.31Zm8.33-9.52,3.85-8.42,3.67,8.42Z" transform="translate(-9.64 -11.08)"/><polygon points="292.81 178.8 298.5 178.8 298.5 200.04 302.23 200.04 302.23 178.8 307.91 178.8 307.91 175.28 292.81 175.28 292.81 178.8"/><path d="M324.57,211.12h4l2.76-6H342l2.6,6h4.09l-11.82-26.31Zm8.34-9.52,3.85-8.42,3.67,8.42Z" transform="translate(-9.64 -11.08)"/><rect x="422.02" y="175.29" width="3.74" height="24.75"/><path d="M446.39,211.12h4l2.76-6h10.6l2.59,6h4.09l-11.81-26.31Zm8.33-9.52,3.85-8.42,3.67,8.42Z" transform="translate(-9.64 -11.08)"/><path d="M550.64,211.12h4l2.76-6H568l2.59,6h4.09l-11.81-26.31ZM559,201.6l3.85-8.42,3.67,8.42Z" transform="translate(-9.64 -11.08)"/><polygon points="594.09 192.49 576.04 173.6 576.04 200.04 579.77 200.04 579.77 182.71 597.83 201.55 597.83 175.28 594.09 175.28 594.09 192.49"/><path d="M618.63,211.12h4l2.75-6H636l2.6,6h4.08l-11.81-26.31ZM627,201.6l3.85-8.42,3.67,8.42Z" transform="translate(-9.64 -11.08)"/><polygon points="647.77 175.28 644.03 175.28 644.03 200.04 655.05 200.04 655.05 196.53 647.77 196.53 647.77 175.28"/><polygon points="671.25 185.18 665.59 175.28 661.29 175.28 669.37 189.34 669.37 200.04 673.11 200.04 673.11 189.34 681.22 175.28 676.92 175.28 671.25 185.18"/><polygon points="690.96 178.8 696.65 178.8 696.65 200.04 700.39 200.04 700.39 178.8 706.06 178.8 706.06 175.28 690.96 175.28 690.96 178.8"/><rect x="717.27" y="175.29" width="3.74" height="24.75"/><path d="M746.37,190.43a12.67,12.67,0,0,0-3.13,8.43,12.28,12.28,0,0,0,3.74,9,12.42,12.42,0,0,0,9.06,3.7,13.49,13.49,0,0,0,6.73-1.81v-4.5a18.85,18.85,0,0,1-1.74,1.31,10.18,10.18,0,0,1-1.6.87,8,8,0,0,1-3.35.64,8.7,8.7,0,0,1-6.44-2.68,9,9,0,0,1-2.63-6.57,9.24,9.24,0,0,1,2.63-6.67,8.51,8.51,0,0,1,6.43-2.74,10.39,10.39,0,0,1,6.7,2.7V187.7a12.63,12.63,0,0,0-6.45-1.81A12.42,12.42,0,0,0,746.37,190.43Z" transform="translate(-9.64 -11.08)"/><path d="M784.2,196.41l-2.47-1c-1.8-.74-2.7-1.71-2.7-2.92a2.73,2.73,0,0,1,1-2.18,4.32,4.32,0,0,1,4.65-.37,5.29,5.29,0,0,1,1.62,1.92l3-1.79q-2.4-4.17-6.69-4.17a7.7,7.7,0,0,0-5.3,1.89,6,6,0,0,0-2.14,4.67c0,2.75,1.7,4.85,5.09,6.28l2.38,1a10,10,0,0,1,1.61.85,5.21,5.21,0,0,1,1.1.94,3.39,3.39,0,0,1,.62,1.11,4,4,0,0,1,.2,1.32,4,4,0,0,1-1.15,3,4.26,4.26,0,0,1-6.27-.44,6.36,6.36,0,0,1-.9-3l-3.78.83a8.76,8.76,0,0,0,2.58,5.37,7.57,7.57,0,0,0,5.32,1.91,7.83,7.83,0,0,0,5.69-2.24,7.57,7.57,0,0,0,2.28-5.65,6.71,6.71,0,0,0-1.4-4.3A10.48,10.48,0,0,0,784.2,196.41Z" transform="translate(-9.64 -11.08)"/><path class="cls-1" d="M391.66,190.69a9.21,9.21,0,0,0-13.81,8h0a9.19,9.19,0,0,0,4.6,8h0a9.24,9.24,0,0,0,9.21,0h0a9.21,9.21,0,0,0,4.6-8h0A9.21,9.21,0,0,0,391.66,190.69Z" transform="translate(-9.64 -11.08)"/><path class="cls-1" d="M510.71,190.69a9.21,9.21,0,0,0-13.81,8h0a9.2,9.2,0,0,0,4.61,8h0a9.22,9.22,0,0,0,9.2,0h0a9.19,9.19,0,0,0,4.6-8h0A9.19,9.19,0,0,0,510.71,190.69Z" transform="translate(-9.64 -11.08)"/></svg>