<svg xmlns="http://www.w3.org/2000/svg" viewBox="0 0 563 222.39"><defs><style>.cls-1{fill:#fdfefe;}.cls-2{fill:#f16823;}.cls-3{fill:#219691;}.cls-4{fill:#299894;}.cls-5{fill:#fdf4e9;}.cls-6{fill:#f7d2af;}</style></defs><title>Orange Sonatel</title><g id="Calque_2" data-name="Calque 2"><g id="Calque_1-2" data-name="Calque 1"><path class="cls-1" d="M281.45.06Q420.58.06,559.7,0c2.52,0,3.3.38,3.3,3.16q-.15,108.14,0,216.28c0,2.27-.27,2.95-2.81,2.95q-278.59-.13-557.2,0c-2.28,0-3-.27-2.95-2.81Q.16,111.24,0,2.93C0,.08,1,0,3.19,0Q142.32.1,281.45.06Zm209,188.22.18.24.46.57,1.47,1.57a23.26,23.26,0,0,0,24.81,5.83c5.42-2,10-5.07,11.74-11.28-1.35-.15-1.56.64-2,1.17-8.52,11.44-22,11.1-29.65-.75l-.49-1.41-.24-.63c-.06-.23-.11-.47-.17-.7a2.74,2.74,0,0,0-.56-2.06h0l-.66-3.6a.6.6,0,0,0-.06-.63c0-3.14.06-6.29-.15-9.43-.18-2.66.88-3.33,3.44-3.29,7.33.11,14.66-.07,22-.13l7.15,0c.54.17,1.06.29,1.24-.47a5.75,5.75,0,0,0-.27-3.43c-3-11.17-14.44-17.23-26-13.77-9,2.71-14.43,8.73-16.61,17.8-.31.63-.91,1.25-.09,1.93-.71.36-.63,1-.6,1.65a20,20,0,0,0,0,9.16l.2,1.49a2.31,2.31,0,0,0,.51,2l.25.82c.16.41.31.83.47,1.24a13.07,13.07,0,0,0,3.3,5.86v.22Zm-233.67-9.49,0,0a11,11,0,0,1,2.48,9l-.29.81-1.69,2.51h0a16.78,16.78,0,0,1-7.49,2.61h-2.19l-3.44-.76a.77.77,0,0,0-.65-.17,23,23,0,0,1-11-11.38v13c1.54-3.73,3.29-4.06,6-1.15a7.2,7.2,0,0,0,4.25,2.24l.11,0a7.63,7.63,0,0,0,4.77,1.29,7.48,7.48,0,0,0,3.55.11c6.94-.19,11.76-3.55,14.06-9.8,2.75-7,.37-13.94-6.54-18-4.33-2.54-9-4.57-13.4-6.92-4-2.12-6.7-5.13-6-10.09.9-.16,1-.94,1.19-1.6a2.77,2.77,0,0,0,1.5-1.63c7.76-4.87,12.19-2.86,21.34,9.66.74-3.45.67-9.86-.14-12.35-1.81,3.84-1.8,3.84-5.47,1.25a24.16,24.16,0,0,0-2.35-1.52c-5.76-3.2-14-2-18.13,2.56a13.49,13.49,0,0,0-.79,16.76,9.07,9.07,0,0,0,2.82,3.08c4.73,3.72,10.3,6,15.49,8.94A3.58,3.58,0,0,0,256.82,178.79Zm148.52-32.44a15.23,15.23,0,0,0-8.8,5.68c-1.39,1.82-2.41,3.81-1.31,6.12.68,1.43,2.06,1.79,3.55,1.63,2.65-.27,3.64-2.22,4.31-4.43.2-.66.3-1.36.47-2a8.53,8.53,0,0,1,4.57-5.76,18.38,18.38,0,0,1,11.27.18c5.26,2.58,5.15,7.53,5.58,12.33.21,2.39-.65,3.57-2.89,4.38a113.35,113.35,0,0,0-17.58,7.86c-3.75,2.15-7.5,4.37-9.83,8.23-3.89,6.44-1.38,13.42,5.75,15.8a15.5,15.5,0,0,0,11.92-.91c1.19-.46,2.38-.91,3.56-1.38,3.24-1.3,5.78-3.89,9.15-5,1.91,7.14,6.91,9.65,14,7,4-2,5.59-5,4.57-9-1.08,1.7-1.75,3.59-3.29,4.87-4.83,1.23-6.54,0-6.77-4.92-.08-1.63,0-3.27,0-4.9,0-7.94.11-15.89-.18-23.82-.29-7.62-5.5-12.38-12.58-12-4.12-2.44-8.4-1.27-12.66-.56l-1.62.41ZM281.46,187.9h0c6.8,9.29,22.25,12.28,32.32,6.26,12.72-5.41,18-23.27,10.69-35.86-.53-1.5-1-3-2.76-3.62l0,0a14.12,14.12,0,0,0-1.33-2.42c-7.89-9.4-25.29-10.6-34.64-2.4-10.64,7.45-13.62,23.9-6.38,35.17A5,5,0,0,0,281.46,187.9Zm66.17-29c3.73-4.6,7.7-8.86,14-9.79,8.17.52,10.72,3.17,10.76,11.48q.09,16.17,0,32.34c0,2.22.61,3.33,3,3.09a14.66,14.66,0,0,1,2.81,0c2.35.18,3.36-.69,3.24-3.21-.18-4.1,0-8.2-.07-12.3-.15-8.08.5-16.17-.55-24.23-.7-5.38-3.79-8.7-8.8-10.3a16.91,16.91,0,0,0-13,.63c-4.72,1.3-7.89,4.55-10.59,8.4l-1.28-.49a1.61,1.61,0,0,0-.18-1.93l-.21-.69,0-.73-.07-1.23a2.39,2.39,0,0,0-.4-2.23c.16-1.93-.51-3-2.63-2.43-4.09,1.11-8.17,2.26-12.63,3.49,7.32,2.25,7.44,2.24,7.54,9.77.14,11.25.32,22.51.05,33.75-.11,4.3,2.38,3.55,4.9,3.74,2.84.21,4.19-.42,4.13-3.77C347.42,181.2,347.59,170.07,347.63,158.94ZM475,192.78c-6.26,2.07-9.8-.28-10.49-7a14.65,14.65,0,0,1-.09-1.75c0-10.65,0-21.31-.1-32,0-2.14.69-2.91,2.84-2.8,3,.16,6.08.12,9.12.08.84,0,2.14.31,2.21-1,.09-1.71-1.38-1.23-2.32-1.26a63.89,63.89,0,0,0-8.07,0c-3.25.36-4.05-1-3.79-4a71.67,71.67,0,0,0,0-8.42c0-1.07.64-2.79-.85-3-1.72-.25-1.2,1.66-1.5,2.64-1.75,5.72-4.4,10.62-10.77,12.27-1.06.28-2.76,0-2.58,1.63s1.89,1.12,2.87,1c3.49-.43,4.39,1.13,4.34,4.4-.14,9.82,0,19.66,0,29.49a21.33,21.33,0,0,0,.79,6.6c2.37,7.35,12.68,10.43,18.39,5.49,3.3-.83,4.38-3.46,5.06-6.47ZM112,209.69c31.54,0,63.07-.06,94.61.07,3.29,0,4-.92,4-4.08q-.13-93.87-.06-187.74c0-6,0-6-5.86-6q-93.72,0-187.45,0c-2.29,0-3.84-.11-3.83,3.18q.17,95.46,0,190.91c0,2.84.64,3.72,3.63,3.71C48.66,209.65,80.31,209.69,112,209.69ZM533.4,117.27c6.89.57,6.66,5.61,6.84,10.34.08,2.11,0,4.22,0,6.33,0,19.56.06,39.12-.08,58.69,0,3,1.12,3.69,3.7,3.39,2.29-.26,5.19,1.14,5.11-3.41-.24-13.82-.07-27.65-.07-41.47,0-11.48-.07-23,0-34.44,0-2.79-.82-3.31-3.27-2.11C541.94,116.42,537.85,116.84,533.4,117.27Z" transform="translate(0 0)"/><path class="cls-2" d="M112,209.69c-31.65,0-63.3,0-94.95.07-3,0-3.64-.87-3.63-3.71q.1-95.46,0-190.91c0-3.29,1.54-3.18,3.83-3.18q93.72,0,187.45,0c5.88,0,5.86,0,5.86,6q0,93.87.06,187.74c0,3.16-.69,4.1-4,4.08C175,209.63,143.5,209.69,112,209.69Zm37.82-21.18c1,3.86.14,7.22-2.29,8.17-2.87,1.13-5.7,1.15-7.83-1.8-.87-1.22-6.62-1.8-7.06-.76-.93,2.18.57,3.73,1.87,5.24a2.86,2.86,0,0,0,.52.46c5.11,3.5,10.56,3.48,16.06,1.26,5-2,6.15-6.39,6.19-11.2q.09-10.53,0-21.06c0-1.18.8-3-.71-3.44-2-.55-4.69-1.11-6,.45-1.17,1.41-1.41.92-2.41.28A10.54,10.54,0,0,0,133,170.05a17.34,17.34,0,0,0-1.2,13c1.63,6.14,6.49,9.24,12.74,8.22C146.59,190.91,148.09,189.6,149.78,188.51Zm-53-6.84h-.25c0-3.39.07-6.78,0-10.17a6.09,6.09,0,0,0-4.56-6,19.62,19.62,0,0,0-14.37.57,8,8,0,0,0-3.62,3.21c-1.93,3.26-1.37,4.23,2.4,4.28,1.9,0,3.4,0,4.53-2.19,1.24-2.4,3.94-2.17,6.29-1.53A2.66,2.66,0,0,1,89.3,173c-.52,2.64-2.72,2.81-4.87,3.07a58.65,58.65,0,0,0-5.88,1c-4.63,1-6.94,4-6.59,8.49s3.24,7.08,7.89,7.34a13.28,13.28,0,0,0,8.08-1.79c.87-.54,1.38-1.14,2.46.24,1.44,1.85,4,1.21,5.88.67s.36-2.4.42-3.67C96.81,186.12,96.73,183.89,96.73,181.67Zm81.24-1.1v0c2.57,0,5.14,0,7.72,0,1.24,0,1.89-.35,2-1.76.45-5-3-11.17-7.5-13.32a13.32,13.32,0,0,0-14.85,3c-3.84,4.18-4.35,9.28-3.23,14.48s4.27,8.63,9.54,9.6,10.1.34,13.45-4.46c.82-1.17,2.54-2.93,1.34-3.83-1.39-1-3.8-.94-5.63.09-.79.44-1.32,1.34-2.09,1.84-3.46,2.27-8.07.91-9.38-2.67-.7-1.94-.61-3.16,2-3C173.52,180.66,175.75,180.57,178,180.57Zm-142.39-16c-8.57-.14-13.74,5.1-13.91,14.08-.15,8.49,5,14.14,12.95,14.29,9,.16,14.16-5,14.25-14C49,170.09,43.92,164.65,35.58,164.52ZM102,178.71h0c0,3.63.15,7.27,0,10.89-.19,3.47,2.33,2.48,4,2.66,1.88.2,3.38,0,3.25-2.72a118.92,118.92,0,0,1,.12-13.35c.27-4,2.19-5.85,5.21-5.82s4.64,1.95,4.75,6.13c.12,4.33.18,8.68,0,13-.16,3.7,2.48,2.52,4.31,2.77,2.17.29,3.12-.48,3-2.9-.19-4.79,0-9.6-.07-14.4-.05-3.73-.47-7.52-4.29-9.34s-8-1.76-11.52,1.24c-.84.71-1.25,1.48-1.93-.43-.9-2.5-3.44-.93-5.22-1.08-2-.17-1.64,1.61-1.66,2.8C102,171.68,102,175.19,102,178.71ZM60.4,169c.32-5-2.81-3.65-5-3.74-2.84-.11-1.9,2.13-1.92,3.53-.08,6.66.13,13.32-.09,20-.1,2.86.93,3.61,3.53,3.55,2.35-.06,4.05-.17,3.76-3.35a69.81,69.81,0,0,1,0-9.81c.22-5.2,2.37-7.42,7.51-7.59,3.75-.13,1.76-2.81,2.09-4.36.39-1.79-.38-2.88-2.5-2.67C64.87,164.85,62.87,166.56,60.4,169Zm135.69-8.42c-2.64-3.06-6.76-3.91-11.11-2.23,1.23.91,2.44,1.66,2.27,3.47-.11,1.24-.7,3.67.69,3.61,1.94-.07.79-2.44,1.05-3.79.2-1,.08-2.34,1.51-2.33,1.69,0,1,1.5,1.08,2.37.17,2.53.11,2.53,2.26,2.38.17,0,.42.21.54.39,2.1,3,2.27,0,3.1-1,.89.49.24,2.46,1.73,2.09,1.13-.28.62-1.6.67-2.47.07-1.28,0-2.57,0-3.86,0-.71-.06-1.46-1-1.6a1.47,1.47,0,0,0-1.89,1.08A14.76,14.76,0,0,1,196.09,160.61Z" transform="translate(0 0)"/><path class="cls-3" d="M412.35,195.43a15.5,15.5,0,0,1-11.92.91c-7.13-2.38-9.64-9.36-5.75-15.8,2.33-3.86,6.08-6.08,9.83-8.23a113.35,113.35,0,0,1,17.58-7.86c2.24-.81,3.1-2,2.89-4.38-.43-4.8-.32-9.75-5.58-12.33a1.27,1.27,0,0,1,1.4-1.39c7.08-.36,12.29,4.4,12.58,12,.29,7.93.14,15.88.18,23.82,0,1.63,0,3.27,0,4.9.23,4.92,1.94,6.15,6.77,4.92.37.19,1.41-.14.68.89s-1.77,1.87-2,3.22c-7.12,2.63-12.12.12-14-7,0-.91,0-1.82-.07-2.73,0-6,0-11.91-.07-17.86,0-.86.52-2.54-1.42-1.76-6.05,2.43-12.34,4.44-17,9.44-5.25,5.65-4.63,12.24,1.62,16.68C409.33,194.07,411.9,193,412.35,195.43Z" transform="translate(0 0)"/><path class="cls-3" d="M533.4,117.27c4.45-.43,8.54-.85,12.3-2.68,2.45-1.2,3.29-.68,3.27,2.11-.09,11.48,0,23,0,34.44,0,13.82-.17,27.65.07,41.47.08,4.55-2.82,3.15-5.11,3.41-2.58.3-3.72-.41-3.7-3.39.14-19.57.08-39.13.08-58.69,0-2.11,0-4.22,0-6.33C540.06,122.88,540.29,117.84,533.4,117.27Z" transform="translate(0 0)"/><path class="cls-3" d="M475,195.24c-5.71,4.94-16,1.86-18.39-5.49a21.33,21.33,0,0,1-.79-6.6c0-9.83-.14-19.67,0-29.49,0-3.27-.85-4.83-4.34-4.4-1,.13-2.7.73-2.87-1s1.52-1.35,2.58-1.63c6.37-1.65,9-6.55,10.77-12.27.3-1-.22-2.89,1.5-2.64,1.49.22.82,1.94.85,3a71.67,71.67,0,0,1,0,8.42c-.26,3,.54,4.31,3.79,4a63.89,63.89,0,0,1,8.07,0c.94,0,2.41-.45,2.32,1.26-.07,1.36-1.37,1-2.21,1-3,0-6.09.08-9.12-.08-2.15-.11-2.86.66-2.84,2.8.1,10.65.08,21.31.1,32a14.65,14.65,0,0,0,.09,1.75c.69,6.68,4.23,9,10.49,7C476.12,193.59,475.62,194.41,475,195.24Z" transform="translate(0 0)"/><path class="cls-4" d="M359,146.68a16.91,16.91,0,0,1,13-.63c5,1.6,8.1,4.92,8.8,10.3,1.05,8.06.4,16.15.55,24.23.09,4.1-.11,8.2.07,12.3.12,2.52-.89,3.39-3.24,3.21a14.66,14.66,0,0,0-2.81,0c-2.36.24-3-.87-3-3.09q.12-16.17,0-32.34c0-8.31-2.59-11-10.76-11.48C360.09,149,360,147.41,359,146.68Z" transform="translate(0 0)"/><path class="cls-4" d="M347.11,154.59l1.28.49a8.16,8.16,0,0,0-.76,3.86c0,11.13-.21,22.26,0,33.39.06,3.35-1.29,4-4.13,3.77-2.52-.19-5,.56-4.9-3.74.27-11.24.09-22.5-.05-33.75-.1-7.53-.22-7.52-7.54-9.77,4.46-1.23,8.54-2.38,12.63-3.49,2.12-.57,2.79.5,2.63,2.43-.36.83-1.06,1.73.4,2.23,0,.41.05.82.07,1.23l-.56.51.58.22.21.69Z" transform="translate(0 0)"/><path class="cls-3" d="M259,188.55l.29-.81c2-5.4,1.35-7.75-2.48-9l0,0c.06-1.47-1-1.5-2-1.5-5.19-2.93-10.76-5.22-15.49-8.94a9.07,9.07,0,0,1-2.82-3.08c1-1.71,0-3.08-.74-4.52-1.92-3.94.64-11.43,4.54-13.3,1.58-.75,1.79.22,1.74,1.46a2.77,2.77,0,0,1-1.5,1.63c-.94.13-1.26.72-1.19,1.6-.69,5,2,8,6,10.09,4.44,2.35,9.07,4.38,13.4,6.92,6.91,4,9.29,11,6.54,18-1.17,0-1.47,1-1.9,1.81-1.88,3.6-5,5.42-8.94,6.56.11-2.36,2.82-2.47,2.87-4.44h0C259.69,191.44,258.74,189.59,259,188.55Z" transform="translate(0 0)"/><path class="cls-3" d="M490.27,188a13.07,13.07,0,0,1-3.3-5.86c-.16-.41-.31-.83-.47-1.24s-.17-.54-.25-.82c0-.7.13-1.45-.51-2l-.2-1.49,0-9.16c0-.64-.11-1.29.6-1.65l.09-1.93c2.18-9.07,7.6-15.09,16.61-17.8,11.52-3.46,23,2.6,26,13.77a5.75,5.75,0,0,1,.27,3.43l-1.24.47-7.15,0c-1-.84-2.24-.49-3.37-.49-6.06,0-12.12,0-18.18,0-1.16,0-2.72.54-3-1.43,6.79,0,13.57,0,20.36-.13.91,0,2.09.58,2.66-.91,1.51-3.93-2.2-11.51-6.35-12.84-10.4-3.32-17.15,4.24-17.1,13.79-2.94.49-4.35-1.27-5.32-3.89-.47,3-2.53,5.24-3.18,7.81-.69,2.76-.15,5.82-.23,8.75-.1,4,1.76,7.4,3.46,10.81.41.84,1.21,2,2.44,1.65s1.14-1.6,1.14-2.65c0-1.56-.1-3.18,2.11-3.35h0c0,.74-.13,1.51.56,2.06.06.23.11.47.17.7a1,1,0,0,0,.24.63l.49,1.41-4.94,5-1.47-1.57-.46-.57-.18-.24Z" transform="translate(0 0)"/><path class="cls-3" d="M279.38,185.05c-7.24-11.27-4.26-27.72,6.38-35.17,1.1.17,2.49-.55,3.22.68.81,1.38-.92,1.9-1.25,2.84-.78,2.24-3.2,4.27-1.3,7l-.29,1.4c-1.69.43-.61,1.37-.39,2.15q0,7,0,14c-.91,3-1,5.76,1.95,7.76l.25.67-.89.31c.27.68.88.32,1.33.43a.56.56,0,0,1,.22.56c-.18,4-.15,3.95-3.6,1.92-1.12-.67-1.88-2.19-3.55-1.74h0C280.92,186.84,283,183.86,279.38,185.05Z" transform="translate(0 0)"/><path class="cls-3" d="M324.46,158.29c7.35,12.59,2,30.45-10.69,35.86h-4.16c8.5-5.49,8.62-14,9.86-22.1.22-1.41.07-2.88-1.84-3.2-.05-.47-.11-.94-.16-1.41.08-.07.24-.17.23-.2a2.62,2.62,0,0,0-.27-.49l-.07-2.1c2.31-.64,1.43-2.23,1-3.6-.35-1.08-1.22-2.05-.9-3.26.58-2.2-1.08-1.41-2-1.6a.68.68,0,0,1-.19-.63l0-2.11c0-.93-.12-2.13.93-2.43,1.52-.43,1.58,1.08,1.84,2,.61,2.06,2.14,1.82,3.68,1.71l0,0A3.76,3.76,0,0,0,324.46,158.29Z" transform="translate(0 0)"/><path class="cls-4" d="M496.08,180.82c-2.21.17-2.11,1.79-2.11,3.35,0,1.05.15,2.31-1.14,2.65s-2-.81-2.44-1.65c-1.7-3.41-3.56-6.8-3.46-10.81.08-2.93-.46-6,.23-8.75.65-2.57,2.71-4.76,3.18-7.81,1,2.62,2.38,4.38,5.32,3.89l.23,0,.2.12c.29,2,1.85,1.42,3,1.43,6.06,0,12.12,0,18.18,0,1.13,0,2.35-.35,3.37.49-7.34.06-14.67.24-22,.13-2.56,0-3.62.63-3.44,3.29.21,3.14.11,6.29.15,9.43-1.72-1.89.33-4.69-1.65-7a11.56,11.56,0,0,0,1.52,9.72c.11-1.15.15-1.61.19-2.07Zm-1.67-14.58c-.07-.2-.1-.5-.24-.57s-.39.13-.58.21c.07.19.1.5.24.56S494.21,166.32,494.41,166.24Z" transform="translate(0 0)"/><path class="cls-4" d="M492.6,190.66l4.94-5c7.61,11.85,21.13,12.19,29.65.75.4-.53.61-1.32,2-1.17-1.71,6.21-6.32,9.25-11.74,11.28A23.26,23.26,0,0,1,492.6,190.66Z" transform="translate(0 0)"/><path class="cls-4" d="M321.73,154.7c-1.54.11-3.07.35-3.68-1.71-.26-.89-.32-2.4-1.84-2-1,.3-.92,1.5-.93,2.43l0,2.11c-.52-.77-1-1.53-1.58-2.29-6.17-8.76-20.68-7.67-25.37,1.94a46.75,46.75,0,0,0-1.87,5.21c-1.9-2.75.52-4.78,1.3-7,.33-.94,2.06-1.46,1.25-2.84-.73-1.23-2.12-.51-3.22-.68,9.35-8.2,26.75-7,34.64,2.4A14.12,14.12,0,0,1,321.73,154.7Z" transform="translate(0 0)"/><path class="cls-4" d="M317.63,168.85c1.91.32,2.06,1.79,1.84,3.2-1.24,8.06-1.36,16.61-9.86,22.1h4.16c-10.07,6-25.52,3-32.32-6.26,1.67-.45,2.43,1.07,3.55,1.74,3.45,2,3.42,2.08,3.6-1.92a13.19,13.19,0,0,1,1,1c4.47,5.54,10.37,6.43,16.8,4.84,6.21-1.54,9-6.27,10.19-12.15C317.43,177.26,317.33,173,317.63,168.85Z" transform="translate(0 0)"/><path class="cls-4" d="M242.05,148.91c0-1.24-.16-2.21-1.74-1.46-3.9,1.87-6.46,9.36-4.54,13.3.7,1.44,1.73,2.81.74,4.52a13.49,13.49,0,0,1,.79-16.76c4.11-4.58,12.37-5.76,18.13-2.56a24.16,24.16,0,0,1,2.35,1.52c3.67,2.59,3.66,2.59,5.47-1.25.81,2.49.88,8.9.14,12.35C254.24,146.05,249.81,144,242.05,148.91Z" transform="translate(0 0)"/><path class="cls-3" d="M408.13,147.56a8.53,8.53,0,0,0-4.57,5.76c-.17.67-.27,1.37-.47,2-.67,2.21-1.66,4.16-4.31,4.43-1.49.16-2.87-.2-3.55-1.63-1.1-2.31-.08-4.3,1.31-6.12a15.23,15.23,0,0,1,8.8-5.68l1.18-.15,1.62-.41C408.14,146.38,408.14,147,408.13,147.56Z" transform="translate(0 0)"/><path class="cls-4" d="M242.82,195.5a7.2,7.2,0,0,1-4.25-2.24c-2.68-2.91-4.43-2.58-6,1.15v-13a23,23,0,0,0,11,11.38C241.89,193.27,242.72,194.49,242.82,195.5Z" transform="translate(0 0)"/><path class="cls-3" d="M347.63,158.94a8.16,8.16,0,0,1,.76-3.86c2.7-3.85,5.87-7.1,10.59-8.4,1,.73,1.11,2.35,2.65,2.47C355.33,150.08,351.36,154.34,347.63,158.94Z" transform="translate(0 0)"/><path class="cls-4" d="M425,186.37c0,.91.05,1.82.07,2.73-3.37,1.06-5.91,3.65-9.15,5-1.18.47-2.37.92-3.56,1.38-.45-2.41-3-1.36-4.21-2.56C414.9,193.65,419.88,189.84,425,186.37Z" transform="translate(0 0)"/><path class="cls-4" d="M257.34,191.07c0,2-2.76,2.08-2.87,4.44,3.93-1.14,7.06-3,8.94-6.56.43-.84.73-1.77,1.9-1.81-2.3,6.25-7.12,9.61-14.06,9.8.45-1.48-1.2-2.06-1.4-3.26A16.78,16.78,0,0,0,257.34,191.07Z" transform="translate(0 0)"/><path class="cls-4" d="M408.13,147.56c0-.59,0-1.18,0-1.77,4.26-.71,8.54-1.88,12.66.56a1.27,1.27,0,0,0-1.4,1.39A18.38,18.38,0,0,0,408.13,147.56Z" transform="translate(0 0)"/><path class="cls-3" d="M249.85,193.68c.2,1.2,1.85,1.78,1.4,3.26a7.48,7.48,0,0,1-3.55-.11c-1.18-1.94-3.14-1-4.77-1.29l-.11,0c-.1-1-.93-2.23.75-2.76a.77.77,0,0,1,.65.17c.76,2,2.09,1.41,3.44.76Z" transform="translate(0 0)"/><path class="cls-4" d="M439.09,196.12c.19-1.35,1.23-2.19,2-3.22s-.31-.7-.68-.89c1.54-1.28,2.21-3.17,3.29-4.87C444.68,191.1,443.09,194.17,439.09,196.12Z" transform="translate(0 0)"/><path class="cls-4" d="M475,195.24c.59-.83,1.09-1.65,0-2.46l5.08-4C479.41,191.78,478.33,194.41,475,195.24Z" transform="translate(0 0)"/><path class="cls-4" d="M256.8,178.77c3.83,1.22,4.48,3.57,2.48,9A11,11,0,0,0,256.8,178.77Z" transform="translate(0 0)"/><path class="cls-3" d="M495.42,177.22c0,.46-.08.92-.19,2.07a11.56,11.56,0,0,1-1.52-9.72c2,2.33-.07,5.13,1.65,7A.6.6,0,0,1,495.42,177.22Z" transform="translate(0 0)"/><path class="cls-4" d="M485.51,167.41l0,9.16A20,20,0,0,1,485.51,167.41Z" transform="translate(0 0)"/><path class="cls-4" d="M279.38,185.05c3.63-1.19,1.54,1.79,2.08,2.85A5,5,0,0,1,279.38,185.05Z" transform="translate(0 0)"/><path class="cls-4" d="M324.46,158.29a3.76,3.76,0,0,1-2.76-3.62C323.46,155.24,323.93,156.79,324.46,158.29Z" transform="translate(0 0)"/><path class="cls-4" d="M242.93,195.54c1.63.29,3.59-.65,4.77,1.29A7.63,7.63,0,0,1,242.93,195.54Z" transform="translate(0 0)"/><path class="cls-4" d="M247.66,193.67c-1.35.65-2.68,1.23-3.44-.76Z" transform="translate(0 0)"/><path class="cls-4" d="M259,188.55c-.25,1,.7,2.89-1.69,2.51Z" transform="translate(0 0)"/><path class="cls-3" d="M346.63,150c-1.46-.5-.76-1.4-.4-2.23A2.39,2.39,0,0,1,346.63,150Z" transform="translate(0 0)"/><path class="cls-4" d="M254.82,177.29c1,0,2.06,0,2,1.5A3.58,3.58,0,0,1,254.82,177.29Z" transform="translate(0 0)"/><path class="cls-4" d="M239.36,152.14c-.07-.88.25-1.47,1.19-1.6C240.32,151.2,240.26,152,239.36,152.14Z" transform="translate(0 0)"/><path class="cls-4" d="M496.64,182.89c-.69-.55-.54-1.32-.56-2.06A2.74,2.74,0,0,1,496.64,182.89Z" transform="translate(0 0)"/><path class="cls-4" d="M485.74,178.06c.64.55.49,1.3.51,2A2.31,2.31,0,0,1,485.74,178.06Z" transform="translate(0 0)"/><path class="cls-3" d="M347.11,154.59l-.18-1.93A1.61,1.61,0,0,1,347.11,154.59Z" transform="translate(0 0)"/><path class="cls-4" d="M486.5,180.88c.16.41.31.83.47,1.24C486.81,181.71,486.66,181.29,486.5,180.88Z" transform="translate(0 0)"/><path class="cls-4" d="M527.8,163.7l1.24-.47C528.86,164,528.34,163.87,527.8,163.7Z" transform="translate(0 0)"/><path class="cls-4" d="M406.52,146.2l-1.18.15Z" transform="translate(0 0)"/><path class="cls-4" d="M486.2,163.83l-.09,1.93C485.29,165.08,485.89,164.46,486.2,163.83Z" transform="translate(0 0)"/><path class="cls-3" d="M346.72,152l-.58-.22.56-.51C346.71,151.48,346.71,151.73,346.72,152Z" transform="translate(0 0)"/><path class="cls-4" d="M490.67,188.52l.46.57Z" transform="translate(0 0)"/><path class="cls-4" d="M490.27,188l.22.3-.22-.08Z" transform="translate(0 0)"/><path class="cls-4" d="M497.05,184.22a1,1,0,0,1-.24-.63Z" transform="translate(0 0)"/><path class="cls-5" d="M149.78,188.51c-1.69,1.09-3.19,2.4-5.21,2.73-6.25,1-11.11-2.08-12.74-8.22a17.34,17.34,0,0,1,1.2-13,10.54,10.54,0,0,1,15.06-3.94c1,.64,1.24,1.13,2.41-.28,1.3-1.56,4-1,6-.45,1.51.42.7,2.26.71,3.44q.12,10.53,0,21.06c0,4.81-1.2,9.19-6.19,11.2-5.5,2.22-11,2.24-16.06-1.26a2.86,2.86,0,0,1-.52-.46c-1.3-1.51-2.8-3.06-1.87-5.24.44-1,6.19-.46,7.06.76,2.13,3,5,2.93,7.83,1.8C149.92,195.73,150.75,192.37,149.78,188.51Zm.62-10.5c0-4.19-2-7.24-5.13-7.74s-5.62,1.24-6.51,4.47c-1.17,4.24.38,9.32,3.33,10.53a5.33,5.33,0,0,0,6.58-1.69A8.89,8.89,0,0,0,150.4,178Z" transform="translate(0 0)"/><path class="cls-5" d="M96.73,181.67c0,2.22.08,4.45,0,6.66-.06,1.27,1.3,3.18-.42,3.67s-4.44,1.18-5.88-.67c-1.08-1.38-1.59-.78-2.46-.24a13.28,13.28,0,0,1-8.08,1.79c-4.65-.26-7.55-3-7.89-7.34s2-7.46,6.59-8.49a58.65,58.65,0,0,1,5.88-1c2.15-.26,4.35-.43,4.87-3.07a2.66,2.66,0,0,0-2.16-3.16c-2.35-.64-5-.87-6.29,1.53-1.13,2.21-2.63,2.22-4.53,2.19-3.77-.05-4.33-1-2.4-4.28a8,8,0,0,1,3.62-3.21,19.62,19.62,0,0,1,14.37-.57,6.09,6.09,0,0,1,4.56,6c.08,3.39,0,6.78,0,10.17Zm-7.3.18c-.37-.66.66-2.06-1.3-2.09-4.78,0-9.15,2.17-8.91,4.88s2.14,3.33,4.48,3.3C87.26,187.9,89.42,185.65,89.43,181.85Z" transform="translate(0 0)"/><path class="cls-5" d="M178,180.57c-2.22,0-4.45.09-6.66,0-2.57-.13-2.66,1.09-2,3,1.31,3.58,5.92,4.94,9.38,2.67.77-.5,1.3-1.4,2.09-1.84,1.83-1,4.24-1.13,5.63-.09,1.2.9-.52,2.66-1.34,3.83-3.35,4.8-8.25,5.41-13.45,4.46s-8.45-4.55-9.54-9.6-.61-10.3,3.23-14.48a13.32,13.32,0,0,1,14.85-3c4.52,2.15,8,8.33,7.5,13.32-.12,1.41-.77,1.78-2,1.76-2.58,0-5.15,0-7.72,0Zm-3.6-4.79a7.29,7.29,0,0,0,1.75,0c1.33-.33,3.56,1.08,3.87-.95s-1.27-3.74-3.37-4.35a5.71,5.71,0,0,0-5.35.73c-1.2,1-2.49,2.29-2.05,3.81s2.23.56,3.4.77A10.22,10.22,0,0,0,174.37,175.78Z" transform="translate(0 0)"/><path class="cls-5" d="M35.58,164.52c8.34.13,13.38,5.57,13.29,14.32-.09,9.09-5.29,14.21-14.25,14-8-.15-13.1-5.8-12.95-14.29C21.84,169.62,27,164.38,35.58,164.52Zm-6.64,14c-.06,5.06,1.83,8.13,5.31,8.62,4.15.58,6.79-1.92,7.33-6.93.61-5.71-1.65-9.71-5.66-10C31.39,169.86,29,172.72,28.94,178.56Z" transform="translate(0 0)"/><path class="cls-5" d="M102,178.71c0-3.52,0-7,0-10.55,0-1.19-.33-3,1.66-2.8,1.78.15,4.32-1.42,5.22,1.08.68,1.91,1.09,1.14,1.93.43,3.56-3,7.58-3.12,11.52-1.24s4.24,5.61,4.29,9.34c.06,4.8-.12,9.61.07,14.4.09,2.42-.86,3.19-3,2.9-1.83-.25-4.47.93-4.31-2.77.18-4.32.12-8.67,0-13-.11-4.18-1.69-6.1-4.75-6.13s-4.94,1.82-5.21,5.82a118.92,118.92,0,0,0-.12,13.35c.13,2.71-1.37,2.92-3.25,2.72-1.72-.18-4.24.81-4-2.66.19-3.62,0-7.26,0-10.89Z" transform="translate(0 0)"/><path class="cls-5" d="M60.4,169c2.47-2.47,4.47-4.18,7.34-4.47,2.12-.21,2.89.88,2.5,2.67-.33,1.55,1.66,4.23-2.09,4.36-5.14.17-7.29,2.39-7.51,7.59a69.81,69.81,0,0,0,0,9.81c.29,3.18-1.41,3.29-3.76,3.35-2.6.06-3.63-.69-3.53-3.55.22-6.65,0-13.31.09-20,0-1.4-.92-3.64,1.92-3.53C57.59,165.38,60.72,164,60.4,169Z" transform="translate(0 0)"/><path class="cls-6" d="M196.09,160.61a14.76,14.76,0,0,0,.91-1.89,1.47,1.47,0,0,1,1.89-1.08c.92.14,1,.89,1,1.6,0,1.29.08,2.58,0,3.86,0,.87.46,2.19-.67,2.47-1.49.37-.84-1.6-1.73-2.09-.83,1-1,4-3.1,1-.12-.18-.37-.4-.54-.39-2.15.15-2.09.15-2.26-2.38-.06-.87.61-2.36-1.08-2.37-1.43,0-1.31,1.28-1.51,2.33-.26,1.35.89,3.72-1.05,3.79-1.39.06-.8-2.37-.69-3.61.17-1.81-1-2.56-2.27-3.47C189.33,156.7,193.45,157.55,196.09,160.61Z" transform="translate(0 0)"/><path class="cls-1" d="M425,186.37c-5.11,3.47-10.09,7.28-16.85,6.5-6.25-4.44-6.87-11-1.62-16.68,4.64-5,10.93-7,17-9.44,1.94-.78,1.41.9,1.42,1.76C425,174.46,425,180.41,425,186.37Z" transform="translate(0 0)"/><path class="cls-1" d="M496.09,161.78l-.2-.12-.23,0c-.05-9.55,6.7-17.11,17.1-13.79,4.15,1.33,7.86,8.91,6.35,12.84-.57,1.49-1.75.9-2.66.91C509.66,161.74,502.88,161.75,496.09,161.78Z" transform="translate(0 0)"/><path class="cls-1" d="M317.63,168.85c-.3,4.19-.2,8.41-1.06,12.55-1.22,5.88-4,10.61-10.19,12.15-6.43,1.59-12.33.7-16.8-4.84a13.19,13.19,0,0,0-1-1,.56.56,0,0,0-.22-.56c-.15-.25-.3-.49-.44-.74s-.17-.44-.25-.67L285.74,178q0-7,0-14a2.65,2.65,0,0,0,.39-2.15l.29-1.4a46.75,46.75,0,0,1,1.87-5.21c4.69-9.61,19.2-10.7,25.37-1.94.54.76,1.06,1.52,1.58,2.29a.68.68,0,0,0,.19.63l1.92,8.46.07,2.1,0,.69C317.52,167.91,317.58,168.38,317.63,168.85Z" transform="translate(0 0)"/><path class="cls-4" d="M285.74,178l1.95,7.76C284.71,183.74,284.83,181,285.74,178Z" transform="translate(0 0)"/><path class="cls-4" d="M286.14,161.82a2.65,2.65,0,0,1-.39,2.15C285.53,163.19,284.45,162.25,286.14,161.82Z" transform="translate(0 0)"/><path class="cls-4" d="M287.94,186.41c.14.25.29.49.44.74-.45-.11-1.06.25-1.33-.43Z" transform="translate(0 0)"/><path class="cls-4" d="M317.36,164.65l-1.92-8.46c.94.19,2.6-.6,2,1.6-.32,1.21.55,2.18.9,3.26C318.79,162.42,319.67,164,317.36,164.65Z" transform="translate(0 0)"/><path class="cls-4" d="M317.47,167.44l0-.69a2.62,2.62,0,0,1,.27.49S317.55,167.37,317.47,167.44Z" transform="translate(0 0)"/><path class="cls-3" d="M494.41,166.24c-.2.08-.44.26-.58.2s-.17-.37-.24-.56c.19-.08.44-.27.58-.21S494.34,166,494.41,166.24Z" transform="translate(0 0)"/><path class="cls-2" d="M150.41,178a9,9,0,0,1-1.74,5.57,5.33,5.33,0,0,1-6.58,1.69c-3-1.21-4.5-6.29-3.33-10.53.89-3.23,3.43-5,6.51-4.47S150.4,173.82,150.41,178Z" transform="translate(0 0)"/><path class="cls-2" d="M89.43,181.85c0,3.8-2.17,6.05-5.73,6.09-2.34,0-4.25-.67-4.48-3.3s4.13-4.93,8.91-4.88C90.09,179.79,89.06,181.19,89.43,181.85Z" transform="translate(0 0)"/><path class="cls-2" d="M174.37,175.78a10.22,10.22,0,0,1-1.75,0c-1.17-.21-3,.78-3.4-.77s.85-2.84,2.05-3.81a5.71,5.71,0,0,1,5.35-.73c2.1.61,3.69,2.31,3.37,4.35s-2.54.62-3.87.95A7.29,7.29,0,0,1,174.37,175.78Z" transform="translate(0 0)"/><path class="cls-2" d="M28.94,178.56c.06-5.84,2.45-8.7,7-8.34,4,.32,6.27,4.32,5.66,10-.54,5-3.18,7.51-7.33,6.93C30.77,186.69,28.88,183.62,28.94,178.56Z" transform="translate(0 0)"/></g></g></svg>