<svg xmlns="http://www.w3.org/2000/svg" viewBox="0 0 573 152.84"><defs><style>.cls-1{fill:#fff;}.cls-2{fill:#676666;}.cls-3{fill:#656565;}.cls-4{fill:#ea6523;}.cls-5{fill:#e76323;}.cls-6{fill:#908f90;}.cls-7{fill:#8a8989;}.cls-8{fill:#8e8e8e;}.cls-9{fill:#ef6623;}.cls-10{fill:#010101;}</style></defs><title>Petro Stock</title><g id="Calque_2" data-name="Calque 2"><g id="Calque_1-2" data-name="Calque 1"><path class="cls-1" d="M367.45,90.55c2.87-16.09-8.23-27.5-24.65-25.92-6.1.58-10.63,4.78-16.44,5.7-2-8.7-9.11-6.41-14.41-5.81-4.78.54-9.09,3.06-14.34,1.07-3.93-1.5-5.29,1.33-5.22,5.2.17,8.49.05,17,.05,27.9-4-6.23-9.57-1.54-12.67-5.66-2.94-3.9-1.09-8.52-1.59-12.79-.58-4.93,1.36-7.25,6.54-6.8,2.56.22,5.38.24,5.55-3.63.19-4.38-2.83-4.3-5.75-4.19-3.8.14-6.73-.42-6.36-5.31.25-3.24.31-6.25-4.65-5.83-3.88.31-6.67.93-6.13,5.66.45,3.94-2.11,4.32-5.1,5.92-4.34,2.31-7.15,1.19-11-.24-8.38-3.12-16.85-2.73-24.68,2-3.15,1.89-4.83,2.44-5.59-2.09-1.7-10.2-8.66-14.78-18.27-16.13S183.58,49.11,174,49c-3.11-.05-4.79,1.24-4.78,4.59q.09,22.53,0,45.06c0,3.3,1.53,4.33,4.7,4.59,5,.41,7.41-1.24,6.66-6.38-1.11-7.65,2.34-10.11,9.68-9.51,4.85.4,10.49,1.06,14.56-.91,9-4.34,12.62-3.74,15.68,7.06,2.86,10.1,19,13.48,32.11,8.78,2.52-.9,7.27-1.15,5.79-5.34-1.12-3.17-4.46-4.29-8.49-2.71a20.13,20.13,0,0,1-16.58-.45c-1.66-.82-3.35-2-3.11-4.06.31-2.59,2.69-2,4.34-2,5.69-.11,11.39-.06,17.08-.06,10.45,0,10.48,0,10.9-10.1.07-1.6-.17-3.28,1.95-3.49,2.71-.27,2.73,1.84,2.78,3.63.12,3.62,0,7.25.15,10.88.42,9.92,5.23,14.48,15.24,14.54,4.36,0,8.64-1,13.08,0,5.66,1.24,8.1-1.3,7.48-7.18a85.67,85.67,0,0,1,0-10.87c.24-8.65,4.06-12.13,12.71-11.61,3,.19,6,1.59,9.07,0-4.59,19.28,2.44,30.44,19.72,30.89,9.45.25,17.12-3.46,22.23-11.73,9.7,13.58,23.43,13.76,37.69,10.75,10.29-2.17,15.17-7.86,15.21-15.91.06-8.29-4.64-13.28-15.25-15.68-5.54-1.26-11.23-1.84-16.8-3-3.39-.69-7-2-6.55-6.29.38-3.8,3.56-5.5,7.11-6.07,6.58-1.05,12.89-.71,18.53,3.52,3.92,2.93,7.5.07,9.43-2.33s-1.75-4.23-3.59-5.63C403.65,45,384,45.17,375.12,52c-7.76,6-7.43,17.06.82,22.36a29.4,29.4,0,0,0,11.67,3.94c4.85.72,9.69,1.57,14.47,2.66,3.51.81,6.39,2.91,6.2,6.86s-3.15,6-6.58,6.75c-6.94,1.45-14.91,2.7-20-2.53s-9.27-3.37-14.23-1.49m-215-33c0-10.76-.38-19.58.12-28.35.39-6.55-1.94-8.47-8.34-8.31C130.65,21.2,132,21.89,131.9,9c0-1.29-.07-2.59,0-3.88C132,1.86,130.54.31,127.23.38c-20.94.54-42-1.86-62.8,1.25C26.35,7.32-1.48,41.28.06,79.23c1.57,38.69,32,70.42,70.25,73.38a76.26,76.26,0,0,0,80.75-61.44c2.33-11.83.81-23.76,1.36-33.67M494.19,76.33c-4.35-7.22-10.9-10.76-19-11.73-12.22-1.47-23,5.86-24.89,17S455.86,102,468.74,104c10.92,1.68,19.79-2.19,25.86-11.78C503.43,104,514,107.6,527.21,102.73c3.08-1.14,5.24-.28,7.95.23,5.18,1,9.25.31,8.24-6.84-.37-2.57-1-5.55,1-8.26,9,5.5,13.48,19.64,28.58,14.19-5.45-5.2-10.43-10.35-15.86-15-3.54-3-3.16-4.81.12-7.71,4.51-4,8.47-8.66,12.61-13-13-5.48-17.33,7.55-26.6,13,0-9.42-.14-17.4.06-25.39.11-4.08-1.47-5.3-5.46-5.33-4.23,0-5.49,1.67-5.25,5.54.18,3.09,0,6.2,0,9.32s-1,3.68-4.27,2.59C513,61,504,63.73,494.19,76.33M441.9,103.07a8,8,0,0,0,1.55,0c2.74-.53,7.08,1.12,7.16-3.47.07-3.74-2.18-5.68-6.72-4.78-4,.8-6.06-2.13-6.23-6.07-.13-2.84.13-5.7-.12-8.53-.42-4.79,1-7.4,6.4-6.73,2.67.33,5.7.88,5.74-3.82.05-4.54-2.65-4.29-5.54-4.05-4.17.35-7.25-.26-6.59-5.6.46-3.6-.31-5.84-4.92-5.59-4.09.22-6.36,1.13-5.71,5.71.54,3.78-.83,5.94-5.1,5.52-2.83-.28-3.34,1.57-3.34,4s.7,4.14,3.45,3.89c5.2-.48,5.1,3,5,6.5-.06,2.84-.09,5.69,0,8.53.37,10.2,4.79,14.49,14.92,14.56m44.62,22.33c-3-2.4-6-1.19-8.68-1.55-1.91-.25-3.68-.45-3.4-3,.22-2.09,1.82-2,3.36-2.28,2.94-.56,6.47,1.52,10.26-3-6.78.21-14-3-16.77,1.48s-3,12.76.31,17c2.95,3.84,9.93,1.87,16.59.35-3.74-3.1-6.65-2-9.26-2.29-1.93-.24-4.58.45-4.4-2.8.15-2.59,2.39-2.12,4.11-2.35,2.45-.33,5.14.84,7.88-1.49m10.92,2.54c0,.36.1,2.94.28,5.5.07,1.15.73,2,1.93,1.86.6-.08,1.58-.85,1.58-1.31,0-5.28,3.88-4.3,7.09-4.52,4.39-.29,7.71-2.41,7.73-7,0-5-3.42-7-8.2-7.29-10.15-.68-10.41-.5-10.41,12.76m-49.61-12.72c-4.14-.83-8,.43-6.27,6.14,1.46,4.76-5.71,13.37,5.41,14,8.86.53,13.48-3.27,13.5-10.12,0-6.56-3.88-9.86-12.64-10.07M367.1,135.71c6.81-.06,11-4,11-10.32s-4.55-10.22-11.23-10.14-11.07,4.23-11,10.41,4.42,10.09,11.27,10.05m169.08-20.46c-6.66,0-11.12,4.12-11.15,10.27s4.33,10.2,11.1,10.18,11.22-4.06,11.23-10.17-4.62-10.3-11.18-10.28m18,1.71c7.74.5,7.72,5.39,7.24,10.59a8.12,8.12,0,0,0,0,2.31c.4,2-1.2,5.43,2.46,5.26,2.85-.13,1.81-3.18,1.93-5,.35-5.44-2.38-12.2,7-14-6.43-.46-12.22-2-18.6.87m-134.85,17.5c-1.29-1.13-1.86-2-2.29-2-8.94,1.33-11.09-3.27-9.73-11a4.2,4.2,0,0,0,0-1.54c-.41-1.7,1.22-4.68-2.31-4.53-2.69.11-2,2.55-2,4.2-.09,3.87,0,7.72,0,11.59,0,1.83,0,4,2.38,4.12,4.38.13,8.9,1,14-.88M388.46,125c1.45,3.33-2,9.35,2.49,9.6,3.25.19,1.6-6.12,1.55-9.41s2.09-9.27-1.79-9.23c-4.29,0-.64,6-2.25,9"/><path class="cls-2" d="M152.42,57.5c-.55,9.91,1,21.83-1.36,33.67a76.26,76.26,0,0,1-80.75,61.44C32,149.65,1.63,117.92.06,79.23-1.48,41.28,26.34,7.32,64.43,1.63,85.24-1.48,106.3.92,127.24.39c3.3-.08,4.73,1.47,4.62,4.68,0,1.29,0,2.58,0,3.88.12,12.94-1.24,12.25,12.3,11.89,6.39-.17,8.73,1.76,8.35,8.31-.51,8.77-.13,17.59-.13,28.35m-20.23,6.23c0-7.92-.3-14.42.1-20.88.32-5.32-1.32-7.89-6.89-7-6.39,1-9.24-1.53-8.21-8.07.92-5.95-1.83-7.53-7.5-7.32-11.4.4-22.81,0-34.21.15a56.39,56.39,0,0,0-55.2,52.8c-1.75,28.6,19.2,54.23,48,58.75,28.23,4.42,55.62-14.39,62.55-42.77,2.2-9,.82-18.07,1.34-25.65"/><path class="cls-3" d="M325,73.37c-3,1.58-6,.17-9.06,0-8.66-.52-12.48,3-12.71,11.61a82.11,82.11,0,0,0,0,10.87c.6,5.88-1.83,8.42-7.5,7.18-4.43-1-8.72.07-13.06,0-10-.06-14.83-4.63-15.26-14.54-.15-3.63,0-7.26-.14-10.88-.05-1.79-.08-3.9-2.78-3.63-2.13.21-1.89,1.89-1.94,3.49-.43,10.08-.47,10.08-10.9,10.09-5.7,0-11.4,0-17.09.07-1.65,0-4-.58-4.34,2-.24,2.06,1.45,3.24,3.1,4.06a20.15,20.15,0,0,0,16.59.45c4-1.58,7.38-.46,8.49,2.71,1.48,4.18-3.26,4.43-5.79,5.34-13.08,4.7-29.25,1.32-32.11-8.78-3.06-10.8-6.73-11.4-15.68-7.06-4.07,2-9.71,1.31-14.56.92-7.34-.61-10.79,1.84-9.68,9.5.75,5.15-1.7,6.8-6.65,6.38-3.18-.27-4.72-1.29-4.71-4.59q.06-22.53,0-45.06c0-3.35,1.67-4.64,4.79-4.59,9.56.16,19.16-.75,28.7.6S219.29,55.49,221,65.68c.75,4.53,2.44,4,5.59,2.1,7.83-4.69,16.3-5.07,24.67-2,3.88,1.43,6.69,2.55,11,.24,3-1.6,5.55-2,5.1-5.92-.54-4.72,2.25-5.35,6.13-5.66,5-.42,4.9,2.59,4.65,5.83-.38,4.89,2.55,5.45,6.36,5.31,2.92-.11,5.94-.19,5.75,4.19-.17,3.87-3,3.85-5.55,3.63-5.18-.45-7.11,1.87-6.54,6.8.5,4.27-1.35,8.89,1.6,12.79,3.1,4.12,8.71-.57,12.67,5.65,0-10.91.1-19.4-.06-27.89-.08-3.86,1.29-6.7,5.21-5.2,5.26,2,9.57-.53,14.35-1.07,5.3-.6,12.4-2.89,14.41,5.81l.13-.11a2.54,2.54,0,0,0-1.63,3.28ZM193.06,78.14a.81.81,0,0,1,0,.16c3.09-.2,6.23-.07,9.24-.66a9,9,0,0,0,7.3-7.18,8.76,8.76,0,0,0-3-9.07c-3.12-2.69-20.54-4.6-24-2.47a5.1,5.1,0,0,0-1.84,2.28c-4,10.18.61,17,11.49,16.94Zm48,1.89a10.55,10.55,0,0,0,2.32,0c2.72-.63,7.49,1.69,7.71-2.36s-4.52-4.93-8.12-5.51a11.43,11.43,0,0,0-3.87.05c-3.58.69-8.39,1.66-8.16,5.61S236,79.41,238.75,80a11.12,11.12,0,0,0,2.31,0"/><path class="cls-4" d="M494.19,76.33C504,63.73,513,61,528.34,66.11c3.26,1.09,4.27.64,4.27-2.59s.19-6.23,0-9.32c-.23-3.87,1-5.58,5.26-5.54,4,0,5.57,1.25,5.46,5.33-.2,8-.06,16-.06,25.39,9.27-5.41,13.65-18.44,26.6-13-4.14,4.29-8.1,8.93-12.62,13-3.27,2.9-3.65,4.7-.11,7.71,5.43,4.61,10.4,9.77,15.86,15-15.1,5.45-19.57-8.69-28.58-14.19-2,2.71-1.39,5.69-1,8.26,1,7.15-3.06,7.82-8.24,6.84-2.7-.51-4.87-1.37-7.95-.23C514,107.6,503.43,104,494.6,92.21c-6.08,9.59-14.93,13.46-25.85,11.78-12.89-2-20.31-11.3-18.47-22.36s12.67-18.5,24.89-17c8.12,1,14.66,4.52,19,11.73m38.34,20.28c.15-9.29.69-17.1-.5-26-3.22,2.37-5.19,5.18-9.28,3.08-5.94-3-11.79-1.4-15.87,3.92-3.1,4-3,8.79-.16,13,3.78,5.7,9.73,5.76,15.31,4.25,3.57-1,6.63-1.75,10.5,1.75M473,95.43c7.21,0,12.29-4.84,12-11.33-.27-6.07-5.39-10.66-12-10.76-7-.1-12.4,4.67-12.42,11.06s5.24,11.08,12.4,11"/><path class="cls-5" d="M367.45,90.55c5-1.88,9.06-3.81,14.23,1.48s13.08,4,20,2.54c3.44-.72,6.4-2.93,6.6-6.76s-2.69-6-6.22-6.85c-4.77-1.1-9.61-1.93-14.46-2.66a29.24,29.24,0,0,1-11.67-3.94c-8.25-5.31-8.59-16.38-.81-22.36,8.87-6.82,28.52-7,37.58-.1,1.84,1.4,5.57,3.17,3.59,5.63s-5.51,5.27-9.43,2.33c-5.65-4.23-11.95-4.57-18.53-3.52-3.56.57-6.73,2.27-7.11,6.07-.42,4.26,3.17,5.59,6.55,6.29,5.57,1.13,11.26,1.72,16.8,3,10.61,2.4,15.31,7.4,15.25,15.69-.05,8.06-4.92,13.75-15.21,15.92-14.26,3-28,2.81-37.69-10.75.17-.67.35-1.32.52-2"/><path class="cls-3" d="M367.45,90.55c-.17.65-.35,1.31-.52,2-5.11,8.27-12.78,12-22.23,11.73-17.29-.44-24.3-11.61-19.72-30.88l-.12.13c1.49-.63,2.38-1.54,1.63-3.27l-.13.09c5.81-.9,10.34-5.11,16.44-5.69,16.42-1.57,27.52,9.83,24.65,25.92m-22.24,4.93c7.37.13,12.36-4.29,12.36-11,0-6.48-5.21-11.26-12.26-11.23-6.72,0-11.74,4.5-12,10.68-.28,6.51,4.76,11.38,11.9,11.5"/><path class="cls-4" d="M441.9,103.08C431.77,103,427.35,98.72,427,88.51c-.1-2.84-.07-5.69,0-8.53.07-3.55.17-7-5-6.5-2.76.25-3.45-1.45-3.45-3.89s.51-4.23,3.33-4c4.27.42,5.64-1.74,5.1-5.52-.65-4.59,1.63-5.49,5.71-5.71,4.6-.25,5.38,2,4.92,5.59-.66,5.34,2.42,6,6.59,5.6,2.9-.24,5.59-.49,5.55,4.05-.05,4.7-3.08,4.15-5.75,3.82-5.42-.67-6.82,1.94-6.4,6.73.25,2.83,0,5.69.12,8.53.16,3.94,2.2,6.87,6.23,6.07,4.54-.9,6.79,1,6.72,4.77-.08,4.6-4.42,3-7.16,3.48a10,10,0,0,1-1.55,0"/><path class="cls-6" d="M486.52,125.4c-2.74,2.32-5.43,1.16-7.88,1.49-1.72.23-4-.24-4.11,2.35-.18,3.24,2.47,2.56,4.4,2.8,2.61.32,5.53-.81,9.26,2.29-6.66,1.52-13.64,3.48-16.6-.34-3.26-4.23-3-12.69-.3-17s10-1.27,16.77-1.49c-3.79,4.54-7.32,2.46-10.26,3-1.54.29-3.14.19-3.36,2.29-.28,2.6,1.49,2.8,3.4,3,2.71.36,5.66-.85,8.68,1.55"/><path class="cls-7" d="M497.43,127.94c0-13.26.26-13.44,10.42-12.76,4.79.32,8.24,2.27,8.21,7.28,0,4.6-3.35,6.72-7.74,7-3.21.21-7.05-.77-7.08,4.51,0,.46-1,1.23-1.59,1.32-1.2.16-1.85-.72-1.93-1.86-.17-2.58-.27-5.15-.29-5.51m14.33-4.89c.14-2.67-1.2-4.32-3.94-4.35-2.29,0-5.5-1.34-6,2.61-.3,2.24-.54,4.87,3,4.93,2.74.05,5.78.6,7-3.19"/><path class="cls-6" d="M447.83,115.22c8.77.21,12.66,3.51,12.64,10.07,0,6.85-4.64,10.64-13.51,10.11-11.11-.67-3.95-9.28-5.39-14.05-1.75-5.7,2.13-7,6.26-6.13m2.4,3.35c-3.6-.67-6,.53-5.22,4.31.62,3.19-2.92,8.37,3.45,9.14,4.26.51,7.75-1.44,8.31-6s-2.18-7-6.54-7.45"/><path class="cls-8" d="M367.1,135.71c-6.85,0-11.22-3.85-11.27-10.05s4.37-10.35,11-10.42,11.17,4,11.23,10.15-4.19,10.26-11,10.32m-1-3.17c5.11.13,8.06-2.07,8.3-6.64s-2.38-7.27-7-7.52-7.55,2.23-7.82,6.69,2.37,7.12,6.48,7.47"/><path class="cls-8" d="M536.18,115.24c6.56,0,11.2,4.25,11.18,10.29s-4.47,10.15-11.23,10.17-11.12-4-11.1-10.18,4.49-10.26,11.15-10.28m-.72,17.32c5.22,0,8-2.51,8.07-6.94s-2.55-7.24-7.23-7.24c-4.51,0-7.41,2.32-7.49,7s2.62,7,6.65,7.22"/><path class="cls-7" d="M554.22,117c6.38-2.83,12.17-1.34,18.6-.88-9.33,1.8-6.6,8.56-7,14-.12,1.86.92,4.91-1.93,5-3.66.17-2.06-3.27-2.46-5.26a8.12,8.12,0,0,1,0-2.31c.48-5.19.5-10.1-7.24-10.59"/><path class="cls-7" d="M419.37,134.46c-5.1,1.87-9.62,1-14,.88-2.4-.08-2.37-2.3-2.38-4.12,0-3.86-.07-7.73,0-11.59,0-1.66-.68-4.09,2-4.2,3.53-.15,1.9,2.82,2.31,4.53a4,4,0,0,1,0,1.54c-1.35,7.75.8,12.33,9.74,11,.43-.06,1,.82,2.29,2"/><path class="cls-6" d="M388.46,125c1.61-3-2-9,2.25-9,3.88,0,1.74,6,1.79,9.23s1.7,9.6-1.55,9.41c-4.53-.25-1-6.27-2.49-9.6"/><path class="cls-9" d="M132.19,63.73c-.52,7.58.86,16.66-1.34,25.65-6.93,28.37-34.32,47.19-62.55,42.77-28.82-4.52-49.77-30.15-48-58.75A56.38,56.38,0,0,1,75.47,20.61c11.41-.19,22.82.24,34.22-.17,5.67-.2,8.42,1.39,7.5,7.34-1,6.53,1.82,9.07,8.21,8.06,5.57-.88,7.21,1.69,6.89,7-.4,6.46-.1,13-.1,20.88M85.92,51.23c-3.87,0-7.78-.25-11.62.05A25,25,0,0,0,50.91,75.69c-.35,13.58,8.82,24.36,22.3,26.23,12.73,1.78,24.64-6.54,27.9-19.23,1.32-5.11,1-10.25,1-15.4.05-16.21,0-16.21-16.21-16.06"/><path class="cls-1" d="M241.06,80a11.12,11.12,0,0,1-2.31,0c-2.76-.6-7.58,1.6-7.81-2.22s4.58-4.92,8.16-5.61a11.43,11.43,0,0,1,3.87-.05c3.6.58,8.35,1.35,8.12,5.51s-5,1.73-7.71,2.36a10.55,10.55,0,0,1-2.32,0"/><path class="cls-10" d="M326.49,70.23c.75,1.73-.14,2.65-1.63,3.27a2.53,2.53,0,0,1,1.63-3.27"/><path class="cls-1" d="M532.53,96.6c-3.86-3.49-6.93-2.71-10.5-1.74-5.58,1.51-11.53,1.44-15.3-4.25-2.83-4.25-3-9,.15-13,4.08-5.32,9.93-7,15.87-3.92,4.1,2.1,6.06-.7,9.28-3.08,1.19,9,.65,16.75.5,26"/><path class="cls-1" d="M473,95.43c-7.16,0-12.43-4.64-12.4-11S466,73.24,473,73.34c6.6.1,11.72,4.69,12,10.76.28,6.49-4.8,11.29-12,11.33"/><path class="cls-1" d="M345.21,95.48c-7.14-.12-12.18-5-11.9-11.5.26-6.18,5.28-10.66,12-10.68,7.05,0,12.25,4.75,12.26,11.23,0,6.66-5,11.08-12.36,11"/><path class="cls-1" d="M511.76,123.05c-1.2,3.79-4.24,3.24-7,3.19-3.51-.06-3.27-2.69-3-4.93.51-4,3.72-2.63,6-2.61,2.74,0,4.08,1.68,3.94,4.35"/><path class="cls-1" d="M450.23,118.57c4.36.44,7.1,2.9,6.54,7.45s-4,6.51-8.31,6c-6.37-.77-2.83-6-3.45-9.14-.74-3.78,1.62-5,5.22-4.31"/><path class="cls-1" d="M366.09,132.54c-4.11-.35-6.75-3-6.48-7.47s3.23-6.94,7.82-6.69,7.2,3,7,7.52-3.19,6.77-8.3,6.64"/><path class="cls-1" d="M535.46,132.56c-4-.24-6.73-2.61-6.65-7.22s3-7,7.49-7c4.68,0,7.3,2.87,7.23,7.24s-2.85,7-8.07,6.94"/><path class="cls-1" d="M85.92,51.23c16.23-.15,16.26-.15,16.21,16.06,0,5.15.3,10.29-1,15.4-3.26,12.69-15.17,21-27.9,19.23-13.48-1.87-22.65-12.65-22.3-26.23A25,25,0,0,1,74.3,51.28c3.84-.3,7.75-.05,11.62-.05"/></g></g></svg>